<svg width="10" height="15" viewBox="0 0 10 15" fill="none" xmlns="http://www.w3.org/2000/svg">
<path d="M8.88567 0.744874C8.76704 0.633166 8.62591 0.5445 8.4704 0.483993C8.3149 0.423485 8.14811 0.392333 7.97965 0.392333C7.81119 0.392333 7.6444 0.423485 7.4889 0.483993C7.3334 0.544501 7.19226 0.633166 7.07363 0.744874L0.693229 6.70403C0.573624 6.81482 0.478691 6.94664 0.413906 7.09188C0.349121 7.23711 0.315767 7.39289 0.315767 7.55023C0.315767 7.70756 0.349121 7.86334 0.413906 8.00858C0.478691 8.15381 0.573624 8.28563 0.693229 8.39643L7.07364 14.3556C7.19226 14.4673 7.3334 14.556 7.4889 14.6165C7.64441 14.677 7.8112 14.7081 7.97965 14.7081C8.14811 14.7081 8.3149 14.677 8.47041 14.6165C8.62591 14.556 8.76704 14.4673 8.88567 14.3556C9.00528 14.2448 9.10021 14.113 9.16499 13.9677C9.22978 13.8225 9.26313 13.6667 9.26313 13.5094C9.26313 13.352 9.22978 13.1963 9.16499 13.051C9.10021 12.9058 9.00528 12.774 8.88567 12.6632L3.39852 7.55023L8.88567 2.43727C9.00527 2.32648 9.10021 2.19466 9.16499 2.04942C9.22978 1.90419 9.26313 1.74841 9.26313 1.59107C9.26313 1.43374 9.22978 1.27796 9.16499 1.13272C9.10021 0.987488 9.00527 0.85567 8.88567 0.744874Z" fill="black"/>
</svg>
