<?xml version="1.0" encoding="utf-8"?>
<!-- Generator: Adobe Illustrator 23.0.5, SVG Export Plug-In . SVG Version: 6.00 Build 0)  -->
<svg version="1.1" id="Calque_1" xmlns="http://www.w3.org/2000/svg" xmlns:xlink="http://www.w3.org/1999/xlink" x="0px" y="0px"
	 viewBox="0 0 24 24" style="enable-background:new 0 0 24 24;" xml:space="preserve">
<style type="text/css">
	.st0{fill:#A3A3A3;}
</style>
<g>
	<path class="st0" d="M0,4.3c2.3,0,4.7,0,7,0c1,0,1.9,0.1,2.7,0.6c1.1,0.6,1.7,1.5,1.8,2.8c0,0.4,0,0.9-0.1,1.3
		c-0.1,0.9-0.7,1.5-1.4,1.9C10.1,11,10,11,10,11.1c0,0,0,0,0,0c0.2,0.1,0.5,0.2,0.7,0.4c1,0.6,1.4,1.5,1.5,2.7
		c0.1,1.2-0.2,2.3-1,3.2c-0.7,0.8-1.6,1.3-2.7,1.5c-0.6,0.1-1.1,0.1-1.7,0.1c-2.3,0-4.5,0-6.8,0C0,14.1,0,9.2,0,4.3z M3,16.4
		c0.6,0,1.1,0,1.7,0c0.9,0,1.7,0,2.6-0.1c0.9-0.1,1.5-0.6,1.7-1.4c0.1-0.3,0.1-0.7,0-1c0-0.5-0.3-0.9-0.7-1.1
		c-0.4-0.2-0.9-0.3-1.3-0.3c-1.3,0-2.5,0-3.8,0c-0.1,0-0.1,0-0.2,0C3,13.8,3,15.1,3,16.4z M3,10.1c0.1,0,0.1,0,0.1,0
		c1.2,0,2.4,0,3.5,0c0.4,0,0.7-0.1,1.1-0.2c0.4-0.1,0.7-0.3,0.9-0.7c0.1-0.4,0.2-0.7,0.1-1.1c-0.1-0.6-0.4-0.9-1-1
		C7.5,7,7.2,6.9,7,6.9c-1.3,0-2.6,0-3.9,0c0,0-0.1,0-0.1,0C3,8,3,9,3,10.1z"/>
	<path class="st0" d="M24,14.3c-2.6,0-5.3,0-7.9,0c0,1.3,0.7,2.4,2,2.6c0.8,0.1,1.5,0.1,2.2-0.4c0.2-0.2,0.4-0.4,0.6-0.6
		c0.1-0.1,0.2-0.1,0.2-0.1c0.9,0,1.8,0,2.7,0c0,0,0,0,0.1,0c-0.1,0.3-0.2,0.7-0.4,0.9c-0.8,1.4-2,2.2-3.6,2.4
		c-1.2,0.2-2.4,0.1-3.5-0.3c-1.9-0.8-3-2.2-3.2-4.2c-0.1-1.1-0.1-2.2,0.2-3.2c0.6-1.8,1.8-3,3.7-3.4c1.5-0.4,3-0.2,4.4,0.5
		c0.8,0.4,1.4,1.1,1.8,1.9C23.9,11.4,24.2,13.2,24,14.3z M16.1,12.5c1.6,0,3.3,0,4.9,0c0-1.2-0.8-2.1-2.1-2.3
		C17.3,10.1,16.4,10.9,16.1,12.5z"/>
	<path class="st0" d="M15.4,5c2.1,0,4.2,0,6.3,0c0,0.6,0,1.2,0,1.8c-2.1,0-4.2,0-6.3,0C15.4,6.2,15.4,5.7,15.4,5z"/>
</g>
</svg>
