<?xml version="1.0" encoding="utf-8"?>
<!-- Generator: Adobe Illustrator 23.0.5, SVG Export Plug-In . SVG Version: 6.00 Build 0)  -->
<svg version="1.1" id="Calque_1" xmlns="http://www.w3.org/2000/svg" xmlns:xlink="http://www.w3.org/1999/xlink" x="0px" y="0px"
	 viewBox="0 0 163 44" style="enable-background:new 0 0 163 44;" xml:space="preserve">
<style type="text/css">
	.st0{fill:#777777;}
</style>
<path class="st0" d="M123.9,34.7c0.4,0.4,0.9,0.8,1.3,1.2c1.3,1.4,2.9,1.9,4.8,1.4c1.6-0.4,2.4-1.6,3-3c0.3-0.7,0.4-1.4,0.6-2.3
	c-0.5,0.4-0.9,0.7-1.3,0.9c-2.7,1.3-7,0.4-8.1-4c-0.2-0.8-0.4-1.7-0.4-2.5c-0.2-2.6,0-5.1,0.8-7.6c0.9-2.6,2.4-4.7,4.8-6.2
	c2.2-1.4,4.7-1.6,7.2-1.6c2.4,0,4.9,0,7.3,0c0.2,0,0.4,0,0.6,0.1c-0.1,0.8-0.2,1.6-0.3,2.4c-0.8,4.1-1.6,8.2-2.3,12.3
	c-0.4,2.1-0.7,4.2-1.1,6.3c-0.5,2.2-1,4.3-2,6.3c-1.8,3.3-4.7,4.7-8.3,4.9c-1.9,0.1-3.8-0.2-5.7-0.9c-0.7-0.2-2-1-2.7-1.9
	C122.6,38.7,123.2,36.7,123.9,34.7z M136.5,16.7c-0.9-0.4-1.5-0.3-2.4,0.3c-2.6,1.7-3.9,6.1-2.8,9.2c0.4,1.2,1.4,1.9,3.1,1
	C135,23.8,135.7,20.3,136.5,16.7z"/>
<path class="st0" d="M37,33.1c-2.5,0-4.8,0-7.3,0c0-0.2,0-0.4,0-0.6c0.7-3.8,1.4-7.6,2.1-11.5c0.2-1.2,0.6-2.5,0-3.7
	c-0.9-0.8-2.5-0.4-2.8,0.9c-0.5,2.4-0.9,4.8-1.3,7.2c-0.4,2.5-0.9,4.9-1.4,7.4c0,0.1-0.1,0.1-0.1,0.2c-2.4,0-4.8,0-7.3,0
	c1.8-10.3,3.7-20.6,5.5-31c2.5-0.5,5-1.1,7.7-1.6c-0.7,4.1-1.4,8-2.1,12.1c0.5-0.3,0.8-0.6,1.2-0.9c1.7-1.1,3.5-1.5,5.5-0.7
	c1.8,0.8,2.8,2.3,2.9,4.3c0.2,2.4-0.2,4.7-0.7,7.1c-0.7,3.5-1.2,6.9-1.8,10.4C37.1,32.8,37,32.9,37,33.1z"/>
<path class="st0" d="M109,33c-2.5,0-4.9,0-7.4,0c1.3-7.2,2.6-14.4,3.8-21.6c2.4-0.4,4.8-0.8,7.2-1.2c0,0.7,0,1.4,0,2.2
	c0.3-0.2,0.5-0.3,0.7-0.5c1.4-1.1,2.9-1.7,4.7-1.5c1.9,0.2,3.8,1.8,4.1,3.8c0.3,2,0.2,3.9-0.1,5.9c-0.7,4-1.4,7.9-2.2,11.9
	c-0.1,0.3-0.1,0.6-0.2,0.9c-2.4,0-4.8,0-7.3,0c0.2-1,0.3-2.1,0.5-3.1c0.6-3.6,1.3-7.1,1.9-10.7c0.1-0.6-0.1-1.2-0.2-1.8
	c-0.1-0.5-0.5-0.7-1-0.7c-0.8,0-1.7,0.7-1.8,1.5c-0.8,4.5-1.6,9-2.4,13.6C109.2,32.2,109.1,32.6,109,33z"/>
<path class="st0" d="M61.9,11.2c-1.3,7.3-2.7,14.5-4,21.8c-2.4,0-4.7,0-7,0c0-0.3,0-0.5,0-0.8c-1.8,1.6-3.8,1.7-5.9,0.9
	c-1.3-0.5-2.2-1.4-2.8-2.6c-0.6-1.1-0.9-2.3-1-3.5c-0.2-3-0.1-6,1.1-8.9c1.1-2.8,3-4.8,5.7-6c1.2-0.6,2.5-0.8,3.8-0.9
	c3.2-0.1,6.4-0.1,9.6-0.1C61.5,11.1,61.7,11.2,61.9,11.2z M51.7,27.3c0.7-3.6,1.4-7.1,2.2-10.7c-1.4-0.5-2.3,0.2-3.1,1
	c-1.4,1.3-2.1,3.1-2.4,5c-0.2,1.3-0.1,2.6,0.4,3.9C49.3,27.8,50.4,28.1,51.7,27.3z"/>
<path class="st0" d="M18.1,24.9c-0.5,2.5-1,4.8-1.5,7.3c-0.3,0.2-0.7,0.6-1.2,0.7C13,33.6,10.5,34,8,33.5c-3.3-0.7-5.5-2.7-6.7-5.8
	c-1.4-3.4-1.6-7-0.9-10.6c0.5-2.6,1.3-5.1,2.8-7.3c1.3-2,3-3.6,5.1-4.8C11.8,2.7,15.4,3,19,4.7c0.4,0.2,0.7,0.3,1.1,0.5
	c0.3,0.1,0.5,0.3,0.8,0.5c-0.5,2.3-1.1,4.6-1.7,7c-0.4-0.4-0.7-0.6-1-0.9c-2.4-2-4.4-1.7-6.5-0.3c-3.5,2.4-5.3,7.9-3.6,12.1
	c1.3,3.2,4.3,4.3,7.4,2.8C16.5,25.9,17.2,25.4,18.1,24.9z"/>
<path class="st0" d="M162,24.1c-3.6,0-7.1,0-10.6,0c0.2,2.1,1.5,3.4,3.4,3.6c1.7,0.2,3.3-0.3,4.7-1.1c0.6-0.4,1.2-0.7,2-1.2
	c-0.3,1.4-0.6,2.7-0.9,4c-0.1,0.4-0.3,0.8-0.3,1.3c-0.1,1.3-1,1.9-2,2.3c-2.8,1-5.6,1.3-8.5,0.2c-1.3-0.5-2.4-1.4-3.2-2.6
	c-1.5-2.2-2-4.8-1.9-7.5c0.1-2.6,0.7-5.2,1.9-7.5c1.2-2.4,3.1-4,5.7-4.6c2-0.4,3.9-0.5,5.8,0.1c1.8,0.6,3.1,1.8,3.7,3.6
	C162.9,17.7,162.9,20.8,162,24.1z M151.8,19c1.6,0,3,0,4.6,0c0-0.6,0.1-1.2,0-1.8c-0.2-1.5-1.5-2-2.7-1.2
	C152.7,16.7,152.2,17.7,151.8,19z"/>
<path class="st0" d="M100.6,24.1c-3.5,0-7,0-10.6,0c0.1,2.2,1.8,3.4,3.1,3.6c1.9,0.3,3.5-0.2,5.1-1.2c0.6-0.3,1.1-0.7,1.8-1.1
	c-0.1,0.8-0.2,1.4-0.3,2c-0.2,1.1-0.5,2.1-0.7,3.2c-0.2,1.2-1,2-2,2.3c-2.8,1-5.6,1.3-8.5,0.2c-1.9-0.7-3.1-2-4-3.8
	c-1.7-3.7-1.4-7.5-0.3-11.3c0.4-1.3,0.9-2.4,1.6-3.5c1.4-2,3.2-3.2,5.6-3.6c2.3-0.4,4.5-0.3,6.6,0.9c1.4,0.8,2.2,2,2.6,3.5
	c0.7,2.8,0.7,5.7,0,8.6C100.7,23.9,100.7,23.9,100.6,24.1z M94.9,19c0-0.7,0.1-1.5,0-2.1c-0.1-0.9-0.9-1.4-1.8-1.2
	c-1.2,0.2-2.6,2-2.5,3.3C92,19,93.4,19,94.9,19z"/>
<path class="st0" d="M66.5,2.1c2.5-0.5,5-1.1,7.6-1.6c-2,11-3.9,21.8-5.8,32.6c-2.4,0-4.9,0-7.4,0c0.1-0.4,0.1-0.7,0.2-1.1
	c1-5.7,2.1-11.5,3.1-17.2c0.7-4,1.4-8.1,2.1-12.1C66.3,2.5,66.4,2.3,66.5,2.1z"/>
<path class="st0" d="M78.8,33.1c-2.5,0-4.8,0-7.3,0c1.8-10.3,3.7-20.6,5.5-31c2.5-0.5,5-1.1,7.7-1.6c-0.1,0.6-0.1,1-0.2,1.4
	c-0.8,4.2-1.6,8.5-2.3,12.7c-0.6,3-1.1,6.1-1.6,9.1c-0.5,2.8-1,5.6-1.5,8.4C79,32.4,78.9,32.7,78.8,33.1z"/>
<path class="st0" d="M69.1,42.2h-1.2v-4.9h1.2V42.2z"/>
<path class="st0" d="M73.9,42.2h-1.2L71,39.2v3.1h-1.2v-4.9H71l1.7,3.1v-3.1h1.2V42.2z"/>
<path class="st0" d="M78.3,38.2h-1.4v4h-1.2v-4h-1.4v-0.9h4V38.2z"/>
<path class="st0" d="M81.8,40.1h-1.8v1.2h2.1v0.9h-3.3v-4.9h3.3v0.9h-2.2v1h1.8V40.1z"/>
<path class="st0" d="M84.4,40.5h-0.6v1.7h-1.2v-4.9h1.9c0.6,0,1,0.1,1.3,0.4c0.3,0.3,0.5,0.6,0.5,1.1c0,0.3-0.1,0.6-0.2,0.9
	c-0.1,0.2-0.3,0.4-0.6,0.5l1,2v0.1h-1.2L84.4,40.5z M83.7,39.6h0.7c0.2,0,0.4-0.1,0.5-0.2c0.1-0.1,0.2-0.3,0.2-0.5
	c0-0.2-0.1-0.4-0.2-0.5c-0.1-0.1-0.3-0.2-0.5-0.2h-0.7V39.6z"/>
<path class="st0" d="M91,42.2h-1.2l-1.7-3.1v3.1H87v-4.9h1.2l1.7,3.1v-3.1H91V42.2z"/>
<path class="st0" d="M94.5,41.3h-1.6l-0.3,0.9h-1.2l1.8-4.9h1.1l1.8,4.9h-1.2L94.5,41.3z M93.2,40.4h1l-0.5-1.7L93.2,40.4z"/>
<path class="st0" d="M99.7,38.2h-1.4v4h-1.2v-4h-1.4v-0.9h4V38.2z"/>
<path class="st0" d="M101.5,42.2h-1.2v-4.9h1.2V42.2z"/>
<path class="st0" d="M106.3,39.9c0,0.5-0.1,0.9-0.3,1.3c-0.2,0.4-0.4,0.7-0.7,0.9s-0.7,0.3-1.1,0.3c-0.4,0-0.8-0.1-1.1-0.3
	c-0.3-0.2-0.6-0.5-0.7-0.8c-0.2-0.4-0.3-0.8-0.3-1.2v-0.3c0-0.5,0.1-0.9,0.3-1.3c0.2-0.4,0.4-0.7,0.7-0.9c0.3-0.2,0.7-0.3,1.1-0.3
	c0.4,0,0.8,0.1,1.1,0.3c0.3,0.2,0.6,0.5,0.7,0.8c0.2,0.4,0.3,0.8,0.3,1.3L106.3,39.9L106.3,39.9z M105.2,39.7c0-0.5-0.1-0.9-0.2-1.1
	c-0.2-0.3-0.4-0.4-0.7-0.4c-0.6,0-0.9,0.4-0.9,1.3l0,0.4c0,0.5,0.1,0.9,0.2,1.1c0.2,0.3,0.4,0.4,0.7,0.4c0.3,0,0.5-0.1,0.7-0.4
	c0.2-0.3,0.2-0.6,0.2-1.1V39.7z"/>
<path class="st0" d="M110.9,42.2h-1.2l-1.7-3.1v3.1h-1.2v-4.9h1.2l1.7,3.1v-3.1h1.2V42.2z"/>
<path class="st0" d="M114.5,41.3h-1.6l-0.3,0.9h-1.2l1.8-4.9h1.1l1.8,4.9h-1.2L114.5,41.3z M113.2,40.4h1l-0.5-1.7L113.2,40.4z"/>
<path class="st0" d="M117.5,41.3h2v0.9h-3.2v-4.9h1.2V41.3z"/>
<path class="st0" d="M106.2,6.8h1.6v0.6h-2.3V3.7h0.8V6.8z"/>
<path class="st0" d="M107.6,4.8l-0.3-0.2c0.1-0.2,0.2-0.5,0.2-0.7V3.5h0.6v0.4c0,0.2,0,0.3-0.1,0.5C107.9,4.5,107.8,4.7,107.6,4.8z"
	/>
<path class="st0" d="M110.4,6.6h-1.3l-0.3,0.8h-0.8l1.4-3.7h0.7l1.4,3.7h-0.8L110.4,6.6z M109.3,6h0.9l-0.5-1.4L109.3,6z"/>
<path class="st0" d="M112,7.4V5.2h-0.4V4.6h0.4V4.4c0-0.3,0.1-0.6,0.3-0.7c0.2-0.2,0.4-0.3,0.7-0.3c0.1,0,0.2,0,0.4,0.1l0,0.6
	c-0.1,0-0.1,0-0.2,0c-0.3,0-0.4,0.1-0.4,0.4v0.2h0.5v0.5h-0.5v2.2H112z"/>
<path class="st0" d="M115.1,5.3c-0.1,0-0.2,0-0.3,0c-0.3,0-0.5,0.1-0.5,0.3v1.8h-0.7V4.6h0.7l0,0.3c0.1-0.3,0.3-0.4,0.6-0.4
	c0.1,0,0.2,0,0.2,0L115.1,5.3z"/>
<path class="st0" d="M115.5,3.9c0-0.1,0-0.2,0.1-0.3s0.2-0.1,0.3-0.1c0.1,0,0.2,0,0.3,0.1c0.1,0.1,0.1,0.2,0.1,0.3
	c0,0.1,0,0.2-0.1,0.3c-0.1,0.1-0.2,0.1-0.3,0.1s-0.2,0-0.3-0.1C115.5,4.1,115.5,4,115.5,3.9z M116.2,7.4h-0.7V4.6h0.7V7.4z"/>
<path class="st0" d="M116.7,6c0-0.4,0.1-0.8,0.3-1c0.2-0.3,0.4-0.4,0.8-0.4c0.3,0,0.5,0.1,0.7,0.3l0-0.3h0.6v3.8h-0.7V7.2
	c-0.2,0.2-0.4,0.3-0.7,0.3c-0.3,0-0.6-0.1-0.8-0.4C116.8,6.8,116.7,6.4,116.7,6z M117.4,6c0,0.3,0,0.5,0.1,0.6
	c0.1,0.1,0.2,0.2,0.4,0.2c0.2,0,0.4-0.1,0.5-0.3V5.4c-0.1-0.2-0.2-0.3-0.5-0.3c-0.2,0-0.3,0.1-0.4,0.2C117.5,5.5,117.4,5.7,117.4,6z
	"/>
<path class="st0" d="M121.4,7.1c-0.2,0.2-0.4,0.3-0.7,0.3c-0.3,0-0.5-0.1-0.7-0.3c-0.2-0.2-0.2-0.4-0.2-0.8V4.6h0.7v1.8
	c0,0.3,0.1,0.4,0.4,0.4c0.2,0,0.4-0.1,0.5-0.3v-2h0.7v2.8h-0.7L121.4,7.1z"/>
<path class="st0" d="M123.9,7.5c-0.4,0-0.7-0.1-1-0.4c-0.3-0.2-0.4-0.6-0.4-1V6c0-0.3,0.1-0.5,0.2-0.7c0.1-0.2,0.3-0.4,0.4-0.5
	c0.2-0.1,0.4-0.2,0.7-0.2c0.4,0,0.7,0.1,0.9,0.4c0.2,0.2,0.3,0.6,0.3,1v0.3h-1.7c0,0.2,0.1,0.3,0.2,0.4c0.1,0.1,0.3,0.2,0.4,0.2
	c0.3,0,0.5-0.1,0.7-0.3l0.4,0.4c-0.1,0.2-0.3,0.3-0.4,0.4S124.1,7.5,123.9,7.5z M123.8,5.2c-0.1,0-0.3,0-0.4,0.1
	c-0.1,0.1-0.1,0.2-0.2,0.4h1V5.7c0-0.2,0-0.3-0.1-0.4C124,5.2,123.9,5.2,123.8,5.2z"/>
<path class="st0" d="M126.5,6c0-0.3,0.1-0.5,0.2-0.7c0.1-0.2,0.3-0.4,0.4-0.5c0.2-0.1,0.4-0.2,0.7-0.2c0.4,0,0.7,0.1,0.9,0.3
	c0.2,0.2,0.4,0.5,0.4,0.9l0,0.2c0,0.4-0.1,0.8-0.3,1c-0.2,0.3-0.5,0.4-0.9,0.4c-0.4,0-0.7-0.1-0.9-0.4C126.7,6.8,126.5,6.5,126.5,6
	L126.5,6z M127.3,6c0,0.3,0,0.5,0.1,0.6c0.1,0.1,0.2,0.2,0.4,0.2c0.2,0,0.3-0.1,0.4-0.2c0.1-0.1,0.1-0.4,0.1-0.7
	c0-0.3-0.1-0.5-0.1-0.6c-0.1-0.1-0.2-0.2-0.4-0.2c-0.2,0-0.3,0.1-0.4,0.2C127.3,5.5,127.3,5.7,127.3,6z"/>
<path class="st0" d="M129.8,7.4V5.2h-0.4V4.6h0.4V4.4c0-0.3,0.1-0.6,0.3-0.7c0.2-0.2,0.4-0.3,0.7-0.3c0.1,0,0.2,0,0.4,0.1l0,0.6
	c-0.1,0-0.1,0-0.2,0c-0.3,0-0.4,0.1-0.4,0.4v0.2h0.5v0.5h-0.5v2.2H129.8z"/>
<path class="st0" d="M131.6,7.4V5.2h-0.4V4.6h0.4V4.4c0-0.3,0.1-0.6,0.3-0.7c0.2-0.2,0.4-0.3,0.7-0.3c0.1,0,0.2,0,0.4,0.1l0,0.6
	c-0.1,0-0.1,0-0.2,0c-0.3,0-0.4,0.1-0.4,0.4v0.2h0.5v0.5h-0.5v2.2H131.6z"/>
<path class="st0" d="M134.8,5.3c-0.1,0-0.2,0-0.3,0c-0.3,0-0.5,0.1-0.5,0.3v1.8h-0.7V4.6h0.7l0,0.3c0.1-0.3,0.3-0.4,0.6-0.4
	c0.1,0,0.2,0,0.2,0L134.8,5.3z"/>
<path class="st0" d="M136.3,7.5c-0.4,0-0.7-0.1-1-0.4c-0.3-0.2-0.4-0.6-0.4-1V6c0-0.3,0.1-0.5,0.2-0.7c0.1-0.2,0.3-0.4,0.4-0.5
	c0.2-0.1,0.4-0.2,0.7-0.2c0.4,0,0.7,0.1,0.9,0.4c0.2,0.2,0.3,0.6,0.3,1v0.3h-1.7c0,0.2,0.1,0.3,0.2,0.4c0.1,0.1,0.3,0.2,0.4,0.2
	c0.3,0,0.5-0.1,0.7-0.3l0.4,0.4c-0.1,0.2-0.3,0.3-0.4,0.4C136.7,7.4,136.5,7.5,136.3,7.5z M136.2,5.2c-0.1,0-0.3,0-0.4,0.1
	c-0.1,0.1-0.1,0.2-0.2,0.4h1V5.7c0-0.2,0-0.3-0.1-0.4C136.5,5.2,136.4,5.2,136.2,5.2z"/>
<path class="st0" d="M139.9,7.4h-0.7V3.5h0.7V7.4z"/>
<path class="st0" d="M141.7,7.5c-0.4,0-0.7-0.1-1-0.4c-0.3-0.2-0.4-0.6-0.4-1V6c0-0.3,0.1-0.5,0.2-0.7c0.1-0.2,0.3-0.4,0.4-0.5
	c0.2-0.1,0.4-0.2,0.7-0.2c0.4,0,0.7,0.1,0.9,0.4c0.2,0.2,0.3,0.6,0.3,1v0.3h-1.7c0,0.2,0.1,0.3,0.2,0.4c0.1,0.1,0.3,0.2,0.4,0.2
	c0.3,0,0.5-0.1,0.7-0.3l0.4,0.4c-0.1,0.2-0.3,0.3-0.4,0.4C142.2,7.4,141.9,7.5,141.7,7.5z M141.6,5.2c-0.1,0-0.3,0-0.3,0.1
	c-0.1,0.1-0.1,0.2-0.2,0.4h1V5.7c0-0.2,0-0.3-0.1-0.4C141.9,5.2,141.8,5.2,141.6,5.2z"/>
<path class="st0" d="M145.2,4.6l0,0.3c0.2-0.2,0.5-0.4,0.8-0.4c0.4,0,0.6,0.1,0.7,0.4c0.2-0.3,0.5-0.4,0.8-0.4
	c0.3,0,0.5,0.1,0.7,0.3c0.1,0.2,0.2,0.4,0.2,0.8v1.8h-0.7V5.6c0-0.2,0-0.3-0.1-0.3c-0.1-0.1-0.2-0.1-0.3-0.1c-0.2,0-0.4,0.1-0.5,0.3
	l0,1.9h-0.7V5.6c0-0.2,0-0.3-0.1-0.3c-0.1-0.1-0.2-0.1-0.3-0.1c-0.2,0-0.4,0.1-0.4,0.3v2h-0.7V4.6H145.2z"/>
<path class="st0" d="M150.2,7.5c-0.4,0-0.7-0.1-1-0.4c-0.3-0.2-0.4-0.6-0.4-1V6c0-0.3,0.1-0.5,0.2-0.7c0.1-0.2,0.3-0.4,0.4-0.5
	c0.2-0.1,0.4-0.2,0.7-0.2c0.4,0,0.7,0.1,0.9,0.4c0.2,0.2,0.3,0.6,0.3,1v0.3h-1.7c0,0.2,0.1,0.3,0.2,0.4c0.1,0.1,0.3,0.2,0.4,0.2
	c0.3,0,0.5-0.1,0.7-0.3l0.4,0.4c-0.1,0.2-0.3,0.3-0.4,0.4C150.6,7.4,150.4,7.5,150.2,7.5z M150.1,5.2c-0.1,0-0.3,0-0.4,0.1
	c-0.1,0.1-0.1,0.2-0.2,0.4h1V5.7c0-0.2,0-0.3-0.1-0.4C150.4,5.2,150.3,5.2,150.1,5.2z"/>
<path class="st0" d="M151.7,3.9c0-0.1,0-0.2,0.1-0.3c0.1-0.1,0.2-0.1,0.3-0.1c0.1,0,0.2,0,0.3,0.1c0.1,0.1,0.1,0.2,0.1,0.3
	c0,0.1,0,0.2-0.1,0.3c-0.1,0.1-0.2,0.1-0.3,0.1c-0.1,0-0.2,0-0.3-0.1C151.8,4.1,151.7,4,151.7,3.9z M152.5,7.4h-0.7V4.6h0.7V7.4z"/>
<path class="st0" d="M153.9,7.4h-0.7V3.5h0.7V7.4z"/>
<path class="st0" d="M155.2,7.4h-0.7V3.5h0.7V7.4z"/>
<path class="st0" d="M157.1,7.5c-0.4,0-0.7-0.1-1-0.4c-0.3-0.2-0.4-0.6-0.4-1V6c0-0.3,0.1-0.5,0.2-0.7c0.1-0.2,0.3-0.4,0.4-0.5
	c0.2-0.1,0.4-0.2,0.7-0.2c0.4,0,0.7,0.1,0.9,0.4c0.2,0.2,0.3,0.6,0.3,1v0.3h-1.7c0,0.2,0.1,0.3,0.2,0.4c0.1,0.1,0.3,0.2,0.4,0.2
	c0.3,0,0.5-0.1,0.7-0.3l0.4,0.4c-0.1,0.2-0.3,0.3-0.4,0.4S157.3,7.5,157.1,7.5z M157,5.2c-0.1,0-0.3,0-0.3,0.1
	c-0.1,0.1-0.1,0.2-0.2,0.4h1V5.7c0-0.2,0-0.3-0.1-0.4C157.3,5.2,157.1,5.2,157,5.2z"/>
<path class="st0" d="M160.2,7.1c-0.2,0.2-0.4,0.3-0.7,0.3c-0.3,0-0.5-0.1-0.7-0.3c-0.2-0.2-0.2-0.4-0.2-0.8V4.6h0.7v1.8
	c0,0.3,0.1,0.4,0.4,0.4c0.2,0,0.4-0.1,0.5-0.3v-2h0.7v2.8h-0.7L160.2,7.1z"/>
<path class="st0" d="M163,5.3c-0.1,0-0.2,0-0.3,0c-0.3,0-0.5,0.1-0.5,0.3v1.8h-0.7V4.6h0.7l0,0.3c0.1-0.3,0.3-0.4,0.6-0.4
	c0.1,0,0.2,0,0.2,0L163,5.3z"/>
</svg>
