<svg width="92" height="66" viewBox="0 0 92 66" fill="none" xmlns="http://www.w3.org/2000/svg">
<rect width="91.978" height="66" rx="5" fill="#F1F1F1"/>
<path d="M31.1852 13.5418C30.9887 13.5418 30.8003 13.6215 30.6614 13.7635C30.5225 13.9054 30.4444 14.098 30.4444 14.2987V43.2146C30.4444 43.4871 30.5867 43.7353 30.8148 43.8716L45.2119 52.3556C45.3219 52.4206 45.4465 52.4556 45.5737 52.4572C45.7008 52.4588 45.8262 52.427 45.9378 52.3647L61.1704 43.8353C61.2873 43.7699 61.3848 43.6735 61.4525 43.5563C61.5203 43.4391 61.5559 43.3053 61.5556 43.1691V14.2987C61.5556 14.098 61.4775 13.9054 61.3386 13.7635C61.1997 13.6215 61.0113 13.5418 60.8148 13.5418H31.1852ZM26 14.2987C26 11.3738 28.323 9 31.1852 9H60.8148C63.677 9 66 11.3738 66 14.2987V43.1722C65.9996 44.122 65.7495 45.0542 65.2756 45.8713C64.8018 46.6885 64.1218 47.3604 63.3067 47.8169L48.0741 56.3493C47.2928 56.7863 46.4146 57.0102 45.5241 56.9996C44.6335 56.989 43.7607 56.7442 42.9896 56.2888L28.5956 47.8048C27.8066 47.34 27.1513 46.671 26.6956 45.8652C26.24 45.0594 26.0001 44.1452 26 43.2146V14.2987ZM37.1111 21.8683C37.1111 21.266 37.3452 20.6884 37.762 20.2626C38.1787 19.8367 38.744 19.5974 39.3333 19.5974H53.0074C53.5968 19.5974 54.162 19.8367 54.5788 20.2626C54.9955 20.6884 55.2296 21.266 55.2296 21.8683V40.326C55.2299 40.7476 55.1153 41.161 54.8986 41.5198C54.682 41.8787 54.3718 42.1688 54.003 42.3577L47.1644 45.8518C46.8562 46.0091 46.5164 46.0909 46.1719 46.0909C45.8273 46.0909 45.4875 46.0091 45.1793 45.8518L38.3407 42.3577C37.9718 42.1694 37.6613 41.88 37.4442 41.5217C37.227 41.1634 37.1117 40.7505 37.1111 40.329V38.5789C37.1111 37.9767 37.3452 37.3991 37.762 36.9732C38.1787 36.5473 38.744 36.3081 39.3333 36.3081C39.9227 36.3081 40.4879 36.5473 40.9047 36.9732C41.3214 37.3991 41.5556 37.9767 41.5556 38.5789V38.9241L46.1719 41.2798L50.7852 38.9241V33.8646H43.037C42.4477 33.8646 41.8824 33.6253 41.4657 33.1995C41.0489 32.7736 40.8148 32.196 40.8148 31.5937C40.8148 30.9914 41.0489 30.4138 41.4657 29.988C41.8824 29.5621 42.4477 29.3228 43.037 29.3228H50.7852V24.1392H39.3333C38.744 24.1392 38.1787 23.8999 37.762 23.4741C37.3452 23.0482 37.1111 22.4706 37.1111 21.8683Z" fill="#111111"/>
</svg>
