<svg width="93" height="66" viewBox="0 0 93 66" fill="none" xmlns="http://www.w3.org/2000/svg">
<rect x="0.549454" width="91.978" height="66" rx="5" fill="#F1F1F1"/>
<path d="M57.2972 25.8658C58.6801 24.9886 59.7389 23.6912 60.3151 22.168C60.8913 20.6448 60.9538 18.9777 60.4933 17.4164C60.0328 15.855 59.074 14.4835 57.7605 13.507C56.4471 12.5306 54.8497 12.0019 53.2074 12H38.8083C37.1661 12.0019 35.5686 12.5306 34.2552 13.507C32.9418 14.4835 31.983 15.855 31.5225 17.4164C31.062 18.9777 31.1245 20.6448 31.7006 22.168C32.2768 23.6912 33.3356 24.9886 34.7186 25.8658C33.6206 26.562 32.7219 27.5263 32.1089 28.666C31.496 29.8056 31.1893 31.0823 31.2184 32.3733C31.2475 33.6642 31.6115 34.9261 32.2752 36.0375C32.939 37.1489 33.8803 38.0724 35.0085 38.7194C33.7913 39.5085 32.8018 40.5972 32.137 41.8789C31.4723 43.1605 31.155 44.5913 31.2162 46.0309C31.2775 47.4706 31.7153 48.8698 32.4866 50.0915C33.2579 51.3132 34.3364 52.3156 35.6164 53.0004C36.8964 53.6852 38.334 54.029 39.7885 53.9981C41.2429 53.9672 42.6643 53.5626 43.9135 52.8241C45.1626 52.0855 46.1967 51.0383 46.9144 49.7849C47.6321 48.5315 48.0089 47.115 48.0077 45.6741V37.6874C48.7767 38.4122 49.6904 38.9693 50.69 39.323C51.6896 39.6767 52.753 39.8191 53.8115 39.7409C54.87 39.6628 55.9003 39.3659 56.8359 38.8693C57.7716 38.3727 58.5918 37.6875 59.2438 36.8578C59.8957 36.0282 60.365 35.0724 60.6213 34.0521C60.8776 33.0319 60.9153 31.9698 60.7319 30.9342C60.5485 29.8986 60.1481 28.9126 59.5565 28.0397C58.965 27.1667 58.1953 26.4262 57.2972 25.8658ZM58.4071 19.5271C58.4071 20.8931 57.8593 22.203 56.8842 23.1689C55.909 24.1347 54.5865 24.6773 53.2074 24.6773H48.0077V14.377H53.2074C54.5865 14.377 55.909 14.9196 56.8842 15.8854C57.8593 16.8513 58.4071 18.1612 58.4071 19.5271ZM33.6086 19.5271C33.6086 18.1612 34.1565 16.8513 35.1316 15.8854C36.1067 14.9196 37.4293 14.377 38.8083 14.377H45.6079V24.6773H38.8083C37.4293 24.6773 36.1067 24.1347 35.1316 23.1689C34.1565 22.203 33.6086 20.8931 33.6086 19.5271ZM38.8083 37.3546C37.4293 37.3546 36.1067 36.812 35.1316 35.8462C34.1565 34.8803 33.6086 33.5704 33.6086 32.2044C33.6086 30.8385 34.1565 29.5286 35.1316 28.5627C36.1067 27.5969 37.4293 27.0543 38.8083 27.0543H45.6079V37.3546H38.8083ZM45.6079 45.6741C45.6079 46.8494 45.256 47.9983 44.5968 48.9755C43.9375 49.9528 43.0005 50.7144 41.9042 51.1642C40.8079 51.614 39.6016 51.7317 38.4378 51.5024C37.274 51.2731 36.2049 50.7071 35.3659 49.876C34.5268 49.045 33.9554 47.9861 33.7239 46.8334C33.4924 45.6807 33.6112 44.4858 34.0653 43.4C34.5194 42.3141 35.2884 41.386 36.275 40.7331C37.2617 40.0801 38.4217 39.7316 39.6083 39.7316H45.6079V45.6741ZM53.2074 37.3546C52.179 37.3546 51.1737 37.0525 50.3186 36.4866C49.4636 35.9207 48.7971 35.1164 48.4035 34.1753C48.01 33.2343 47.907 32.1987 48.1077 31.1997C48.3083 30.2007 48.8035 29.283 49.5307 28.5627C50.2579 27.8425 51.1844 27.352 52.193 27.1533C53.2017 26.9545 54.2471 27.0565 55.1973 27.4463C56.1474 27.8361 56.9595 28.4962 57.5308 29.3432C58.1021 30.1901 58.4071 31.1858 58.4071 32.2044C58.4071 33.5704 57.8593 34.8803 56.8842 35.8462C55.909 36.812 54.5865 37.3546 53.2074 37.3546Z" fill="#111111"/>
</svg>
