<?xml version="1.0" encoding="utf-8"?>
<!-- Generator: Adobe Illustrator 23.0.5, SVG Export Plug-In . SVG Version: 6.00 Build 0)  -->
<svg version="1.1" id="Calque_1" xmlns="http://www.w3.org/2000/svg" xmlns:xlink="http://www.w3.org/1999/xlink" x="0px" y="0px"
	 viewBox="0 0 240 59" style="enable-background:new 0 0 240 59;" xml:space="preserve">
<style type="text/css">
	.st0{fill:#777777;}
</style>
<path class="st0" d="M61.6,0.9c-1.3,2.4-2.9,4.4-4.7,6v0c-3.6,3.3-8.1,5.3-12.9,6.6c-0.9,0.2-1.7,0.4-2.6,0.6c0,0,0,0,0,0
	C22.6,18.2-0.2,13.6,0,35.7c0,1.8,0.2,3.8,0.5,5.9c0.4-3.1,1.3-5.5,2.5-7.3v0c0.6-0.9,1.3-1.7,2.1-2.4C18.6,20.1,55.7,39,61.6,0.9z"
	/>
<path class="st0" d="M23.4,38.1c-1-0.1-1.9-0.1-2.8-0.1c-3.5,0-12.2,1.2-13,9.1C7.3,50,8,52.4,10.2,54.6c1.6,1.6,4.1,3.1,7.7,4.4
	c-1.6-0.7-5.5-5-3.9-8.1c0.1-0.1,0.1-0.2,0.2-0.3c0.1-0.1,0.1-0.2,0.2-0.3c0.1-0.1,0.1-0.2,0.2-0.3c0,0,0,0,0,0
	c0.1-0.1,0.1-0.2,0.2-0.2c0.1-0.1,0.2-0.2,0.3-0.2c0.1-0.1,0.2-0.1,0.2-0.2c0.1-0.1,0.2-0.2,0.3-0.2c0.1-0.1,0.2-0.1,0.3-0.2
	c0,0,0,0,0,0c0.1-0.1,0.2-0.1,0.3-0.2c0.1,0,0.2-0.1,0.3-0.1c0,0,0.1,0,0.1-0.1c0.1,0,0.2-0.1,0.3-0.1c0.1,0,0.2-0.1,0.3-0.1
	c0.1,0,0.2-0.1,0.3-0.1c0.1,0,0.2-0.1,0.3-0.1c0.1,0,0.3,0,0.4-0.1c0.1,0,0.2,0,0.4-0.1c0.1,0,0.3,0,0.4,0c0.3,0,0.6,0,0.9,0
	c0,0,0,0,0,0c0.1,0,0.3,0,0.4,0c0.1,0,0.3,0,0.4,0c0,0,0.1,0,0.1,0c0.3,0,0.5,0,0.8,0.1c0.2,0,0.3,0,0.5,0.1c1,0.1,2,0.3,3,0.5
	c0.5,0.1,0.9,0.2,1.4,0.3c5.6,1.1,11.5,1.5,18.3-6l0,0c1.7-1.9,3.5-4.2,5.4-7.2c0,0,0,0,0,0c1.4-2.3,2.9-5,4.5-8.1
	C44.8,40.4,32.3,38.6,23.4,38.1z"/>
<path class="st0" d="M60.2,49.9H63V39.8h10v-2.4H63v-7.6h11.9v-2.6H60.2V49.9z"/>
<path class="st0" d="M81.3,27.3h-2.8v22.7h2.8V27.3z"/>
<path class="st0" d="M102.6,45L89,27.3h-2.4v22.7h2.8V32.6l13.4,17.4h2.6V27.3h-2.8V45z"/>
<path class="st0" d="M122.7,38.6c-1.1-0.5-2.5-0.9-4-1.2c-1.3-0.3-2.4-0.6-3.3-0.9c-0.9-0.3-1.5-0.7-1.9-1.1
	c-0.4-0.5-0.6-1.1-0.6-1.9c0-1.1,0.4-2,1.2-2.7c0.8-0.7,2.1-1,3.8-1c0.7,0,1.3,0.1,1.9,0.2c0.6,0.1,1.2,0.3,1.7,0.5
	c0.5,0.2,1,0.5,1.4,0.8c0.4,0.3,0.8,0.6,1,0.9l1.3-2.3c-0.6-0.5-1.3-1-2.1-1.4c-0.8-0.4-1.6-0.7-2.4-0.9c-0.9-0.2-1.8-0.3-2.8-0.3
	c-1.5,0-2.9,0.3-4.1,0.8c-1.2,0.5-2.2,1.3-2.9,2.3s-1,2.2-1,3.7c0,1.2,0.3,2.2,0.8,2.9c0.5,0.7,1.3,1.3,2.3,1.8
	c1,0.5,2.3,0.9,3.8,1.3c1.4,0.3,2.6,0.7,3.5,1c1,0.3,1.7,0.8,2.2,1.3c0.5,0.5,0.7,1.2,0.7,2c0,1.1-0.4,2-1.3,2.6
	c-0.9,0.6-2.1,0.9-3.7,0.9c-0.8,0-1.7-0.1-2.4-0.3c-0.8-0.2-1.5-0.4-2.2-0.7c-0.7-0.3-1.3-0.6-1.8-1c-0.5-0.4-1-0.7-1.3-1.1
	l-1.3,2.4c0.8,0.7,1.7,1.3,2.7,1.8c1,0.5,2,0.8,3.1,1.1c1.1,0.2,2.2,0.4,3.3,0.4c1.2,0,2.2-0.1,3.2-0.4c1-0.2,1.8-0.6,2.6-1.1
	c0.7-0.5,1.3-1.2,1.7-2c0.4-0.8,0.6-1.7,0.6-2.8c0-1.4-0.3-2.4-0.9-3.3C124.7,39.7,123.8,39.1,122.7,38.6z"/>
<path class="st0" d="M145.7,38.7c0,1.1-0.1,2.2-0.3,3.2c-0.2,1-0.6,2-1.1,2.8c-0.5,0.8-1.2,1.5-2,2c-0.9,0.5-1.9,0.8-3.2,0.8
	c-1.3,0-2.3-0.2-3.2-0.7c-0.9-0.5-1.5-1.1-2-2c-0.5-0.8-0.9-1.8-1.1-2.8c-0.2-1.1-0.3-2.1-0.3-3.2V27.3h-2.8v11.5
	c0,1.4,0.2,2.9,0.5,4.2c0.3,1.4,0.9,2.6,1.6,3.7c0.7,1.1,1.7,1.9,2.9,2.6c1.2,0.6,2.7,0.9,4.5,0.9c1.7,0,3.2-0.3,4.4-0.9
	c1.2-0.6,2.2-1.4,2.9-2.5c0.8-1,1.3-2.3,1.6-3.6c0.3-1.4,0.5-2.8,0.5-4.4V27.3h-2.8V38.7z"/>
<path class="st0" d="M167.6,39.9c0.7-0.7,1.2-1.5,1.6-2.4c0.4-0.9,0.6-1.9,0.6-3c0-0.9-0.2-1.8-0.5-2.6c-0.3-0.9-0.8-1.6-1.4-2.3
	c-0.6-0.7-1.3-1.2-2.1-1.7c-0.8-0.4-1.7-0.6-2.7-0.6h-9.5v22.7h2.8v-8.1h5.9l5.1,8.1h3.2l-5.4-8.7C166.1,41,166.9,40.5,167.6,39.9z
	 M163.1,39.2h-6.7v-9.4h6.6c0.7,0,1.4,0.2,2,0.6c0.6,0.4,1.1,1,1.5,1.7c0.4,0.7,0.6,1.5,0.6,2.3c0,0.8-0.2,1.6-0.5,2.3
	c-0.3,0.7-0.8,1.3-1.3,1.7C164.6,39,163.9,39.2,163.1,39.2z"/>
<path class="st0" d="M180.9,27.3l-9.1,22.7h3l2.5-6.6h9.6l2.5,6.6h3l-9.1-22.7H180.9z M178.2,41.1l4-10.5l3.9,10.5H178.2z"/>
<path class="st0" d="M208.2,27.3l-9.1,22.7h3l2.5-6.6h9.6l2.5,6.6h3l-9.1-22.7H208.2z M205.5,41.1l4-10.5l3.9,10.5H205.5z"/>
<path class="st0" d="M232.8,40.8h4.8v3.1c-0.9,1.1-1.9,2-2.9,2.6c-1.2,0.7-2.4,1-3.6,1c-1.1,0-2.1-0.2-3-0.7
	c-0.9-0.5-1.8-1.1-2.5-1.9c-0.7-0.8-1.3-1.8-1.6-2.8c-0.4-1.1-0.6-2.2-0.6-3.4c0-1.1,0.2-2.3,0.5-3.3c0.3-1.1,0.8-2,1.5-2.9
	c0.7-0.8,1.4-1.5,2.4-2c0.9-0.5,1.9-0.7,3.1-0.7c1.4,0,2.6,0.3,3.7,1c1.1,0.6,2,1.6,2.7,2.9l2.2-1.5c-0.7-1.5-1.8-2.7-3.2-3.6
	c-1.4-0.9-3.2-1.4-5.3-1.4c-1.5,0-2.9,0.3-4.1,0.9c-1.3,0.6-2.4,1.4-3.3,2.5c-0.9,1.1-1.7,2.3-2.2,3.7c-0.5,1.4-0.8,2.8-0.8,4.4
	c0,1.5,0.3,2.9,0.8,4.3c0.5,1.4,1.3,2.6,2.2,3.7c0.9,1.1,2,2,3.3,2.6c1.3,0.7,2.6,1,4.1,1c2.6,0,4.8-1.1,6.8-3.2v3.1h2.4V38.6h-7.2
	V40.8z"/>
</svg>
