<svg width="92" height="66" viewBox="0 0 92 66" fill="none" xmlns="http://www.w3.org/2000/svg">
<rect width="91.978" height="66" rx="5" fill="#F1F1F1"/>
<path d="M30.3148 13.5418C30.1134 13.5418 29.9203 13.6215 29.7779 13.7635C29.6355 13.9054 29.5556 14.098 29.5556 14.2987V43.2146C29.5556 43.4871 29.7013 43.7354 29.9352 43.8717L44.6921 52.3557C44.805 52.4207 44.9327 52.4557 45.063 52.4573C45.1933 52.4589 45.3218 52.427 45.4362 52.3647L61.0496 43.8353C61.1695 43.77 61.2694 43.6736 61.3389 43.5563C61.4083 43.4391 61.4448 43.3054 61.4444 43.1692V14.2987C61.4444 14.098 61.3645 13.9054 61.2221 13.7635C61.0797 13.6215 60.8866 13.5418 60.6852 13.5418H30.3148ZM25 14.2987C25 11.3738 27.381 9 30.3148 9H60.6852C63.619 9 66 11.3738 66 14.2987V43.1722C65.9996 44.122 65.7432 45.0543 65.2575 45.8714C64.7719 46.6885 64.0748 47.3605 63.2393 47.8169L47.6259 56.3464C46.8257 56.7842 45.9258 57.0093 45.013 56.9997C44.1002 56.9902 43.2052 56.7464 42.4144 56.2919L27.6604 47.8048C26.8517 47.34 26.1801 46.6711 25.713 45.8653C25.246 45.0595 25.0001 44.1453 25 43.2146V14.2987ZM36.3889 21.8683C36.3889 21.2661 36.6289 20.6884 37.056 20.2626C37.4832 19.8367 38.0626 19.5974 38.6667 19.5974H52.6826C53.2867 19.5974 53.8661 19.8367 54.2932 20.2626C54.7204 20.6884 54.9604 21.2661 54.9604 21.8683C54.9604 22.4706 54.7204 23.0482 54.2932 23.4741C53.8661 23.9 53.2867 24.1392 52.6826 24.1392H40.9444V29.3229H52.6826C53.2867 29.3229 53.8661 29.5621 54.2932 29.988C54.7204 30.4139 54.9604 30.9915 54.9604 31.5938V40.326C54.9606 40.7477 54.8432 41.1611 54.6211 41.5199C54.399 41.8787 54.0811 42.1688 53.703 42.3577L46.6936 45.8519C46.3776 46.0091 46.0293 46.091 45.6761 46.091C45.323 46.091 44.9747 46.0091 44.6587 45.8519L37.6493 42.3577C37.2711 42.1695 36.9529 41.88 36.7303 41.5218C36.5077 41.1635 36.3895 40.7505 36.3889 40.3291V38.579C36.3889 37.9767 36.6289 37.3991 37.056 36.9732C37.4832 36.5474 38.0626 36.3081 38.6667 36.3081C39.2708 36.3081 39.8501 36.5474 40.2773 36.9732C40.7045 37.3991 40.9444 37.9767 40.9444 38.579V38.9242L45.6761 41.2828L50.4048 38.9211V33.8646H38.6667C38.0626 33.8646 37.4832 33.6254 37.056 33.1995C36.6289 32.7736 36.3889 32.196 36.3889 31.5938V21.8683Z" fill="#111111"/>
</svg>
