<svg width="93" height="66" viewBox="0 0 93 66" fill="none" xmlns="http://www.w3.org/2000/svg">
<rect x="0.857147" width="91.978" height="66" rx="5" fill="#F1F1F1"/>
<g clip-path="url(#clip0_4_188)">
<path d="M39.02 36.2313L37.3322 42.4734C37.2986 42.6531 37.2316 42.6844 37.024 42.6844H33.8974C33.6818 42.6844 33.6482 42.6187 33.6818 42.3828L39.7274 21.6641C39.836 21.2891 39.9015 20.9562 39.935 19.9219C39.935 19.7828 40.0101 19.7188 40.1186 19.7188H44.577C44.7191 19.7188 44.7926 19.7516 44.8261 19.9219L51.6047 42.4156C51.6462 42.5859 51.6047 42.6844 51.4307 42.6844H47.9208C47.7372 42.6844 47.6382 42.6438 47.6046 42.5047L45.8417 36.2297H39.0136L39.02 36.2313ZM44.9587 32.8453C44.3599 30.5422 42.9546 25.4969 42.4309 23.0547H42.3894C41.9406 25.4875 40.8085 29.6141 39.9366 32.8453H44.9587ZM54.5397 21.2656C54.5397 19.9234 55.4882 19.1328 56.7194 19.1328C58.0176 19.1328 58.8991 19.9953 58.8991 21.2656C58.8991 22.6406 57.9841 23.3984 56.6779 23.3984C55.4052 23.3984 54.5317 22.6422 54.5317 21.2656H54.5397ZM54.7808 26.0016C54.7808 25.8391 54.8479 25.7734 55.022 25.7734H58.3657C58.5574 25.7734 58.6228 25.8391 58.6228 26.0172V42.4641C58.6228 42.6344 58.5893 42.7 58.3737 42.7H55.0794C54.8639 42.7 54.7968 42.6016 54.7968 42.4312V26L54.7808 26.0016Z" fill="#111111"/>
<rect x="22.2967" y="9" width="49.0989" height="47" rx="7" stroke="#111111" stroke-width="2"/>
</g>
<defs>
<clipPath id="clip0_4_188">
<rect width="51.0989" height="50" fill="white" transform="translate(21.2967 8)"/>
</clipPath>
</defs>
</svg>
