<svg width="25" height="24" viewBox="0 0 25 24" fill="none" xmlns="http://www.w3.org/2000/svg">
<g clip-path="url(#clip0_142_950)">
<path d="M12.333 2.16094C15.5393 2.16094 15.9189 2.175 17.1799 2.23125C18.3518 2.28281 18.9846 2.47969 19.4064 2.64375C19.9643 2.85938 20.3674 3.12188 20.7846 3.53906C21.2064 3.96094 21.4643 4.35938 21.6799 4.91719C21.8439 5.33906 22.0408 5.97656 22.0924 7.14375C22.1486 8.40937 22.1627 8.78906 22.1627 11.9906C22.1627 15.1969 22.1486 15.5766 22.0924 16.8375C22.0408 18.0094 21.8439 18.6422 21.6799 19.0641C21.4643 19.6219 21.2018 20.025 20.7846 20.4422C20.3627 20.8641 19.9643 21.1219 19.4064 21.3375C18.9846 21.5016 18.3471 21.6984 17.1799 21.75C15.9143 21.8062 15.5346 21.8203 12.333 21.8203C9.12676 21.8203 8.74707 21.8062 7.48613 21.75C6.31426 21.6984 5.68145 21.5016 5.25957 21.3375C4.70176 21.1219 4.29863 20.8594 3.88145 20.4422C3.45957 20.0203 3.20176 19.6219 2.98613 19.0641C2.82207 18.6422 2.6252 18.0047 2.57363 16.8375C2.51738 15.5719 2.50332 15.1922 2.50332 11.9906C2.50332 8.78438 2.51738 8.40469 2.57363 7.14375C2.6252 5.97187 2.82207 5.33906 2.98613 4.91719C3.20176 4.35938 3.46426 3.95625 3.88145 3.53906C4.30332 3.11719 4.70176 2.85938 5.25957 2.64375C5.68145 2.47969 6.31895 2.28281 7.48613 2.23125C8.74707 2.175 9.12676 2.16094 12.333 2.16094ZM12.333 0C9.0752 0 8.66738 0.0140625 7.3877 0.0703125C6.1127 0.126563 5.23613 0.332812 4.47676 0.628125C3.68457 0.9375 3.01426 1.34531 2.34863 2.01562C1.67832 2.68125 1.27051 3.35156 0.961133 4.13906C0.66582 4.90313 0.45957 5.775 0.40332 7.05C0.34707 8.33437 0.333008 8.74219 0.333008 12C0.333008 15.2578 0.34707 15.6656 0.40332 16.9453C0.45957 18.2203 0.66582 19.0969 0.961133 19.8563C1.27051 20.6484 1.67832 21.3188 2.34863 21.9844C3.01426 22.65 3.68457 23.0625 4.47207 23.3672C5.23613 23.6625 6.10801 23.8687 7.38301 23.925C8.6627 23.9812 9.07051 23.9953 12.3283 23.9953C15.5861 23.9953 15.9939 23.9812 17.2736 23.925C18.5486 23.8687 19.4252 23.6625 20.1846 23.3672C20.9721 23.0625 21.6424 22.65 22.308 21.9844C22.9736 21.3188 23.3861 20.6484 23.6908 19.8609C23.9861 19.0969 24.1924 18.225 24.2486 16.95C24.3049 15.6703 24.3189 15.2625 24.3189 12.0047C24.3189 8.74688 24.3049 8.33906 24.2486 7.05938C24.1924 5.78438 23.9861 4.90781 23.6908 4.14844C23.3955 3.35156 22.9877 2.68125 22.3174 2.01562C21.6518 1.35 20.9814 0.9375 20.1939 0.632812C19.4299 0.3375 18.558 0.13125 17.283 0.075C15.9986 0.0140625 15.5908 0 12.333 0Z" fill="#A3A3A3"/>
<path d="M12.333 5.83594C8.92988 5.83594 6.16895 8.59688 6.16895 12C6.16895 15.4031 8.92988 18.1641 12.333 18.1641C15.7361 18.1641 18.4971 15.4031 18.4971 12C18.4971 8.59688 15.7361 5.83594 12.333 5.83594ZM12.333 15.9984C10.1252 15.9984 8.33457 14.2078 8.33457 12C8.33457 9.79219 10.1252 8.00156 12.333 8.00156C14.5408 8.00156 16.3314 9.79219 16.3314 12C16.3314 14.2078 14.5408 15.9984 12.333 15.9984Z" fill="#A3A3A3"/>
<path d="M20.1799 5.59214C20.1799 6.38902 19.533 7.0312 18.7408 7.0312C17.9439 7.0312 17.3018 6.38433 17.3018 5.59214C17.3018 4.79526 17.9486 4.15308 18.7408 4.15308C19.533 4.15308 20.1799 4.79995 20.1799 5.59214Z" fill="#A3A3A3"/>
</g>
<defs>
<clipPath id="clip0_142_950">
<rect width="24" height="24" fill="white" transform="translate(0.333008)"/>
</clipPath>
</defs>
</svg>