<svg width="92" height="66" viewBox="0 0 92 66" fill="none" xmlns="http://www.w3.org/2000/svg">
<rect width="91.978" height="66" rx="5" fill="#F1F1F1"/>
<rect x="21.4505" y="9" width="49.0989" height="47" rx="7" stroke="#111111" stroke-width="2"/>
<path d="M55.591 45.6855C55.9787 46.4591 56.5804 47.1093 57.3268 47.5615C58.0732 48.0137 58.9341 48.2494 59.8106 48.2417C61.583 48.2417 62.7154 47.3695 62.7154 46.1652C62.7154 44.7223 61.5517 44.2106 59.6019 43.3704L58.532 42.9189C55.446 41.6249 53.3949 40.0036 53.3949 36.5765C53.3949 33.4187 55.8397 31.0163 59.6594 31.0163C60.8991 30.9278 62.1378 31.2009 63.2207 31.8015C64.3035 32.402 65.1825 33.3035 65.7476 34.393L62.4166 36.4977C62.1985 35.9578 61.8187 35.496 61.3275 35.1737C60.8363 34.8514 60.2571 34.6837 59.6669 34.6931C59.4096 34.6677 59.1497 34.6952 58.9039 34.7741C58.658 34.853 58.4315 34.9814 58.2389 35.1512C58.0463 35.3209 57.8917 35.5284 57.7851 35.7602C57.6784 35.9921 57.6221 36.2432 57.6195 36.4977C57.6195 37.7611 58.4145 38.2716 60.2443 39.0539L61.3142 39.5041C64.9489 41.0381 67 42.6016 67 46.1173C67 49.9072 63.9753 51.9837 59.9118 51.9837C58.3291 52.0828 56.751 51.729 55.3679 50.965C53.9849 50.2011 52.856 49.0596 52.1175 47.6783L55.591 45.6855ZM40.4822 46.0545C41.1547 47.228 41.7659 48.2195 43.232 48.2195C44.6369 48.2195 45.5243 47.6783 45.5243 45.5748V31.2623H49.8014V45.6338C49.8014 49.9921 47.2041 51.9763 43.4145 51.9763C42.0758 52.0476 40.7466 51.7184 39.6017 51.0321C38.4567 50.3457 37.5497 49.3343 37 48.131L40.4822 46.0545Z" fill="#111111"/>
</svg>
