<?xml version="1.0" encoding="utf-8"?>
<!-- Generator: Adobe Illustrator 23.0.5, SVG Export Plug-In . SVG Version: 6.00 Build 0)  -->
<svg version="1.1" id="Calque_1" xmlns="http://www.w3.org/2000/svg" xmlns:xlink="http://www.w3.org/1999/xlink" x="0px" y="0px"
	 viewBox="0 0 200 290" style="enable-background:new 0 0 200 290;" xml:space="preserve">
<style type="text/css">
	.st0{fill:#777777;}
	.st1{fill-rule:evenodd;clip-rule:evenodd;fill:#777777;}
</style>
<path class="st0" d="M1,21l38,22l38-22L39,0L1,21z"/>
<path class="st0" d="M124,45l37,21l38-21l-38-22L124,45z"/>
<path class="st0" d="M0,164l78,45v-43l-41-24V47L0,25V164z"/>
<path class="st0" d="M163,70v44l37-22l-0.1-43L163,70z"/>
<path class="st0" d="M82,166v43l77-45v-43L82,166z"/>
<path class="st0" d="M41,47v90l37-22V25L41,47z"/>
<path class="st0" d="M122,92l37,22V70l-37-21V92z"/>
<path class="st0" d="M42.5,140.5L80,162l77-44.5L120,95L42.5,140.5z"/>
<path class="st1" d="M7.9,217v40.2h14.8v6.9H0V217H7.9z M50.3,237v-4.2h7.4v31.4h-7.4V260c-1,1.6-2.4,2.8-4.3,3.7
	c-1.8,0.9-3.7,1.3-5.6,1.3c-2.4,0-4.6-0.4-6.6-1.3c-2-0.8-3.7-2.1-5.2-3.6c-1.4-1.5-2.6-3.3-3.3-5.3c-0.8-2-1.2-4.2-1.2-6.3
	c0-2.2,0.4-4.3,1.2-6.3c0.8-2,1.9-3.8,3.3-5.3c1.5-1.5,3.2-2.8,5.2-3.6c2-0.9,4.2-1.3,6.6-1.3c1.9,0,3.7,0.4,5.6,1.3
	C47.9,234.2,49.3,235.4,50.3,237L50.3,237z M49.7,252.3c0.5-1.2,0.7-2.5,0.7-3.8s-0.2-2.6-0.7-3.8c-0.4-1.2-1.1-2.2-1.9-3.2
	c-0.8-0.9-1.8-1.6-3-2.2c-1.2-0.5-2.4-0.8-3.9-0.8c-1.4,0-2.7,0.3-3.8,0.8s-2.1,1.3-2.9,2.2c-0.8,0.9-1.5,2-1.9,3.2
	c-0.4,1.2-0.7,2.5-0.7,3.8s0.2,2.6,0.6,3.8c0.4,1.2,1.1,2.3,1.9,3.2c0.8,0.9,1.8,1.6,2.9,2.2c1.1,0.5,2.4,0.8,3.8,0.8
	s2.7-0.3,3.9-0.8c1.1-0.5,2.1-1.2,3-2.2C48.6,254.6,49.2,253.5,49.7,252.3L49.7,252.3z M63.7,264.2v-31.4h20.2v7.2H71.1v24.2H63.7z
	 M110.9,237v-4.2h7.4v31.4h-7.4V260c-1,1.6-2.4,2.8-4.3,3.7c-1.8,0.9-3.7,1.3-5.6,1.3c-2.4,0-4.6-0.4-6.6-1.3
	c-2-0.8-3.7-2.1-5.2-3.6c-1.4-1.5-2.6-3.3-3.3-5.3c-0.8-2-1.2-4.2-1.2-6.3c0-2.2,0.4-4.3,1.2-6.3c0.8-2,1.9-3.8,3.3-5.3
	c1.5-1.5,3.2-2.8,5.2-3.6c2-0.9,4.2-1.3,6.6-1.3c1.9,0,3.7,0.4,5.6,1.3C108.4,234.2,109.9,235.4,110.9,237L110.9,237z M110.2,252.3
	c0.5-1.2,0.7-2.5,0.7-3.8s-0.2-2.6-0.7-3.8c-0.4-1.2-1.1-2.2-1.9-3.2c-0.8-0.9-1.8-1.6-3-2.2c-1.2-0.5-2.4-0.8-3.9-0.8
	c-1.4,0-2.7,0.3-3.8,0.8c-1.1,0.5-2.1,1.3-2.9,2.2s-1.5,2-1.9,3.2s-0.7,2.5-0.6,3.8c0,1.3,0.2,2.6,0.6,3.8s1.1,2.3,1.9,3.2
	c0.8,0.9,1.8,1.6,2.9,2.2c1.1,0.5,2.4,0.8,3.8,0.8s2.7-0.3,3.9-0.8c1.1-0.5,2.1-1.2,3-2.2C109.1,254.6,109.8,253.5,110.2,252.3z
	 M148.2,232.8h7.5l-12.2,31.4h-9.4l-12.2-31.4h7.5l9.4,24.1L148.2,232.8z M172,232c10.1,0,17.1,8.9,15.8,19.2H163
	c0,2.7,2.8,7.9,9.4,7.9c5.7,0,9.5-4.9,9.5-4.9l5,3.8c-4.5,4.7-8.2,6.9-13.9,6.9c-10.3,0-17.3-6.4-17.3-16.5
	C155.6,239.4,162.8,232,172,232L172,232z M163,245.8h17.8c-0.1-0.6-1-7.9-9-7.9C163.9,237.8,163.1,245.1,163,245.8z M192.6,264.2
	V217h7.4v47.2H192.6z"/>
<path class="st0" d="M38.8,289c-1.2-0.7-2.2-1.6-2.8-2.8c-0.7-1.2-1-2.6-1-4.2s0.3-3,1-4.2s1.6-2.1,2.8-2.8c1.2-0.7,2.6-1,4.3-1
	c1,0,2,0.2,3,0.5s1.7,0.7,2.3,1.2l-1.3,2.9c-1.3-0.9-2.6-1.4-4-1.4c-1.3,0-2.2,0.4-2.9,1.2c-0.7,0.8-1,2-1,3.5c0,1.6,0.3,2.8,1,3.6
	c0.7,0.8,1.7,1.2,2.9,1.2c1.4,0,2.7-0.5,4-1.4l1.3,2.9c-0.6,0.5-1.4,0.9-2.3,1.2c-1,0.3-2,0.5-3,0.5C41.4,290,40,289.7,38.8,289
	L38.8,289z M62.4,289.8l-1.4-3.2h-7l-1.4,3.2h-4.2l7.4-15.6h3.3l7.4,15.6H62.4z M55.4,283.5h4.3l-2.1-4.9L55.4,283.5z M80.1,274.2
	h3.2v15.6h-3.6v-7.1l-3,7.1h-2.6l-3-7.1v7.1h-3.6v-15.6h3.3l4.7,10.7L80.1,274.2z M86.3,289.8v-15.6h11.2v3.2h-7.2v2.9H97v3.2h-6.7
	v3.2h7.2v3.2H86.3V289.8z M113.3,289.8h-4.4l-2-5.2c-0.2-0.6-0.8-0.9-1.7-0.9h-1.5v6.1h-4.1v-15.6h7.3c1.9,0,3.3,0.4,4.3,1.2
	c1,0.8,1.4,2,1.4,3.5c0,1.1-0.3,2-0.9,2.7c-0.6,0.8-1.4,1.3-2.4,1.6c0.4,0.1,0.8,0.3,1.2,0.6c0.4,0.3,0.6,0.8,0.8,1.3L113.3,289.8
	L113.3,289.8z M108.2,280.3c0.4-0.3,0.6-0.7,0.6-1.3c0-0.6-0.2-1-0.6-1.3s-1-0.4-1.9-0.4h-2.6v3.4h2.6
	C107.2,280.7,107.8,280.5,108.2,280.3L108.2,280.3z M118.6,289c-1.2-0.6-2.1-1.6-2.8-2.8c-0.6-1.2-1-2.6-1-4.3c0-1.6,0.3-3,1-4.2
	c0.6-1.2,1.6-2.1,2.8-2.8s2.6-1,4.2-1s3,0.3,4.2,1c1.2,0.6,2.1,1.6,2.7,2.8c0.6,1.2,1,2.6,1,4.2s-0.3,3-1,4.3
	c-0.6,1.2-1.5,2.1-2.7,2.8c-1.2,0.7-2.6,1-4.2,1S119.8,289.7,118.6,289z M125.6,285.6c0.7-0.8,1-2,1-3.6s-0.3-2.8-1-3.6
	c-0.7-0.8-1.6-1.2-2.8-1.2c-1.2,0-2.1,0.4-2.8,1.2c-0.7,0.8-1,2-1,3.6s0.3,2.8,1,3.6c0.7,0.8,1.6,1.2,2.8,1.2
	C124,286.9,124.9,286.4,125.6,285.6z M136.4,289c-1.2-0.6-2.1-1.6-2.8-2.8c-0.6-1.2-1-2.6-1-4.3c0-1.6,0.3-3,1-4.2
	c0.6-1.2,1.6-2.1,2.8-2.8c1.2-0.6,2.6-1,4.2-1s3,0.3,4.2,1s2.1,1.6,2.7,2.8c0.6,1.2,1,2.6,1,4.2s-0.3,3-1,4.3
	c-0.6,1.2-1.5,2.1-2.7,2.8c-1.2,0.7-2.6,1-4.2,1S137.6,289.7,136.4,289z M143.4,285.6c0.7-0.8,1-2,1-3.6s-0.3-2.8-1-3.6
	c-0.7-0.8-1.6-1.2-2.8-1.2s-2.1,0.4-2.8,1.2c-0.7,0.8-1,2-1,3.6s0.3,2.8,1,3.6c0.7,0.8,1.6,1.2,2.8,1.2
	C141.8,286.9,142.7,286.4,143.4,285.6z M161.1,274.2h3.9v15.6h-3.1l-7.1-8.9v8.9h-3.9v-15.6h3l7.1,8.8v-8.8H161.1z"/>
</svg>
