<?xml version="1.0" encoding="utf-8"?>
<!-- Generator: Adobe Illustrator 23.0.5, SVG Export Plug-In . SVG Version: 6.00 Build 0)  -->
<svg version="1.1" id="Calque_1" xmlns="http://www.w3.org/2000/svg" xmlns:xlink="http://www.w3.org/1999/xlink" x="0px" y="0px"
	 viewBox="0 0 567 145" style="enable-background:new 0 0 567 145;" xml:space="preserve">
<style type="text/css">
	.st0{fill:#777777;}
	.st1{fill:url(#SVGID_1_);}
	.st2{fill:url(#SVGID_2_);}
	.st3{fill:url(#SVGID_3_);}
	.st4{fill:url(#SVGID_4_);}
</style>
<path class="st0" d="M153.4,96.7l3.1-40.4h3.6l-3,37.3H178l-0.2,3.1L153.4,96.7L153.4,96.7z M208.6,68.3l-2.2,28.4H203l0.4-4.9
	c-0.9,1.7-2.2,3-4,3.9s-3.7,1.4-5.7,1.4c-2.4,0-4.5-0.6-6.4-1.7c-1.8-1.1-3.2-2.7-4.2-4.8c-1-2.1-1.5-4.5-1.5-7.3
	c0-3.1,0.5-5.9,1.6-8.3s2.7-4.2,4.7-5.5s4.3-2,7-2c2.3,0,4.4,0.5,6.1,1.5c1.7,1,3,2.5,3.8,4.3l0.4-5.2h3.4L208.6,68.3z M201.6,90.7
	c1.8-2.3,2.6-5.5,2.6-9.5c0-3.4-0.8-6.1-2.4-7.9c-1.6-1.8-3.9-2.7-6.8-2.7c-3.1,0-5.5,1.1-7.2,3.4s-2.6,5.5-2.6,9.5
	c0,3.4,0.8,6,2.4,7.8c1.6,1.9,3.9,2.8,6.8,2.8C197.4,94.1,199.8,93,201.6,90.7z M231.6,67.9l-0.3,3.1c-0.7-0.2-1.6-0.2-2.6-0.2
	c-2.9,0-5.2,0.9-6.7,2.8c-1.6,1.9-2.4,4-2.6,6.6L218,96.9h-3.5l1.6-20.5c0.2-2.5,0.2-4.4,0.2-5.7c0-1,0-1.7-0.1-2.2h3.2l0.1,4.7
	c0.9-1.7,2.2-3,3.9-3.9c1.7-0.9,3.5-1.4,5.5-1.4C230.2,67.6,231,67.7,231.6,67.9z M259.2,68.3l-2.3,28.4h-3.4l0.4-4.9
	c-0.9,1.7-2.2,3-4,3.9s-3.7,1.4-5.7,1.4c-2.4,0-4.5-0.6-6.4-1.7c-1.8-1.1-3.2-2.7-4.2-4.8c-1-2.1-1.5-4.5-1.5-7.3
	c0-3.1,0.5-5.9,1.6-8.3s2.7-4.2,4.7-5.5s4.3-2,7-2c2.3,0,4.4,0.5,6.1,1.5s3,2.5,3.8,4.3l0.4-5.2h3.5V68.3z M252.1,90.7
	c1.8-2.3,2.6-5.5,2.6-9.5c0-3.4-0.8-6.1-2.4-7.9s-3.9-2.7-6.8-2.7c-3.1,0-5.5,1.1-7.2,3.4s-2.6,5.5-2.6,9.5c0,3.4,0.8,6,2.4,7.8
	c1.6,1.9,3.9,2.8,6.8,2.8C248,94.1,250.4,93,252.1,90.7z M288,68.3h3.6l-14.4,28.4h-3.6l-9.9-28.4h3.5l8.4,25L288,68.3z M296.6,82.1
	c0,0.3-0.1,0.8-0.1,1.5c0,3.3,0.8,5.9,2.5,7.7c1.6,1.9,4,2.8,7.1,2.8c1.7,0,3.4-0.3,5.1-0.9s3.2-1.4,4.5-2.6l1.1,2.6
	c-1.1,1.1-2.7,2.1-4.7,2.8c-2,0.7-4.1,1-6.1,1c-4.1,0-7.3-1.2-9.6-3.7s-3.5-5.8-3.5-10c0-3.1,0.6-5.9,1.7-8.3s2.8-4.2,4.9-5.6
	c2.1-1.3,4.6-2,7.4-2c3.6,0,6.4,1,8.4,3.1c2.1,2,3.1,5,3.1,8.8c0,0.8-0.1,1.7-0.2,2.6h-21.6L296.6,82.1z M300.4,72.8
	c-1.7,1.6-2.9,3.8-3.5,6.7h18.4c0.1-2.9-0.6-5.1-2.1-6.7s-3.5-2.4-6-2.4C304.3,70.4,302.1,71.2,300.4,72.8z M323.4,96.7l3.4-41.7
	h3.5l-3.4,41.7H323.4z"/>
<path class="st0" d="M346.8,92.2l2.4-4.3c2,1.6,4.1,2.7,6.3,3.5c2.1,0.7,4.5,1.1,7.1,1.1c3.1,0,5.4-0.5,7-1.6s2.4-2.6,2.4-4.7
	c0-1.2-0.4-2.3-1.2-3.1c-0.8-0.8-1.8-1.5-3-1.9c-1.2-0.5-2.9-1-5.1-1.7c-2.8-0.8-5.1-1.6-6.9-2.4s-3.3-1.9-4.5-3.4
	c-1.3-1.5-1.9-3.5-1.9-5.9c0-2.3,0.6-4.4,1.9-6.2s3.1-3.1,5.4-4.1s5.1-1.4,8.2-1.4c2.8,0,5.5,0.4,8,1.3s4.6,2.1,6.3,3.7l-2.4,4.3
	c-1.7-1.5-3.6-2.6-5.7-3.4c-2-0.8-4.1-1.1-6.3-1.1c-3,0-5.4,0.6-7,1.8c-1.7,1.2-2.5,2.8-2.5,4.8c0,1.4,0.4,2.5,1.3,3.4
	s2,1.6,3.2,2.1c1.3,0.5,3.1,1.1,5.4,1.8c2.8,0.8,5,1.6,6.7,2.3c1.7,0.7,3.2,1.8,4.3,3.2c1.2,1.4,1.8,3.3,1.8,5.5
	c0,3.6-1.4,6.4-4.2,8.5c-2.8,2.1-6.6,3.1-11.5,3.1C356.2,97.2,351,95.5,346.8,92.2L346.8,92.2z M407.3,70c1.7,1.7,2.5,4.2,2.5,7.5
	c0,0.7,0,1.2-0.1,1.6l-1.4,17.6h-5.7l1.4-17.3c0-0.3,0.1-0.7,0.1-1.2c0-4.1-2-6.1-5.9-6.1c-2.5,0-4.4,0.7-5.9,2.2
	c-1.4,1.5-2.3,3.5-2.4,6.1l-1.3,16.3h-5.7l3.3-41.7h5.7l-1.4,17c1-1.4,2.3-2.6,3.9-3.3c1.6-0.8,3.5-1.2,5.5-1.2
	C403.2,67.5,405.6,68.3,407.3,70z M421.3,95.4c-2.1-1.1-3.7-2.8-4.8-4.8c-1.1-2.1-1.7-4.5-1.7-7.3c0-3.2,0.6-6,1.8-8.3
	c1.2-2.4,2.9-4.2,5-5.5c2.2-1.3,4.7-1.9,7.5-1.9s5.2,0.6,7.2,1.7c2.1,1.2,3.7,2.8,4.8,4.8c1.1,2.1,1.7,4.5,1.7,7.3
	c0,3.2-0.6,6-1.8,8.3c-1.2,2.4-2.9,4.2-5,5.5s-4.6,1.9-7.5,1.9C425.8,97.1,423.4,96.6,421.3,95.4z M434.9,89.5
	c1.5-2.1,2.2-4.9,2.2-8.3c0-2.9-0.7-5.2-2-6.8s-3.3-2.4-5.9-2.4c-2.7,0-4.8,1-6.3,3.1s-2.2,4.8-2.2,8.3c0,3,0.7,5.3,2,6.9
	s3.3,2.4,6,2.4S433.4,91.6,434.9,89.5L434.9,89.5z M470.5,69.2c1.8,1.1,3.3,2.7,4.3,4.8c1,2.1,1.5,4.5,1.5,7.3
	c0,3.1-0.6,5.9-1.7,8.3c-1.1,2.4-2.7,4.3-4.8,5.6c-2,1.3-4.4,2-7,2c-2.2,0-4.1-0.5-5.7-1.4s-2.9-2.2-3.8-3.9l-1.4,17.1h-5.7
	l2.6-32.8c0.2-1.5,0.2-3.3,0.2-5.4c0-1.2,0-2.1-0.1-2.7h5.3l0.1,4.7c0.9-1.7,2.2-3,3.9-3.9c1.7-0.9,3.6-1.4,5.7-1.4
	C466.5,67.5,468.7,68,470.5,69.2L470.5,69.2z M468.3,89.7c1.5-2,2.2-4.7,2.2-8.2c0-3-0.7-5.3-2.1-6.9s-3.4-2.5-5.9-2.5
	c-2.7,0-4.7,1-6.2,3s-2.2,4.7-2.2,8.2c0,3.1,0.7,5.4,2.1,7s3.4,2.4,5.9,2.4C464.7,92.7,466.8,91.7,468.3,89.7z M504,69.2
	c1.8,1.1,3.3,2.7,4.3,4.8c1,2.1,1.5,4.5,1.5,7.3c0,3.1-0.6,5.9-1.7,8.3c-1.1,2.4-2.7,4.3-4.8,5.6c-2,1.3-4.4,2-7,2
	c-2.2,0-4.1-0.5-5.7-1.4c-1.6-0.9-2.9-2.2-3.8-3.9l-1.4,17.1h-5.7l2.6-32.8c0.2-1.5,0.2-3.3,0.2-5.4c0-1.2,0-2.1-0.1-2.7h5.3
	l0.1,4.7c0.9-1.7,2.2-3,3.9-3.9s3.6-1.4,5.7-1.4C500,67.5,502.1,68,504,69.2L504,69.2z M501.8,89.7c1.5-2,2.2-4.7,2.2-8.2
	c0-3-0.7-5.3-2.1-6.9c-1.4-1.6-3.4-2.5-5.9-2.5c-2.7,0-4.7,1-6.2,3s-2.2,4.7-2.2,8.2c0,3.1,0.7,5.4,2.1,7c1.4,1.6,3.4,2.4,5.9,2.4
	C498.2,92.7,500.3,91.7,501.8,89.7z M519.4,82.6v0.7c0,3,0.7,5.3,2.2,6.9s3.6,2.4,6.4,2.4c3.4,0,6.5-1.1,9.1-3.2l1.5,4
	c-1.2,1.1-2.8,2-4.8,2.7c-2,0.6-4,1-6.1,1c-2.8,0-5.3-0.6-7.4-1.7c-2.1-1.1-3.7-2.8-4.9-4.8c-1.1-2.1-1.7-4.5-1.7-7.3
	c0-3.1,0.6-5.9,1.8-8.3s2.9-4.3,5-5.6c2.2-1.3,4.6-2,7.4-2c3.8,0,6.7,1.1,8.9,3.2s3.2,5.2,3.2,9.2c0,0.8-0.1,1.7-0.2,2.6h-20.4V82.6
	z M522.6,73.6c-1.4,1.3-2.4,3.1-2.9,5.6H535c0-2.4-0.6-4.2-1.8-5.5s-2.9-2-5.1-2C525.9,71.7,524,72.3,522.6,73.6z M563.4,67.9
	l-0.5,5.2c-1-0.4-2.1-0.6-3.3-0.6c-2.6,0-4.6,0.8-6.1,2.4c-1.4,1.6-2.2,3.6-2.4,6l-1.3,15.9h-5.7l1.6-20.5c0.2-2.6,0.2-4.5,0.2-5.8
	c0-1,0-1.8-0.1-2.3h5.3l0.1,4.5c0.9-1.6,2.2-2.9,3.8-3.8s3.5-1.4,5.4-1.4C561.6,67.5,562.5,67.6,563.4,67.9z"/>
<path class="st0" d="M10,35h100v110H10V35z"/>
<linearGradient id="SVGID_1_" gradientUnits="userSpaceOnUse" x1="80" y1="46" x2="120" y2="86" gradientTransform="matrix(1 0 0 -1 0 146)">
	<stop  offset="0" style="stop-color:#FFFFFF"/>
	<stop  offset="1" style="stop-color:#777777"/>
</linearGradient>
<path class="st1" d="M120,90l-40,10V70l40-10V90z"/>
<linearGradient id="SVGID_2_" gradientUnits="userSpaceOnUse" x1="0" y1="11" x2="40" y2="51" gradientTransform="matrix(1 0 0 -1 0 146)">
	<stop  offset="0" style="stop-color:#777777"/>
	<stop  offset="1" style="stop-color:#FFFFFF"/>
</linearGradient>
<path class="st2" d="M40,125L0,135v-30l40-10V125z"/>
<linearGradient id="SVGID_3_" gradientUnits="userSpaceOnUse" x1="25" y1="93.5" x2="95" y2="93.5" gradientTransform="matrix(1 0 0 -1 0 146)">
	<stop  offset="0" style="stop-color:#777777"/>
	<stop  offset="1" style="stop-color:#FFFFFF"/>
</linearGradient>
<path class="st3" d="M60,60c-13.8,0-25-11.2-25-25H25c0,19.3,15.7,35,35,35s35-15.7,35-35H85C85,48.8,73.8,60,60,60z"/>
<linearGradient id="SVGID_4_" gradientUnits="userSpaceOnUse" x1="25" y1="128.5" x2="95" y2="128.5" gradientTransform="matrix(1 0 0 -1 0 146)">
	<stop  offset="0" style="stop-color:#FFFFFF"/>
	<stop  offset="1" style="stop-color:#777777"/>
</linearGradient>
<path class="st4" d="M60,10c13.8,0,25,11.2,25,25h10C95,15.7,79.3,0,60,0S25,15.7,25,35h10C35,21.2,46.2,10,60,10z"/>
</svg>
