<svg width="25" height="24" viewBox="0 0 25 24" fill="none" xmlns="http://www.w3.org/2000/svg">
<g clip-path="url(#clip0_142_953)">
<path d="M22.8904 0H2.43887C1.45918 0 0.666992 0.773438 0.666992 1.72969V22.2656C0.666992 23.2219 1.45918 24 2.43887 24H22.8904C23.8701 24 24.667 23.2219 24.667 22.2703V1.72969C24.667 0.773438 23.8701 0 22.8904 0ZM7.7873 20.4516H4.2248V8.99531H7.7873V20.4516ZM6.00605 7.43438C4.8623 7.43438 3.93887 6.51094 3.93887 5.37187C3.93887 4.23281 4.8623 3.30937 6.00605 3.30937C7.14512 3.30937 8.06855 4.23281 8.06855 5.37187C8.06855 6.50625 7.14512 7.43438 6.00605 7.43438ZM21.1186 20.4516H17.5607V14.8828C17.5607 13.5562 17.5373 11.8453 15.7092 11.8453C13.8576 11.8453 13.5764 13.2937 13.5764 14.7891V20.4516H10.0232V8.99531H13.4357V10.5609H13.4826C13.9561 9.66094 15.1186 8.70938 16.8482 8.70938C20.4529 8.70938 21.1186 11.0813 21.1186 14.1656V20.4516Z" fill="#A3A3A3"/>
</g>
<defs>
<clipPath id="clip0_142_953">
<rect width="24" height="24" fill="white" transform="translate(0.666992)"/>
</clipPath>
</defs>
</svg>