<?xml version="1.0" encoding="utf-8"?>
<!-- Generator: Adobe Illustrator 23.0.5, SVG Export Plug-In . SVG Version: 6.00 Build 0)  -->
<svg version="1.1" id="Calque_1" xmlns="http://www.w3.org/2000/svg" xmlns:xlink="http://www.w3.org/1999/xlink" x="0px" y="0px"
	 viewBox="0 0 32 24" style="enable-background:new 0 0 32 24;" xml:space="preserve">
<style type="text/css">
	.st0{fill:#FFFFFF;}
	.st1{fill:#A6F200;}
</style>
<path class="st0" d="M16.9,4.5c-0.3-1.7-0.9-3-2.1-4.1C14.9,0.4,15,0.3,15,0.3c2.6,0,5.1-0.1,7.7,0.2c4.5,0.5,8,3.8,9,8.3
	c0.2,1.1,0.8,4.5-0.9,8.2c-1.6,3.5-4.4,5.3-5.4,5.9c-1.5,0.7-3.2,0.9-4.8,0.9c-2.3,0-4.6,0-6.8,0c-0.2,0-0.4,0.1-0.7,0.1
	c-1.2-0.8-1.7-2.1-1.1-3.6c0.7-1.9,1.7-3.7,2.6-5.5c1-1.9,2-3.7,2.5-5.7c0.2-0.8,0.3-1.7,0.4-2.6c0.4,1,0.4,2,0.3,3.1
	c-0.2,1.7-0.8,3.2-1.6,4.7c-0.8,1.4-1.6,2.8-2.4,4.2c-0.2,0.3-0.3,0.6-0.5,0.9c0.1,0,0.2,0.1,0.2,0.1c2.6,0,5.3,0.1,7.9-0.1
	c3.2-0.2,5.7-2.7,6.1-6c0.2-1.6,0.1-3.1-0.5-4.6c-1.1-2.7-3.1-4.1-6-4.4C19.8,4.4,18.4,4.5,16.9,4.5z"/>
<path class="st1" d="M10.9,0c1.9-0.2,3.6,1,4.4,2.9c0.6,1.5,0.6,3.1,0,4.6c-0.6,1.6-1.3,3.2-2.1,4.8c-0.9,1.9-1.9,3.9-2.8,5.8
	c-0.3,0.6-0.4,1.3-0.5,1.9c-0.3,1.7,0.3,2.9,1.8,3.6c0.1,0,0.1,0.1,0.2,0.1c-1.6,0.2-3.4-0.8-4.2-2.5C7,20,7,18.5,7.4,17
	c0.5-2.1,1.5-3.9,2.4-5.8c0.9-1.7,1.8-3.5,2.5-5.3c0.3-0.8,0.6-1.7,0.7-2.5c0.2-1.5-0.4-2.5-1.8-3.1C11.1,0.1,11,0.1,10.9,0z"/>
<rect x="-1.3" y="-2.9" class="st1" width="1.8" height="1.7"/>
<rect x="1.3" y="-2.9" class="st1" width="1.8" height="1.7"/>
</svg>
