<?xml version="1.0" encoding="utf-8"?>
<!-- Generator: Adobe Illustrator 23.0.5, SVG Export Plug-In . SVG Version: 6.00 Build 0)  -->
<svg version="1.1" id="Calque_1" xmlns="http://www.w3.org/2000/svg" xmlns:xlink="http://www.w3.org/1999/xlink" x="0px" y="0px"
	 viewBox="0 0 24 24" style="enable-background:new 0 0 24 24;" xml:space="preserve">
<style type="text/css">
	.st0{fill:#D9D9D9;}
	.st1{fill:#FFFFFF;}
</style>
<g>
	<path class="st0" d="M14,0h9.3v0.1c0,0-0.1,0-0.1,0c-1.7,0.1-3,1.5-2.9,3.2c0,4.2,0,8.5,0,12.8c0,2.5-1.1,4.8-3.1,6.3
		c-1.3,1-2.9,1.6-4.6,1.7c-0.1,0-0.2,0-0.3,0c0,0,0.1,0,0.1,0c0.9-0.1,1.8-0.5,2.4-1.2c1-1.1,1.6-2.4,1.9-3.8c0.2-1,0.3-2,0.3-3
		c0-4.2,0-8.5,0-12.8c0.1-1.7-1.2-3.1-2.9-3.2C14.1,0.1,14,0,14,0L14,0z"/>
	<path class="st0" d="M16.4,13.6L4.6,4.3v5.9H4.5V0c0.1,0,0.1,0.1,0.2,0.1c3.8,3,7.6,6.1,11.5,9.1c0.1,0.1,0.1,0.2,0.2,0.3
		c0,1.3,0,2.5,0,3.8C16.4,13.5,16.4,13.5,16.4,13.6z"/>
	<path class="st1" d="M4.6,11.3c0,0-0.7,3.1-3.9,3.9c0,0,3.4,0.7,3.9,3.9c0,0,0.5-3.3,3.7-3.9C8.3,15.2,5,14.4,4.6,11.3z"/>
</g>
</svg>
