<svg width="32" height="24" viewBox="0 0 32 24" fill="none" xmlns="http://www.w3.org/2000/svg">
<path d="M31.819 11.999C31.819 18.6264 26.4474 23.998 19.82 23.998H12V0H19.82C26.4474 0 31.819 5.37353 31.819 11.999Z" fill="url(#paint0_linear_121_124)"/>
<path d="M16.7282 20.7603C16.8362 21.8762 17.1862 22.9081 17.7221 23.814C17.7561 23.876 17.7941 23.936 17.8321 23.998H12V12.6649H23.3937C19.316 13.0609 16.3322 16.6846 16.7282 20.7603Z" fill="#6400E6"/>
<path d="M23.998 12.0019V12.0022C23.998 12.3475 23.7353 12.6339 23.3917 12.6684C19.5865 13.0502 16.3056 15.21 14.3908 18.3045C13.4597 19.8112 12.851 21.5411 12.666 23.3941C12.6317 23.7375 12.3451 24 11.9999 24C11.6546 24 11.3682 23.7373 11.3338 23.3938C10.7673 17.7357 6.2661 13.2346 0.606273 12.6682C0.26268 12.6338 0 12.3473 0 12.002C0 11.6567 0.262697 11.3701 0.606303 11.3358C6.26794 10.7696 10.7676 6.26993 11.3338 0.608287C11.3682 0.264681 11.6547 0.00198364 12 0.00198364C12.3453 0.00198364 12.6319 0.26467 12.6662 0.608268C13.2325 6.26815 17.732 10.7694 23.3918 11.3357C23.7353 11.3701 23.998 11.6566 23.998 12.0019Z" fill="url(#paint1_linear_121_124)"/>
<defs>
<linearGradient id="paint0_linear_121_124" x1="21.9095" y1="23.998" x2="21.9095" y2="0" gradientUnits="userSpaceOnUse">
<stop stop-color="#6400E6"/>
<stop offset="0.00798" stop-color="#6501E6"/>
<stop offset="0.21029" stop-color="#8A25EF"/>
<stop offset="0.41265" stop-color="#A741F6"/>
<stop offset="0.61287" stop-color="#BC55FB"/>
<stop offset="0.80988" stop-color="#C861FE"/>
<stop offset="1" stop-color="#CD66FF"/>
</linearGradient>
<linearGradient id="paint1_linear_121_124" x1="5.8613" y1="18.1397" x2="18.1378" y2="5.86328" gradientUnits="userSpaceOnUse">
<stop stop-color="#CD66FF"/>
<stop offset="1" stop-color="#FFB3FF"/>
</linearGradient>
</defs>
</svg>