<?xml version="1.0" encoding="utf-8"?>
<!-- Generator: Adobe Illustrator 23.0.5, SVG Export Plug-In . SVG Version: 6.00 Build 0)  -->
<svg version="1.1" id="Calque_1" xmlns="http://www.w3.org/2000/svg" xmlns:xlink="http://www.w3.org/1999/xlink" x="0px" y="0px"
	 viewBox="0 0 99 59" style="enable-background:new 0 0 99 59;" xml:space="preserve">
<style type="text/css">
	.st0{fill:#777777;}
</style>
<g>
	<g>
		<path class="st0" d="M2.8,47.8v1.3h2.1v1.2H2.8v1.4h2.4v1.2H1.2v-6.4h3.9v1.2H2.8z"/>
		<path class="st0" d="M14.1,48.3c0.4,0.4,0.6,0.9,0.6,1.6v3h-1.5v-2.8c0-0.3-0.1-0.6-0.3-0.8c-0.2-0.2-0.4-0.3-0.7-0.3
			c-0.3,0-0.5,0.1-0.7,0.3c-0.2,0.2-0.3,0.4-0.3,0.8v2.8H9.7v-2.8c0-0.3-0.1-0.6-0.3-0.8c-0.2-0.2-0.4-0.3-0.7-0.3
			c-0.3,0-0.5,0.1-0.7,0.3c-0.2,0.2-0.3,0.4-0.3,0.8v2.8H6.2v-5.1h1.6v0.6c0.2-0.2,0.4-0.4,0.6-0.5c0.3-0.1,0.5-0.2,0.9-0.2
			c0.4,0,0.7,0.1,1,0.2s0.5,0.4,0.7,0.7c0.2-0.3,0.4-0.5,0.7-0.7c0.3-0.2,0.6-0.3,1-0.3C13.3,47.8,13.8,48,14.1,48.3z"/>
		<path class="st0" d="M16.7,52.7c-0.4-0.2-0.7-0.5-0.9-0.9c-0.2-0.4-0.3-0.9-0.3-1.4c0-0.5,0.1-1,0.3-1.4c0.2-0.4,0.5-0.7,0.9-0.9
			c0.4-0.2,0.8-0.3,1.3-0.3s0.9,0.1,1.3,0.3c0.4,0.2,0.7,0.5,0.9,0.9c0.2,0.4,0.3,0.9,0.3,1.4c0,0.5-0.1,1-0.3,1.4
			c-0.2,0.4-0.6,0.7-1,0.9C19,52.9,18.6,53,18.1,53C17.6,53,17.1,52.9,16.7,52.7z M18.8,51.3c0.2-0.2,0.3-0.5,0.3-0.9
			c0-0.4-0.1-0.7-0.3-0.9c-0.2-0.2-0.5-0.3-0.7-0.3c-0.3,0-0.6,0.1-0.8,0.3c-0.2,0.2-0.3,0.5-0.3,0.9c0,0.4,0.1,0.7,0.3,0.9
			c0.2,0.2,0.4,0.3,0.7,0.3C18.4,51.6,18.6,51.5,18.8,51.3z"/>
		<path class="st0" d="M24.4,51.6v1.3h-0.8c-0.6,0-1-0.1-1.3-0.4c-0.3-0.3-0.5-0.7-0.5-1.3v-2h-0.6v-1.3h0.6v-1.2h1.6v1.2h1v1.3h-1
			v2c0,0.2,0,0.3,0.1,0.3c0.1,0.1,0.2,0.1,0.4,0.1L24.4,51.6L24.4,51.6z"/>
		<path class="st0" d="M25.4,47.1c-0.2-0.2-0.3-0.4-0.3-0.6c0-0.2,0.1-0.4,0.3-0.6c0.2-0.2,0.4-0.2,0.7-0.2c0.3,0,0.5,0.1,0.7,0.2
			c0.2,0.2,0.3,0.4,0.3,0.6c0,0.2-0.1,0.4-0.3,0.6c-0.2,0.2-0.4,0.2-0.7,0.2C25.8,47.3,25.5,47.2,25.4,47.1z M26.8,47.8v5.1h-1.6
			v-5.1H26.8z"/>
		<path class="st0" d="M28.9,52.7c-0.4-0.2-0.7-0.5-0.9-0.9c-0.2-0.4-0.3-0.9-0.3-1.4c0-0.5,0.1-1,0.3-1.4c0.2-0.4,0.5-0.7,0.9-0.9
			c0.4-0.2,0.8-0.3,1.3-0.3c0.5,0,0.9,0.1,1.3,0.3c0.4,0.2,0.7,0.5,0.9,0.9c0.2,0.4,0.3,0.9,0.3,1.4c0,0.5-0.1,1-0.3,1.4
			c-0.2,0.4-0.6,0.7-1,0.9c-0.4,0.2-0.9,0.3-1.3,0.3C29.7,53,29.3,52.9,28.9,52.7z M31,51.3c0.2-0.2,0.3-0.5,0.3-0.9
			c0-0.4-0.1-0.7-0.3-0.9c-0.2-0.2-0.5-0.3-0.7-0.3c-0.3,0-0.6,0.1-0.8,0.3c-0.2,0.2-0.3,0.5-0.3,0.9c0,0.4,0.1,0.7,0.3,0.9
			c0.2,0.2,0.4,0.3,0.7,0.3C30.5,51.6,30.8,51.5,31,51.3z"/>
		<path class="st0" d="M38.2,48.4c0.4,0.4,0.5,0.9,0.5,1.6v3h-1.5v-2.8c0-0.3-0.1-0.6-0.3-0.8c-0.2-0.2-0.4-0.3-0.7-0.3
			s-0.5,0.1-0.7,0.3c-0.2,0.2-0.3,0.5-0.3,0.8v2.8h-1.6v-5.1h1.6v0.7c0.2-0.2,0.4-0.4,0.6-0.5c0.3-0.1,0.6-0.2,0.9-0.2
			C37.4,47.8,37.9,48,38.2,48.4z"/>
		<path class="st0" d="M39.8,49c0.2-0.4,0.5-0.7,0.8-0.9c0.3-0.2,0.7-0.3,1.1-0.3c0.4,0,0.7,0.1,0.9,0.2c0.3,0.1,0.5,0.3,0.6,0.6
			v-0.7h1.6v5.1h-1.6v-0.7c-0.2,0.2-0.4,0.4-0.6,0.6c-0.3,0.1-0.6,0.2-0.9,0.2c-0.4,0-0.8-0.1-1.1-0.3c-0.3-0.2-0.6-0.5-0.8-0.9
			c-0.2-0.4-0.3-0.9-0.3-1.4C39.5,49.8,39.6,49.4,39.8,49z M43,49.4c-0.2-0.2-0.5-0.3-0.8-0.3c-0.3,0-0.6,0.1-0.8,0.3
			s-0.3,0.5-0.3,0.9s0.1,0.7,0.3,0.9c0.2,0.2,0.5,0.3,0.8,0.3c0.3,0,0.6-0.1,0.8-0.3c0.2-0.2,0.3-0.5,0.3-0.9S43.2,49.7,43,49.4z"/>
		<path class="st0" d="M47.6,46.2v6.7H46v-6.7H47.6z"/>
		<path class="st0" d="M57.8,46.5v6.4h-1.6v-3.8l-1.4,3.8h-1.3l-1.4-3.8v3.8h-1.6v-6.4h1.8l1.8,4.4l1.8-4.4L57.8,46.5L57.8,46.5z"/>
		<path class="st0" d="M58.9,49c0.2-0.4,0.5-0.7,0.8-0.9c0.3-0.2,0.7-0.3,1.1-0.3c0.4,0,0.7,0.1,0.9,0.2c0.3,0.1,0.5,0.3,0.6,0.6
			v-0.7H64v5.1h-1.6v-0.7c-0.2,0.2-0.4,0.4-0.6,0.6c-0.3,0.1-0.6,0.2-0.9,0.2c-0.4,0-0.8-0.1-1.1-0.3c-0.3-0.2-0.6-0.5-0.8-0.9
			c-0.2-0.4-0.3-0.9-0.3-1.4C58.6,49.8,58.7,49.4,58.9,49z M62.1,49.4c-0.2-0.2-0.5-0.3-0.8-0.3c-0.3,0-0.6,0.1-0.8,0.3
			c-0.2,0.2-0.3,0.5-0.3,0.9s0.1,0.7,0.3,0.9c0.2,0.2,0.5,0.3,0.8,0.3c0.3,0,0.6-0.1,0.8-0.3c0.2-0.2,0.3-0.5,0.3-0.9
			C62.4,50,62.3,49.7,62.1,49.4z"/>
		<path class="st0" d="M67.4,48c0.3-0.2,0.6-0.2,0.9-0.2v1.6h-0.4c-0.4,0-0.7,0.1-0.9,0.2c-0.2,0.2-0.3,0.5-0.3,0.9v2.4h-1.6v-5.1
			h1.6v0.8C66.9,48.4,67.1,48.2,67.4,48z"/>
		<path class="st0" d="M72.1,52.9l-1.5-2.1v2.1H69v-6.7h1.6v3.7l1.5-2.1H74l-2.1,2.5l2.1,2.5H72.1z"/>
		<path class="st0" d="M79.4,50.7h-3.5c0,0.3,0.1,0.6,0.3,0.7c0.2,0.2,0.4,0.2,0.7,0.2c0.4,0,0.7-0.2,0.8-0.5h1.7
			c-0.1,0.3-0.2,0.6-0.5,0.9c-0.2,0.3-0.5,0.5-0.8,0.6c-0.3,0.2-0.7,0.2-1.1,0.2c-0.5,0-0.9-0.1-1.3-0.3c-0.4-0.2-0.7-0.5-0.9-0.9
			c-0.2-0.4-0.3-0.9-0.3-1.4c0-0.5,0.1-1,0.3-1.4c0.2-0.4,0.5-0.7,0.9-0.9c0.4-0.2,0.8-0.3,1.3-0.3c0.5,0,0.9,0.1,1.3,0.3
			c0.4,0.2,0.7,0.5,0.9,0.9s0.3,0.8,0.3,1.3C79.4,50.4,79.4,50.6,79.4,50.7z M77.8,49.9c0-0.3-0.1-0.5-0.3-0.6
			c-0.2-0.2-0.4-0.2-0.7-0.2c-0.3,0-0.5,0.1-0.7,0.2c-0.2,0.2-0.3,0.4-0.3,0.6L77.8,49.9L77.8,49.9z"/>
		<path class="st0" d="M83,51.6v1.3h-0.8c-0.6,0-1-0.1-1.3-0.4c-0.3-0.3-0.5-0.7-0.5-1.3v-2h-0.6v-1.3h0.6v-1.2H82v1.2h1v1.3h-1v2
			c0,0.2,0,0.3,0.1,0.3c0.1,0.1,0.2,0.1,0.4,0.1L83,51.6L83,51.6z"/>
		<path class="st0" d="M84,47.1c-0.2-0.2-0.3-0.4-0.3-0.6c0-0.2,0.1-0.4,0.3-0.6c0.2-0.2,0.4-0.2,0.7-0.2c0.3,0,0.5,0.1,0.7,0.2
			c0.2,0.2,0.3,0.4,0.3,0.6c0,0.2-0.1,0.4-0.3,0.6c-0.2,0.2-0.4,0.2-0.7,0.2C84.4,47.3,84.2,47.2,84,47.1z M85.5,47.8v5.1h-1.6v-5.1
			H85.5z"/>
		<path class="st0" d="M91.1,48.4c0.4,0.4,0.5,0.9,0.5,1.6v3h-1.5v-2.8c0-0.3-0.1-0.6-0.3-0.8s-0.4-0.3-0.7-0.3s-0.5,0.1-0.7,0.3
			s-0.3,0.5-0.3,0.8v2.8h-1.6v-5.1h1.6v0.7c0.2-0.2,0.4-0.4,0.6-0.5c0.3-0.1,0.6-0.2,0.9-0.2C90.3,47.8,90.7,48,91.1,48.4z"/>
		<path class="st0" d="M95.6,48c0.3,0.1,0.5,0.3,0.6,0.6v-0.7h1.6v5.1c0,0.5-0.1,0.9-0.3,1.3c-0.2,0.4-0.5,0.7-0.8,0.9
			c-0.4,0.2-0.8,0.3-1.4,0.3c-0.8,0-1.4-0.2-1.8-0.5c-0.5-0.4-0.7-0.8-0.8-1.4h1.5c0,0.2,0.2,0.3,0.3,0.5c0.2,0.1,0.4,0.2,0.7,0.2
			c0.3,0,0.6-0.1,0.8-0.3c0.2-0.2,0.3-0.5,0.3-0.9v-0.7c-0.2,0.2-0.4,0.4-0.6,0.6C95.3,52.9,95,53,94.6,53c-0.4,0-0.8-0.1-1.1-0.3
			c-0.3-0.2-0.6-0.5-0.8-0.9c-0.2-0.4-0.3-0.9-0.3-1.4c0-0.5,0.1-1,0.3-1.4c0.2-0.4,0.5-0.7,0.8-0.9c0.3-0.2,0.7-0.3,1.1-0.3
			C95,47.8,95.3,47.8,95.6,48z M95.9,49.4c-0.2-0.2-0.5-0.3-0.8-0.3c-0.3,0-0.6,0.1-0.8,0.3C94.1,49.7,94,50,94,50.4
			s0.1,0.7,0.3,0.9c0.2,0.2,0.5,0.3,0.8,0.3c0.3,0,0.6-0.1,0.8-0.3c0.2-0.2,0.3-0.5,0.3-0.9S96.1,49.7,95.9,49.4z"/>
	</g>
	<path class="st0" d="M61.5,18.8c-1.8,1.6-2.6,2.5-4.4,4c-5.4,4.3-10.7,8.9-16.9,12.2c-5.9,3.2-12.1,4.6-18.6,2.2
		c-6.7-2.5-10.7-8.5-11-15.2c-0.3-6.5,2.2-11.6,7.5-15.3c6.3-4.4,18.3-4.2,23.9,4.3c-0.4,0.4-0.8,0.9-1.3,1.4
		c-4.2,4.2-8.5,8.4-12.8,12.6c-0.7,0.7-1.3,1.4-2.1,2c-1.3,1.2-2.9,1.1-4.1,0c-0.9-0.9-1-2.8,0-4c0.9-1.1,2-2,3.1-3
		c2.9-2.8,5.9-5.5,9-8.5c-0.7-0.5-1.2-1-1.8-1.2c-6.5-1.9-12.6,0.6-15.1,6.7c-2.8,6.9,2.5,15.2,9.9,15.6c3.8,0.2,7.3-0.9,10.6-2.6
		c4.1-2,7.7-4.8,11.1-7.8c3.7-3.3,5.5-4.7,9.3-7.8"/>
	<polygon class="st0" points="41.2,35.4 48,31.4 48,38 41.2,38 	"/>
	<g>
		<path class="st0" d="M69.6,17.8v20.4h-6.8V17.8c0-2-0.8-3.8-2.2-5.2s-3.2-2.2-5.2-2.2c-4.1,0-7.4,3.3-7.4,7.4v3.4l-6.8,5.1v-8.6
			c0-7.8,6.4-14.2,14.2-14.2c3.8,0,7.3,1.5,10,4.2C68.1,10.4,69.6,14,69.6,17.8z"/>
		<path class="st0" d="M88.4,17.8v20.4h-6.8V17.8c0-2-0.8-3.8-2.2-5.2c-1.4-1.4-3.2-2.2-5.2-2.2c-1.3,0-2.5,0.3-3.6,0.9L67,5.6
			c2.1-1.3,4.6-2,7.3-2c3.8,0,7.3,1.5,10,4.2C87,10.4,88.4,14,88.4,17.8z"/>
	</g>
</g>
</svg>
