<svg width="93" height="66" viewBox="0 0 93 66" fill="none" xmlns="http://www.w3.org/2000/svg">
<rect x="0.857147" width="91.978" height="66" rx="5" fill="#F1F1F1"/>
<path d="M67.4656 27.0054V29.0784H63.1582V39.9846H61.0042V29.0785H56.607V27.0054H67.4656ZM67.9499 38.7483C68.1016 38.7483 68.2343 38.8047 68.3467 38.9178C68.4606 39.0307 68.5174 39.1661 68.519 39.3238C68.5187 39.4273 68.4909 39.5287 68.4386 39.6169C68.3873 39.7039 68.3155 39.7761 68.2299 39.8266C68.1453 39.8789 68.0484 39.9061 67.9499 39.9054C67.7921 39.9054 67.6579 39.8489 67.5456 39.7359C67.4332 39.6228 67.3776 39.4859 67.3791 39.3238C67.3777 39.1661 67.4332 39.0307 67.5456 38.9178C67.6579 38.8047 67.7921 38.7483 67.9499 38.7483ZM25.2606 39.9846L17.3188 29.7743V39.9793H15.1649V27H17.8571L27.8908 39.8875L27.8909 29.0785L27.89 27.0054H38.7485V29.0784H30.0447V32.4134H37.0444V34.4865H30.0447V37.9116H38.7486V39.9846H25.2606ZM45.6515 34.4667L47.0631 36.2819L44.1707 40H41.344L45.6515 34.4667ZM44.1707 27.0108L47.8149 31.6921L51.4477 27.0252L54.2665 27.0208L49.2261 33.5049L54.2746 39.9901H51.4477L41.3521 27.0108H44.1707ZM71.6259 34.4376H72.5802V38.2411C72.5789 38.5906 72.5057 38.8894 72.3629 39.1409C72.2184 39.3922 72.0183 39.5841 71.7617 39.7195C71.5062 39.8533 71.207 39.9218 70.867 39.9218C70.5561 39.9218 70.2775 39.8639 70.0294 39.7508C69.7812 39.6377 69.5844 39.4681 69.4398 39.245C69.2937 39.0219 69.2222 38.7437 69.2222 38.4106H70.1783C70.1798 38.5563 70.2118 38.6826 70.273 38.7884C70.3333 38.8928 70.4215 38.977 70.527 39.0307C70.6364 39.0874 70.762 39.1156 70.9034 39.1156C71.0568 39.1156 71.188 39.0829 71.2946 39.0159C71.401 38.9504 71.4828 38.8523 71.5398 38.7214C71.5952 38.592 71.6244 38.4314 71.6259 38.241V34.4376ZM76.5072 35.925C76.4841 35.6945 76.3818 35.5144 76.2038 35.3866C76.0242 35.2571 75.7922 35.1933 75.5076 35.1933C75.3079 35.1933 75.1356 35.2245 74.9925 35.2855C74.8496 35.3479 74.7387 35.4312 74.6627 35.5369C74.587 35.6424 74.549 35.7629 74.5459 35.8983C74.5459 36.0113 74.5722 36.1095 74.6232 36.1913C74.6762 36.277 74.7476 36.3488 74.8319 36.4011C74.9235 36.4607 75.0215 36.509 75.1239 36.5453C75.2318 36.5839 75.3399 36.6167 75.4478 36.6435L75.9454 36.77C76.1455 36.8176 76.3396 36.8814 76.5249 36.9633C76.7101 37.0436 76.878 37.1463 77.0253 37.2697C77.1727 37.3931 77.2895 37.5419 77.3756 37.7159C77.4617 37.89 77.5055 38.0937 77.5055 38.3287C77.5055 38.6455 77.4267 38.9237 77.2676 39.1646C77.1086 39.4042 76.8794 39.5916 76.5788 39.727C76.2796 39.8608 75.9177 39.9292 75.4916 39.9292C75.0801 39.9292 74.7211 39.8637 74.4189 39.7329C74.1155 39.6035 73.879 39.413 73.7082 39.1631C73.5375 38.9132 73.4456 38.6083 73.4324 38.2499H74.3783C74.3913 38.4373 74.4497 38.5935 74.549 38.7199C74.6495 38.8449 74.7809 38.937 74.9415 38.9995C75.1035 39.0606 75.2844 39.0918 75.4843 39.0918C75.693 39.0918 75.8769 39.0591 76.0359 38.9951C76.1936 38.9311 76.3175 38.842 76.4066 38.7258C76.4971 38.6112 76.5424 38.476 76.5439 38.3213C76.5424 38.18 76.5014 38.0625 76.4226 37.9702C76.3424 37.878 76.2314 37.8007 76.0898 37.7382C75.947 37.6757 75.7806 37.6192 75.5909 37.5702L74.9867 37.4125C74.5503 37.2979 74.2045 37.124 73.952 36.8904C73.6981 36.6569 73.5726 36.3476 73.5726 35.9593C73.5726 35.641 73.6572 35.3613 73.828 35.1218C73.9973 34.8825 74.2293 34.6965 74.5227 34.5641C74.8173 34.4302 75.1502 34.3647 75.5207 34.3647C75.8973 34.3647 76.227 34.4302 76.5117 34.5641C76.7962 34.6965 77.0196 34.8808 77.1814 35.1158C77.3435 35.351 77.4282 35.6201 77.4326 35.925H76.5072Z" fill="#111111"/>
</svg>
