<svg width="93" height="66" viewBox="0 0 93 66" fill="none" xmlns="http://www.w3.org/2000/svg">
<rect x="0.549454" width="91.978" height="66" rx="5" fill="#F1F1F1"/>
<rect x="22" y="9" width="49.0989" height="47" rx="7" stroke="#111111" stroke-width="2"/>
<path d="M33.35 19.7107C33.35 19.568 33.6502 19.4607 33.8242 19.4607C35.6532 19.383 37.4836 19.3467 39.3142 19.3517C45.2193 19.3517 47.5139 22.5987 47.5139 26.756C47.5139 32.1906 43.664 34.4777 38.8559 34.4777C38.0415 34.4777 37.6918 34.4777 37.1265 34.4777V42.6913C37.1265 42.866 37.0594 42.9413 36.8854 42.9413H33.5911C33.417 42.9413 33.35 42.874 33.35 42.6993V19.7107ZM37.1265 31.064C37.6167 31.0976 38.0079 31.0976 38.8559 31.0976C41.3421 31.0976 43.6879 30.213 43.6879 26.8329C43.6879 24.1196 42.008 22.7429 39.1641 22.7429C38.3241 22.7429 37.5177 22.7766 37.1265 22.8102V31.064ZM55.4526 28.5141C55.454 28.5152 55.4531 28.5173 55.4514 28.5173C53.7676 28.5191 53.2035 29.3691 53.2035 30.0703C53.2035 30.846 53.5867 31.3733 55.8399 32.5416C59.1757 34.1699 60.2312 35.7133 60.2312 38.0083C60.2312 41.422 57.6283 43.2587 54.1185 43.2587C52.255 43.2587 50.6677 42.866 49.7527 42.3403C49.6202 42.273 49.5866 42.1656 49.5866 41.9893V38.8513C49.5866 38.643 49.6872 38.5677 49.8278 38.6766C51.1022 39.5083 52.5904 39.9494 54.1105 39.9459C55.7983 39.9459 56.4978 39.244 56.4978 38.2856C56.4978 37.5099 56.0075 36.8416 53.8694 35.7149C50.8418 34.2629 49.5771 32.7852 49.5771 30.3139C49.5771 27.5589 51.7232 25.2719 55.4407 25.2719C57.0056 25.2719 58.1747 25.4794 58.9229 25.7329C59.1554 25.8117 59.4194 25.9218 59.4635 26.1633C59.4715 26.207 59.4743 26.2504 59.4743 26.2912V29.2209C59.4743 29.3584 59.407 29.4552 59.2771 29.4534C59.196 29.4523 59.1233 29.4081 59.0524 29.3688C58.1087 28.8448 56.766 28.5118 55.4538 28.5109C55.4521 28.5109 55.4513 28.5131 55.4526 28.5141Z" fill="#111111"/>
</svg>
