<?xml version="1.0" encoding="utf-8"?>
<!-- Generator: Adobe Illustrator 23.0.5, SVG Export Plug-In . SVG Version: 6.00 Build 0)  -->
<svg version="1.1" id="Calque_1" xmlns="http://www.w3.org/2000/svg" xmlns:xlink="http://www.w3.org/1999/xlink" x="0px" y="0px"
	 viewBox="0 0 93 66" style="enable-background:new 0 0 93 66;" xml:space="preserve">
<style type="text/css">
	.st0{fill:#F1F1F1;}
</style>
<path class="st0" d="M5.2,0h82c2.8,0,5,2.2,5,5v56c0,2.8-2.2,5-5,5h-82c-2.8,0-5-2.2-5-5V5C0.2,2.2,2.4,0,5.2,0z"/>
<g>
	<g>
		<path d="M60.9,42.2L48.8,16.5c-0.3-0.6-0.9-1.1-1.7-1.1c-0.7,0-1.4,0.3-1.8,0.9L32.2,37.6c-0.4,0.7-0.4,1.5,0,2.1l6.4,9.9
			c0.5,0.8,1.4,1.1,2.3,0.9L59.6,45c0.6-0.2,1-0.6,1.3-1.1C61.1,43.4,61.1,42.7,60.9,42.2L60.9,42.2z M58.2,43.3L42.4,48
			c-0.5,0.1-0.9-0.3-0.8-0.8l5.6-27c0.1-0.5,0.8-0.6,1-0.1l10.4,22.2c0.1,0.2,0.1,0.4,0,0.6C58.6,43.1,58.4,43.3,58.2,43.3
			L58.2,43.3z"/>
	</g>
</g>
</svg>
