<?xml version="1.0" encoding="utf-8"?>
<!-- Generator: Adobe Illustrator 23.0.5, SVG Export Plug-In . SVG Version: 6.00 Build 0)  -->
<svg version="1.1" id="Calque_1" xmlns="http://www.w3.org/2000/svg" xmlns:xlink="http://www.w3.org/1999/xlink" x="0px" y="0px"
	 viewBox="0 0 93 66" style="enable-background:new 0 0 93 66;" xml:space="preserve">
<style type="text/css">
	.st0{fill:#F1F1F1;}
</style>
<path class="st0" d="M5.2,0h82c2.8,0,5,2.2,5,5v56c0,2.8-2.2,5-5,5h-82c-2.8,0-5-2.2-5-5V5C0.2,2.2,2.4,0,5.2,0z"/>
<g>
	<g>
		<path d="M64.9,44.8L49.4,11.9c-0.4-0.8-1.2-1.4-2.1-1.4c-0.9-0.1-1.8,0.4-2.3,1.2L28.3,38.9c-0.5,0.8-0.5,1.9,0,2.7l8.2,12.7
			c0.6,1,1.8,1.4,3,1.1l23.8-7c0.7-0.2,1.3-0.7,1.6-1.4C65.2,46.2,65.2,45.4,64.9,44.8L64.9,44.8z M61.4,46.2l-20.2,6
			c-0.6,0.2-1.2-0.4-1.1-1l7.2-34.5c0.1-0.6,1-0.7,1.3-0.2L62,44.8c0.1,0.3,0.1,0.6,0,0.8C61.9,45.9,61.7,46.1,61.4,46.2L61.4,46.2z
			"/>
	</g>
</g>
</svg>
