<svg width="92" height="66" viewBox="0 0 92 66" fill="none" xmlns="http://www.w3.org/2000/svg">
<rect width="91.978" height="66" rx="5" fill="#F1F1F1"/>
<path d="M51.2338 42.6457C50.0736 44.2955 48.8093 45.8695 47.4487 47.3582C51.0735 50.8747 54.4427 52.5214 56.3125 51.4402C58.1823 50.3612 58.4402 46.6194 57.2073 41.7249C55.3592 42.1365 53.3528 42.4507 51.2338 42.6457ZM48.3955 42.8342C46.7531 42.9023 45.1087 42.9023 43.4663 42.8342C44.281 43.9002 45.1087 44.8882 45.9298 45.7874C46.7532 44.8882 47.5787 43.9024 48.3955 42.8342ZM59.3155 25.7305C65.0897 27.3859 68.8618 30.1375 68.8618 33.459C68.8618 36.7805 65.0918 39.5322 59.3177 41.1875C60.7693 47.0159 60.271 51.6569 57.3958 53.3165C54.5207 54.9784 50.2523 53.089 45.9298 48.916C41.6095 53.0869 37.3412 54.9784 34.466 53.3165C31.5887 51.6569 31.0925 47.0159 32.5442 41.1875C26.77 39.5322 23 36.7805 23 33.459C23 30.1375 26.77 27.3859 32.5442 25.7305C31.0925 19.9022 31.5908 15.2612 34.466 13.5994C37.3412 11.9397 41.6095 13.829 45.9298 18.002C50.2523 13.829 54.5207 11.9397 57.3958 13.5994C60.271 15.2612 60.7693 19.9022 59.3177 25.7305H59.3155ZM57.2073 25.1932C58.4423 20.2965 58.1823 16.5569 56.3125 15.4757C54.4427 14.3967 51.0735 16.0434 47.4508 19.5599C48.8105 21.0489 50.0741 22.6229 51.2338 24.2724C53.3528 24.4674 55.3592 24.7794 57.2073 25.1932ZM34.6523 41.7249C33.4195 46.6215 33.6773 50.3612 35.5493 51.4402C37.4192 52.5192 40.7883 50.8747 44.411 47.3582C43.0509 45.8688 41.7874 44.294 40.628 42.6435C38.6193 42.464 36.6241 42.1564 34.6545 41.7227L34.6523 41.7249ZM43.4663 24.0839C45.1087 24.0159 46.7531 24.0159 48.3955 24.0839C47.6166 23.0644 46.7939 22.0791 45.9298 21.1307C45.1065 22.032 44.2832 23.0179 43.4663 24.0839ZM40.628 24.2724C41.7874 22.6226 43.051 21.0486 44.411 19.5599C40.7883 16.0434 37.4192 14.3967 35.5515 15.4757C33.6817 16.5569 33.4217 20.2987 34.6567 25.1932C36.5048 24.7815 38.509 24.4695 40.628 24.2724ZM50.0313 40.5657C51.5751 38.3024 52.9475 35.9269 54.1372 33.459C52.949 30.9913 51.578 28.6157 50.0357 26.3524C47.3044 26.148 44.5617 26.148 41.8305 26.3524C40.2867 28.6156 38.9143 30.9911 37.7247 33.459C38.9137 35.9268 40.2854 38.3023 41.8283 40.5657C44.5596 40.7699 47.3023 40.7699 50.0335 40.5657H50.0313ZM52.8155 40.2797C54.148 40.1064 55.4155 39.8854 56.6072 39.6232C56.2175 38.4007 55.7751 37.1956 55.2812 36.0114C54.5191 37.4675 53.6951 38.8915 52.8155 40.2797ZM39.0463 26.6362C37.7138 26.8095 36.4463 27.0327 35.2547 27.2949C35.623 28.4562 36.0672 29.6652 36.5828 30.9067C37.3448 29.4506 38.1667 28.0266 39.0463 26.6384V26.6362ZM35.2547 39.6232C36.4463 39.8854 37.7138 40.1064 39.0463 40.2797C38.1667 38.8915 37.3448 37.4675 36.5828 36.0114C36.0882 37.1956 35.645 38.4007 35.2547 39.6232ZM33.1357 39.0924C33.7033 37.2854 34.4357 35.3917 35.324 33.459C34.4755 31.6297 33.7446 29.7481 33.1357 27.8257C28.2802 29.2037 25.1688 31.301 25.1688 33.459C25.1688 35.617 28.2802 37.7122 33.1357 39.0924ZM56.6115 27.2949C55.3577 27.0206 54.0927 26.8008 52.8198 26.6362C53.6994 28.0245 54.5213 29.4485 55.2833 30.9045C55.799 29.6652 56.241 28.4562 56.6115 27.2949ZM58.7283 27.8257C58.165 29.6327 57.4283 31.5264 56.54 33.459C57.4283 35.3917 58.165 37.2854 58.7283 39.0924C63.586 37.7122 66.6973 35.617 66.6973 33.459C66.6973 31.301 63.586 29.2059 58.7283 27.8257ZM45.9298 37.5302C45.384 37.548 44.8402 37.4559 44.3307 37.2593C43.8212 37.0627 43.3565 36.7657 42.9641 36.3859C42.5717 36.0061 42.2596 35.5513 42.0466 35.0485C41.8335 34.5457 41.7237 34.0051 41.7237 33.459C41.7237 32.9129 41.8335 32.3724 42.0466 31.8696C42.2596 31.3668 42.5717 30.912 42.9641 30.5322C43.3565 30.1524 43.8212 29.8554 44.3307 29.6588C44.8402 29.4622 45.384 29.3701 45.9298 29.3879C46.9866 29.4224 47.9885 29.8664 48.7239 30.6261C49.4592 31.3858 49.8703 32.4017 49.8703 33.459C49.8703 34.5164 49.4592 35.5322 48.7239 36.292C47.9885 37.0517 46.9866 37.4957 45.9298 37.5302Z" fill="#111111"/>
</svg>
