<?xml version="1.0" encoding="utf-8"?>
<!-- Generator: Adobe Illustrator 23.0.5, SVG Export Plug-In . SVG Version: 6.00 Build 0)  -->
<svg version="1.1" id="Calque_1" xmlns="http://www.w3.org/2000/svg" xmlns:xlink="http://www.w3.org/1999/xlink" x="0px" y="0px"
	 viewBox="0 0 93 66" style="enable-background:new 0 0 93 66;" xml:space="preserve">
<style type="text/css">
	.st0{fill:#F1F1F1;}
	.st1{fill:#383838;}
</style>
<path class="st0" d="M5.2,0H88c2.8,0,5.1,2.2,5.1,5v56c0,2.8-2.3,5-5.1,5H5.2c-2.8,0-5.1-2.2-5.1-5V5C0.2,2.2,2.4,0,5.2,0z"/>
<g>
	<polygon points="61.1,31.3 61.1,38.8 58.7,38.8 58.7,30.1 	"/>
	<path class="st1" d="M26.8,37.4l1.8,1.6l7.6-4l-0.8-1.9L26.8,37.4z M58.7,32.5l6.2-3.2l-1-1.8l-5.1,2.5V32.5z"/>
	<path class="st1" d="M41.3,30.7v8.1H39V27.2L41.3,30.7z M26.8,37.4l1.8,1.6l3.5-8.7l-1.1-3L26.8,37.4z"/>
	<path d="M31,27.2h2.4l4.4,11.5h-2.5L31,27.2z M41.7,27.2l5.1,7.9v3.7L39,27.2H41.7z M51.2,27.2h2.4v11.5h-2.4V27.2z M58.7,29.3H55
		v-2.1h8.6l1.2,2.1h-3.7H58.7z"/>
	<polyline class="st1" points="71.9,34.4 71.9,38.8 69.5,38.8 69.5,34.4 	"/>
	<polygon points="73.6,27.2 69.5,34.4 71.9,34.4 76.1,27.2 	"/>
	<polygon class="st1" points="69.5,34.4 65.4,27.2 68,27.2 70.8,32.1 	"/>
	<path d="M17.9,28.6c0,1.6,1,2.6,3,3.1l2.1,0.5c1.9,0.4,3,1.5,3,3.3c0,0.8-0.2,1.5-0.7,2.1c0-1.7-0.9-2.7-3.1-3.3l-2.1-0.5
		c-1.7-0.4-2.9-1.3-2.9-3.2C17.2,29.9,17.4,29.1,17.9,28.6"/>
	<polygon class="st1" points="46.8,34.5 46.8,27.2 49.1,27.2 49.1,38.8 46.8,38.8 	"/>
	<path class="st1" d="M24,34.9c0.9,0.6,1.3,1.4,1.3,2.5c-0.8,1-2.1,1.5-3.6,1.5c-2.6,0-4.4-1.3-4.8-3.5h2.5c0.3,1,1.2,1.5,2.3,1.5
		C23,37,24,36.2,24,34.9 M17.9,28.6c0.7-0.9,2-1.5,3.5-1.5c2.6,0,4.2,1.4,4.5,3.3h-2.4c-0.3-0.8-0.9-1.4-2.1-1.4
		c-1.3,0-2.2,0.8-2.2,1.9C18.3,30.5,17.8,29.5,17.9,28.6z"/>
</g>
</svg>
