<?xml version="1.0" encoding="utf-8"?>
<!-- Generator: Adobe Illustrator 23.0.5, SVG Export Plug-In . SVG Version: 6.00 Build 0)  -->
<svg version="1.1" id="Calque_1" xmlns="http://www.w3.org/2000/svg" xmlns:xlink="http://www.w3.org/1999/xlink" x="0px" y="0px"
	 viewBox="0 0 48 56" style="enable-background:new 0 0 48 56;" xml:space="preserve">
<style type="text/css">
	.st0{fill:#777777;}
	.st1{fill:#FFFFFF;}
</style>
<path d="M13.6,51.3C11.4,55.7,8,55,5.3,52.1C7,52,8.3,51.5,9.1,50c0.6-1.2,0.8-2.5,0.7-3.8c-2.3-0.3-4.4-1-6.2-2.3
	c-2.8-2.1-4.3-6-3.4-9.4c0.8-3.3,4.5-5.2,7.5-3.8c0.8,0.4,1.4,1.1,2.1,1.6c0-1,0-2.1,0-3.2c0-0.2-0.4-0.4-0.6-0.5
	c-2.6-1.1-4.7-2.8-6.1-5.3C0.2,18.4,2.8,11.5,8.7,9.9C10,9.5,10,9.5,9.8,8.2C9.8,7.6,9.7,7.1,9.6,6.5C9.2,4.9,8.1,4,6.4,3.9
	C6,3.8,5.7,3.7,5.3,3.6c2.6-3.1,5.5-2.8,8.1,0.9c0.6-0.5,1.2-1,1.8-1.5c5.5-4.4,15.7-3.2,19.1,4.7c0.6,1.3,1.2,2,2.7,2.2
	c2.1,0.3,3.9,1.2,5.4,2.8c1.9,2,2.5,5.4,1.2,7.7c-1,1.7-3,2.6-4.9,2c-0.3-0.1-0.5-0.2-0.8-0.2c0,0.1-0.1,0.2-0.1,0.2
	c0.1,1.3,0.7,1.8,2,2.1c4.5,1.1,8.1,5.1,8.3,9.2c0.3,5.8-2.8,11.1-9.4,12.6c-0.9,0.2-1.9,0.3-2.9,0.4c-0.6,0-0.9,0.2-1.1,0.8
	c-0.9,2.3-2.2,4.4-4.3,5.9c-4.2,3-11.1,3.3-15.7-1.1C14.3,51.8,14,51.6,13.6,51.3z M31.4,26.3L31.4,26.3c0.1-0.4,0.2-0.7,0.3-1.1
	c0.3-1-0.2-1.7-1.2-1.7c-0.4,0-0.7,0.2-1.1,0.2c-0.2,0-0.4,0-0.6-0.1c-0.1-0.1-0.1-0.3-0.1-0.5c0-0.2,0.2-0.3,0.3-0.5
	c-4.3-2.1-5.4-4.1-6.2-7.4c-0.1,0.4-0.2,0.6-0.2,0.8c-0.5,2.2-1.4,4.3-3.3,5.6c-3.1,2.2-6.4,2.4-9.9,1.2c-2.3-0.8-3.6-2.8-3.7-5
	c0-2.3,1.1-4,3.5-5c0.2-0.1,0.4-0.2,0.8-0.4c-1.5,0-3.2,1.1-3.9,2.5c-1.4,2.7-0.8,5,1.2,7.1c-0.4-0.2-0.7-0.4-0.9-0.7
	c-2.1-2.3-2-7.4,2.4-9.2c1.3-0.5,1.3-0.6,1-2c-0.2,0-0.4,0-0.7,0C4.7,11,1.4,16.2,2.5,20.7c1.1,4.2,5.1,7.5,9.7,8
	c2.6,0.3,5,1.1,7.1,2.7c1.7,1.3,2.9,2.9,3.6,5.2c1.1-2.6,2.5-4.5,4.7-6c2.2-1.4,4.6-1.8,7.1-2c-1.6-0.3-3.1-0.1-4.5,0.4
	c-3.2,1-5.4,3.1-7,6.2c0-1,0.5-1.7,1.3-2.8c2.7-3.2,6.3-4.5,10.7-4.4c-0.3-0.7-0.4-1.5-0.8-1.7c-0.5-0.3-1.2-0.1-1.9-0.1
	C32.1,26.1,31.8,26.2,31.4,26.3z M23,49.9c1.1-2.1,3.3-3,5.6-3.4c2.4-0.4,4.7-0.5,7.1-0.7c3.7-0.3,7-1.7,9.3-4.8
	c3-4.3,3.8-11.2-2.5-15c-1.3-0.8-2.7-1.4-4.3-1.6c0,1.6,1.2,2.8,0.8,4.5c0.2,0.2,0.5,0.4,0.8,0.6c0.2,0.2,0.5,0.5,0.7,0.7
	c0,0-0.1,0-0.1,0.1c-0.5-0.3-1-0.6-1.5-1c-0.1,0.1-0.1,0.2-0.2,0.2c0.1,0.1,0.1,0.2,0.2,0.2c4.4,2.4,4.2,8.7,0.2,11.5
	c-2.3,1.6-4.8,1.5-7.4,0.9c-1.9-0.4-3.6-1.3-5-2.8c-0.6,2.7-1.7,3.9-3.5,4c-1.2,0.1-2.3-0.1-3.1-1c-0.7-0.8-1.1-1.9-1.6-2.9
	c-1.3,1.4-1.8,3.2-1.7,5.2c0,0.7,0.2,1.2,1,1.3c0.8,0.1,1.5,0.5,2.2,0.8c0.2,0.1,0.3,0.3,0.5,0.5c-1.2-0.4-2.3-0.8-3.4-1.2
	c0,0.1-0.1,0.2-0.1,0.3c1,0.4,2.2,0.7,3.1,1.2C21.3,48.2,22.1,49.1,23,49.9z M39.9,19.5c0-0.1,0-0.2,0-0.3c0.2-1.6-1-2.6-2.4-2.1
	c-0.7,0.2-1.2,0.7-1.3,1.4c-0.2,1,0.2,1.8,1,2.5c1.7,1.4,4.5,0.8,5.6-1.1c1-1.8,1-3.6,0.2-5.4c-1-2.3-3-3.6-5.4-4.1
	c-2.7-0.6-5.5-1-8.3-1.5c-2.6-0.5-4.9-1.4-6.3-3.8C22.9,5,22.8,5,22.7,5c-1,1.9-2.6,3-4.6,3.5c-0.5,0.1-0.8,0.4-0.9,1
	c-0.1,0.7-0.3,1.4-0.3,2.1c0,0.4,0.3,0.8,0.5,1.2c0,0,0,0.1,0,0.2c-0.1,0-0.3,0-0.6,0c0.8,0.6,1.4,1.1,2.1,1.7
	c0.4-2.4,1.8-3.6,4.1-3.6c2.2,0,3.6,1.3,3.9,3.7c2.2-2.1,4.7-2.9,7.5-2.5c2.1,0.3,4.1,0.8,5.6,2.3C41.5,16,41.5,18.4,39.9,19.5z
	 M19.7,37.5c0,0.4,0.1,0.7,0.1,0.9c0,0.3-0.1,0.6-0.1,0.9c-0.1,2.1,1.2,3.5,3.2,3.5c2.1,0,3.5-1.4,3.5-3.4c0-0.6,0-1.2-0.1-1.7
	c1,1.6,2.2,2.8,4.3,3.5c-0.2-1.7-0.2-3.3-0.5-4.8c-0.3-1.5-0.8-3-1.3-4.4c2.1,0.4,3.3-0.4,2.8-2.2c-4.8,1.2-7.4,4.6-8.6,9.3
	c-0.1-5.1-3.1-7.7-7.6-9.1c0.1,1,0.1,1.9,0.3,2.7c0.4,1.8,0.7,3.6,1.2,5.4c0.1,0.6,0.6,1,1.1,1.7C18.5,39,19,38.3,19.7,37.5z
	 M26.9,16.3c-0.1,0-0.2-0.1-0.3-0.1c0-0.4-0.1-0.8-0.1-1.2c-0.1-1.6-0.8-2.6-2.1-3c-2.4-0.7-4.7,1-4.7,3.5c0,0.3,0,0.6,0,0.9
	c-0.1,0-0.2,0-0.2,0.1c-0.5-1-1.1-2-2.4-2.5c0.5,0.9,0.8,1.5,1.2,2.1c-1.9,1.8-2.1,4.2-2.5,6.9c1-0.4,1.9-0.7,2.6-1.1
	c2.5-1.5,3.6-3.9,4.1-6.6c0.1-0.5,0.2-1,0.4-1.5c0.1-0.1,0.3-0.1,0.4-0.2c0.5,4,2,7.1,6,8.5c1-1.6,1.7-6.9,1.2-8.4
	C28.8,14.1,27.8,15.1,26.9,16.3z M9.8,45.2c-1.8-0.4-3.6-0.8-5.2-1.9c1.7,0.5,3.4,0.9,5.2,1.4c0.1-0.5,0.1-0.7,0.1-1
	c0-1.9,0.3-1.5-1.5-1.8c-3.5-0.5-5.8-4.2-4.5-7.5C4,34,4.4,33.7,4.7,33.3c0.2,0.5,0.1,0.8,0.1,1.1c0,1.6,1.5,2.6,3,2.2
	c1.8-0.6,2.4-2.5,1.3-4.2C8.1,30.5,5.8,30,3.7,31c-2.4,1.2-3.3,3.2-3.2,5.8C0.6,42.2,5.2,45.2,9.8,45.2z M36.2,41.9
	c2.9-0.2,5.5-3.1,5.7-6.2c0.1-2-1-5-3.5-5.4C37.7,34.1,37,38,36.2,41.9z M9.9,13.7c-1.7,0.1-3.2,2.2-3.3,4.2c-0.1,2,1.5,4.3,3.3,4.5
	C9.9,19.4,9.9,16.6,9.9,13.7z M4.5,35.3c-0.9,3.5,2,6.9,5.3,6.2c0-0.6,0.1-1.1,0.1-1.7c0-1.1,0-2.3,0-3.5C7.4,38,6.1,37.7,4.5,35.3z
	 M40.4,18.3c0.5-0.8,0.5-1.8-0.1-2.7c-1-1.5-2.6-1.9-4.2-2.3c0.3,1.3,0.5,2.4,0.7,3.5C39,16.4,39.5,16.7,40.4,18.3z M17.4,47.2
	c1.1,2.7,3,4,5.1,3.6C21.8,48.3,19.6,47.9,17.4,47.2z M29.1,8.5c-0.9-2.1-3.2-3.5-5.4-3.4C24.7,7.4,26.8,8,29.1,8.5z M28.8,47.4
	c-2.3,0.1-4.7,1.7-5,3.3C26,50.4,27.7,49.4,28.8,47.4z M22.2,5.1c-2.1-0.1-4,1.3-4.5,3.2C19.6,7.8,21.1,6.8,22.2,5.1z M14.9,51.7
	c0,0,0,0.1,0,0.1c5.2,0,10.4,0,15.6,0c0,0,0-0.1,0-0.1C25.3,51.7,20.1,51.7,14.9,51.7z M15.3,3.3c0,0,0,0.1,0,0.1c5,0,10,0,14.9,0
	c0,0,0-0.1,0-0.1C25.3,3.3,20.3,3.3,15.3,3.3z M29.7,2.9c0,0,0-0.1,0-0.1c-4.5,0-9.1,0-13.6,0c0,0,0,0.1,0,0.1
	C20.6,2.9,25.2,2.9,29.7,2.9z M17.5,53.4c0,0,0,0.1,0,0.1c3.5,0,7,0,10.6,0c0,0,0-0.1,0-0.1C24.6,53.4,21.1,53.4,17.5,53.4z
	 M17.1,2.2c0,0,0,0.1,0,0.1c3.9,0,7.8,0,11.6,0c0,0,0-0.1,0-0.1C24.9,2.2,21,2.2,17.1,2.2z M14.8,3.9c0,0,0,0.1,0,0.1
	c5.4,0,10.8,0,16.1,0c0,0,0-0.1,0-0.1C25.6,3.9,20.2,3.9,14.8,3.9z M10,6.2C10,6.2,10,6.3,10,6.2c2.6,0.1,5.2,0.1,7.8,0.1
	c0,0,0-0.1,0-0.1C15.2,6.2,12.6,6.2,10,6.2z M17.4,6.9c0,0,0-0.1,0-0.1c-2.4,0-4.8,0-7.2,0c0,0,0,0.1,0,0.1
	C12.6,6.9,15,6.9,17.4,6.9z M15.8,52.3C15.8,52.3,15.8,52.4,15.8,52.3c4.6,0.1,9.2,0.1,13.9,0.1c0,0,0-0.1,0-0.1
	C25.1,52.3,20.4,52.3,15.8,52.3z M31.5,4.6c0,0,0-0.1,0-0.1c-2.3,0-4.7,0-7,0c0,0,0,0.1,0,0.1C26.8,4.6,29.2,4.6,31.5,4.6z
	 M17.2,48.4c0,0,0-0.1,0-0.1c-2.3,0-4.5,0-6.8,0c0,0,0,0.1,0,0.1C12.6,48.4,14.9,48.4,17.2,48.4z M18.8,54c0,0,0,0.1,0,0.1
	c2.6,0,5.2,0,7.8,0c0,0,0-0.1,0-0.1C23.9,54,21.3,54,18.8,54z M10.4,15.4c0,0,0,0.1,0,0.1c2.2,0,4.5,0,6.7,0c0,0,0-0.1,0-0.1
	C14.8,15.4,12.6,15.4,10.4,15.4z M30,33.8c0,0,0,0.1,0,0.1c2.2,0,4.5,0,6.7,0c0,0,0-0.1,0-0.1C34.5,33.8,32.3,33.8,30,33.8z
	 M10.4,7.9c0,0,0,0.1,0,0.1c2.1,0,4.3,0,6.4,0c0,0,0-0.1,0-0.1C14.7,7.9,12.5,7.9,10.4,7.9z M30.2,21.2c0,0,0,0.1,0,0.1
	c2.1,0,4.2,0,6.3,0c0,0,0-0.1,0-0.1C34.4,21.2,32.3,21.2,30.2,21.2z M14,4.5c0,0,0,0.1,0,0.1c2.2,0,4.3,0,6.5,0c0,0,0-0.1,0-0.1
	C18.4,4.5,16.2,4.5,14,4.5z M29.8,33.3c0,0,0,0.1,0,0.1c2.3,0,4.7,0,7,0c0,0,0-0.1,0-0.1C34.5,33.3,32.1,33.3,29.8,33.3z M16.6,40.9
	c0,0,0-0.1,0-0.1c-2.1,0-4.2,0-6.2,0c0,0,0,0.1,0,0.1C12.5,40.9,14.6,40.9,16.6,40.9z M10.4,16C10.4,16,10.4,16,10.4,16
	c2.2,0.1,4.3,0.1,6.5,0.1c0,0,0-0.1,0-0.1C14.7,16,12.5,16,10.4,16z M10.4,8.5c0,0,0,0.1,0,0.1c2.1,0,4.1,0,6.2,0c0,0,0-0.1,0-0.1
	C14.5,8.5,12.4,8.5,10.4,8.5z M16.5,52.9C16.5,52.9,16.5,52.9,16.5,52.9C20.7,53,24.8,53,29,53c0,0,0-0.1,0-0.1
	C24.9,52.9,20.7,52.9,16.5,52.9z M10.4,46.5C10.4,46.5,10.4,46.6,10.4,46.5c2,0.1,4,0.1,6.1,0.1c0,0,0-0.1,0-0.1
	C14.4,46.5,12.4,46.5,10.4,46.5z M16.5,39.2c0,0,0-0.1,0-0.1c-2,0-4.1,0-6.1,0c0,0,0,0.1,0,0.1C12.4,39.2,14.5,39.2,16.5,39.2z
	 M16.3,13.8c0,0,0-0.1,0-0.1c-2,0-4,0-6,0c0,0,0,0.1,0,0.1C12.4,13.8,14.4,13.8,16.3,13.8z M37.1,23c0,0,0-0.1,0-0.1c-2,0-4,0-6,0
	c0,0,0,0.1,0,0.1C33.1,23,35.1,23,37.1,23z M16.3,41.4c0,0,0-0.1,0-0.1c-2,0-4,0-5.9,0c0,0,0,0.1,0,0.1
	C12.4,41.4,14.4,41.4,16.3,41.4z M30.5,35.6c0,0,0,0.1,0,0.1c2,0,4,0,6,0c0,0,0-0.1,0-0.1C34.4,35.6,32.4,35.6,30.5,35.6z
	 M16.2,17.3c0,0,0-0.1,0-0.1c-1.9,0-3.9,0-5.8,0c0,0,0,0.1,0,0.1C12.3,17.3,14.2,17.3,16.2,17.3z M16.2,10.4c0,0,0-0.1,0-0.1
	c-1.9,0-3.9,0-5.8,0c0,0,0,0.1,0,0.1C12.3,10.4,14.2,10.4,16.2,10.4z M10.4,11.9c0,0,0,0.1,0,0.1c1.9,0,3.9,0,5.8,0c0,0,0-0.1,0-0.1
	C14.2,11.9,12.3,11.9,10.4,11.9z M10.4,44.8c0,0,0,0.1,0,0.1c1.9,0,3.8,0,5.8,0c0,0,0-0.1,0-0.1C14.2,44.8,12.3,44.8,10.4,44.8z
	 M30.3,20.6c0,0,0,0.1,0,0.1c1.9,0,3.9,0,5.8,0c0,0,0-0.1,0-0.1C34.1,20.6,32.2,20.6,30.3,20.6z M16.1,43.2c0,0,0-0.1,0-0.1
	c-1.9,0-3.8,0-5.7,0c0,0,0,0.1,0,0.1C12.3,43.2,14.2,43.2,16.1,43.2z M10.4,9.7c0,0,0,0.1,0,0.1c1.9,0,3.9,0,5.8,0c0,0,0-0.1,0-0.1
	C14.3,9.7,12.4,9.7,10.4,9.7z M10.4,44.2c0,0,0,0.1,0,0.1c1.9,0,3.8,0,5.7,0c0,0,0-0.1,0-0.1C14.2,44.2,12.3,44.2,10.4,44.2z
	 M18.4,1.6c0,0,0,0.1,0,0.1c3,0,6,0,9,0c0,0,0-0.1,0-0.1C24.4,1.6,21.4,1.6,18.4,1.6z M10.4,11.4c0,0,0,0.1,0,0.1c1.9,0,3.8,0,5.7,0
	c0,0,0-0.1,0-0.1C14.2,11.4,12.3,11.4,10.4,11.4z M10.4,42.5c0,0,0,0.1,0,0.1c1.9,0,3.8,0,5.7,0c0,0,0-0.1,0-0.1
	C14.2,42.5,12.3,42.5,10.4,42.5z M31.5,32.1c0,0,0,0.1,0,0.1c1.9,0,3.7,0,5.6,0c0,0,0-0.1,0-0.1C35.2,32.1,33.4,32.1,31.5,32.1z
	 M32,5.2c0,0,0-0.1,0-0.1c-1.9,0-3.7,0-5.6,0c0,0,0,0.1,0,0.1C28.3,5.2,30.2,5.2,32,5.2z M36.2,37.4C36.2,37.4,36.2,37.4,36.2,37.4
	c-1.8-0.1-3.6-0.1-5.4-0.1c0,0,0,0.1,0,0.1C32.6,37.4,34.4,37.4,36.2,37.4z M10.4,17.7c0,0,0,0.1,0,0.1c1.8,0,3.6,0,5.4,0
	c0,0,0-0.1,0-0.1C14,17.7,12.2,17.7,10.4,17.7z M10.4,37.3c0,0,0,0.1,0,0.1c1.8,0,3.5,0,5.3,0c0,0,0-0.1,0-0.1
	C13.9,37.3,12.1,37.3,10.4,37.3z M37.2,31.7C37.2,31.7,37.2,31.6,37.2,31.7c-1.8-0.1-3.5-0.1-5.3-0.1c0,0,0,0.1,0,0.1
	C33.7,31.7,35.5,31.7,37.2,31.7z M19.1,5.2c0,0,0-0.1,0-0.1c-1.8,0-3.6,0-5.4,0c0,0,0,0.1,0,0.1C15.5,5.2,17.3,5.2,19.1,5.2z
	 M25.5,1.2c0,0,0-0.1,0-0.1c-1.9,0-3.7,0-5.6,0c0,0,0,0.1,0,0.1C21.8,1.2,23.6,1.2,25.5,1.2z M30.9,17.1c0,0,0,0.1,0,0.1
	c1.7,0,3.4,0,5.1,0c0,0,0-0.1,0-0.1C34.3,17.1,32.6,17.1,30.9,17.1z M37.4,24.8c0,0,0-0.1,0-0.1c-1.7,0-3.4,0-5.1,0c0,0,0,0.1,0,0.1
	C34,24.8,35.7,24.8,37.4,24.8z M35.8,17.8c0,0,0-0.1,0-0.1c-1.7,0-3.4,0-5,0c0,0,0,0.1,0,0.1C32.5,17.8,34.2,17.8,35.8,17.8z
	 M32.3,30.4c0,0,0,0.1,0,0.1c1.8,0,3.5,0,5.3,0c0,0,0-0.1,0-0.1C35.8,30.4,34,30.4,32.3,30.4z M27,50C27,50,27,50,27,50
	c1.7,0.1,3.3,0.1,5,0.1c0,0,0-0.1,0-0.1C30.4,50,28.7,50,27,50z M10.4,18.9c0,0,0,0.1,0,0.1c1.7,0,3.4,0,5.1,0c0,0,0-0.1,0-0.1
	C13.8,18.9,12.1,18.9,10.4,18.9z M35.8,39.2c0,0,0-0.1,0-0.1c-1.6,0-3.3,0-4.9,0c0,0,0,0.1,0,0.1C32.6,39.2,34.2,39.2,35.8,39.2z
	 M35.5,19.6c0,0,0-0.1,0-0.1c-1.6,0-3.3,0-4.9,0c0,0,0,0.1,0,0.1C32.2,19.6,33.9,19.6,35.5,19.6z M15.3,19.6c0,0,0-0.1,0-0.1
	c-1.6,0-3.3,0-4.9,0c0,0,0,0.1,0,0.1C12,19.6,13.6,19.6,15.3,19.6z M30.6,18.9c0,0,0,0.1,0,0.1c1.6,0,3.2,0,4.9,0c0,0,0-0.1,0-0.1
	C33.9,18.9,32.3,18.9,30.6,18.9z M15.1,35.7c0,0,0-0.1,0-0.1c-1.6,0-3.2,0-4.8,0c0,0,0,0.1,0,0.1C12,35.7,13.6,35.7,15.1,35.7z
	 M13.7,50c0,0,0,0.1,0,0.1c1.6,0,3.2,0,4.9,0c0,0,0-0.1,0-0.1C16.9,50,15.3,50,13.7,50z M31,16C31,16,31,16.1,31,16
	c1.6,0.1,3.2,0.1,4.9,0.1c0,0,0-0.1,0-0.1C34.2,16,32.6,16,31,16z M35.7,15.6c0,0,0-0.1,0-0.1c-1.6,0-3.2,0-4.7,0c0,0,0,0.1,0,0.1
	C32.6,15.6,34.1,15.6,35.7,15.6z M32.8,6.3c0,0,0-0.1,0-0.1c-1.6,0-3.1,0-4.7,0c0,0,0,0.1,0,0.1C29.6,6.3,31.2,6.3,32.8,6.3z
	 M11.5,2.9C11.5,2.9,11.5,2.8,11.5,2.9C9.9,2.8,8.3,2.8,6.8,2.8c0,0,0,0.1,0,0.1C8.3,2.9,9.9,2.9,11.5,2.9z M10.4,21.2
	c0,0,0,0.1,0,0.1c1.5,0,3,0,4.6,0c0,0,0-0.1,0-0.1C13.4,21.2,11.9,21.2,10.4,21.2z M10.4,20.6c0,0,0,0.1,0,0.1c1.6,0,3.1,0,4.7,0
	c0,0,0-0.1,0-0.1C13.5,20.6,12,20.6,10.4,20.6z M31,40.8c0,0,0,0.1,0,0.1c1.5,0,3,0,4.5,0c0,0,0-0.1,0-0.1
	C34,40.8,32.5,40.8,31,40.8z M6.9,3.3C6.9,3.3,6.9,3.4,6.9,3.3c1.7,0.1,3.4,0.1,5.1,0.1c0,0,0-0.1,0-0.1C10.3,3.3,8.6,3.3,6.9,3.3z
	 M33.1,6.9c0,0,0-0.1,0-0.1c-1.5,0-2.9,0-4.4,0c0,0,0,0.1,0,0.1C30.2,6.9,31.6,6.9,33.1,6.9z M35.3,41.4c0,0,0-0.1,0-0.1
	c-1.5,0-2.9,0-4.4,0c0,0,0,0.1,0,0.1C32.4,41.4,33.9,41.4,35.3,41.4z M31,13.7c0,0,0,0.1,0,0.1c1.5,0,2.9,0,4.4,0c0,0,0-0.1,0-0.1
	C33.9,13.7,32.4,13.7,31,13.7z M10.4,29.8c0,0,0,0.1,0,0.1c1.4,0,2.8,0,4.2,0c0,0,0-0.1,0-0.1C13.2,29.8,11.8,29.8,10.4,29.8z
	 M10.5,33.8c0,0,0,0.1,0,0.1c1.4,0,2.8,0,4.2,0c0,0,0-0.1,0-0.1C13.3,33.8,11.9,33.8,10.5,33.8z M22.2,51.3
	C22.2,51.3,22.2,51.2,22.2,51.3c-2.6-0.1-5.2-0.1-7.8-0.1c0,0,0,0.1,0,0.1C17,51.3,19.6,51.3,22.2,51.3z M10.4,32.1c0,0,0,0.1,0,0.1
	c1.4,0,2.8,0,4.2,0c0,0,0-0.1,0-0.1C13.2,32.1,11.8,32.1,10.4,32.1z M14.8,33.4C14.8,33.4,14.8,33.3,14.8,33.4
	c-1.5-0.1-2.9-0.1-4.4-0.1c0,0,0,0.1,0,0.1C11.8,33.4,13.3,33.4,14.8,33.4z M37,22.5C37,22.4,37,22.4,37,22.5
	c-2.4-0.1-4.8-0.1-7.2-0.1c0,0,0,0,0,0.1C32.1,22.5,34.6,22.5,37,22.5z M10.4,31.5c0,0,0,0.1,0,0.1c1.4,0,2.8,0,4.2,0
	c0,0,0-0.1,0-0.1C13.2,31.5,11.8,31.5,10.4,31.5z M10.4,30.4c0,0,0,0.1,0,0.1c1.4,0,2.8,0,4.2,0c0,0,0-0.1,0-0.1
	C13.2,30.4,11.8,30.4,10.4,30.4z M28.9,48.2c0,0,0,0.1,0,0.1c1.4,0,2.8,0,4.2,0c0,0,0-0.1,0-0.1C31.7,48.2,30.3,48.2,28.9,48.2z
	 M29.4,7.9c0,0,0,0.1,0,0.1c1.4,0,2.8,0,4.2,0c0,0,0-0.1,0-0.1C32.2,7.9,30.8,7.9,29.4,7.9z M33.9,8.6c0,0,0-0.1,0-0.1
	c-1.4,0-2.8,0-4.2,0c0,0,0,0.1,0,0.1C31.1,8.6,32.5,8.6,33.9,8.6z M12.2,51.9C12.2,51.8,12.2,51.8,12.2,51.9c-1.3-0.1-2.7-0.1-4-0.1
	c0,0,0,0.1,0,0.1C9.5,51.9,10.8,51.9,12.2,51.9z M23.7,51.2c0,0,0,0.1,0,0.1c2.5,0,5,0,7.4,0c0,0,0-0.1,0-0.1
	C28.6,51.2,26.1,51.2,23.7,51.2z M12.7,4.6c0,0,0-0.1,0-0.1c-1.2,0-2.5,0-3.7,0c0,0,0,0.1,0,0.1C10.2,4.6,11.5,4.6,12.7,4.6z
	 M30.9,37.9c0,0,0,0.1,0,0.1c1.7,0,3.4,0,5.2,0c0,0,0-0.1,0-0.1C34.3,37.9,32.6,37.9,30.9,37.9z M29.7,32.7
	C29.7,32.7,29.7,32.8,29.7,32.7c2.5,0.1,4.9,0.1,7.3,0.1c0,0,0-0.1,0-0.1C34.5,32.7,32.1,32.7,29.7,32.7z M10.3,48.9
	C10.3,48.9,10.3,48.9,10.3,48.9c2.3,0.1,4.7,0.1,7.1,0.1c0,0,0,0,0-0.1C15,48.9,12.7,48.9,10.3,48.9z M30,21.8
	C30,21.8,30,21.8,30,21.8c2.3,0.1,4.6,0.1,6.8,0.1c0,0,0-0.1,0-0.1C34.5,21.8,32.3,21.8,30,21.8z M11.3,22.9
	C11.3,22.9,11.2,23,11.3,22.9c1.1,0.1,2.3,0.1,3.5,0.1c0,0,0-0.1,0-0.1C13.6,22.9,12.4,22.9,11.3,22.9z M9.5,5c0,0,0,0.1,0,0.1
	c1.1,0,2.2,0,3.3,0c0,0,0-0.1,0-0.1C11.7,5,10.6,5,9.5,5z M10.5,39.6C10.5,39.6,10.5,39.7,10.5,39.6c2.2,0.1,4.4,0.1,6.6,0.1
	c0,0,0-0.1,0-0.1C14.9,39.6,12.7,39.6,10.5,39.6z M16.8,47.8C16.8,47.8,16.8,47.7,16.8,47.8c-2.1-0.1-4.2-0.1-6.3-0.1
	c0,0,0,0.1,0,0.1C12.6,47.8,14.7,47.8,16.8,47.8z M16.9,40.3C16.9,40.3,16.9,40.2,16.9,40.3c-2.1-0.1-4.3-0.1-6.4-0.1c0,0,0,0,0,0.1
	C12.6,40.3,14.7,40.3,16.9,40.3z M16.7,15c0,0,0-0.1,0-0.1c-2.1,0-4.2,0-6.2,0c0,0,0,0.1,0,0.1C12.5,15,14.6,15,16.7,15z M37.5,25.3
	c0,0,0-0.1,0-0.1c-1.2,0-2.4,0-3.6,0c0,0,0,0.1,0,0.1C35.1,25.3,36.3,25.3,37.5,25.3z M16.9,7.5C16.9,7.4,16.9,7.4,16.9,7.5
	c-2.1-0.1-4.3-0.1-6.4-0.1c0,0,0,0.1,0,0.1C12.6,7.5,14.7,7.5,16.9,7.5z M12.9,50.1c0,0,0-0.1,0-0.1c-1.1,0-2.1,0-3.1,0
	c0,0,0,0.1,0,0.1C10.8,50.1,11.8,50.1,12.9,50.1z M30.3,34.4C30.3,34.4,30.3,34.5,30.3,34.4c2.1,0.1,4.2,0.1,6.3,0.1c0,0,0,0,0-0.1
	C34.5,34.4,32.4,34.4,30.3,34.4z M34.6,29.8c0,0,0,0.1,0,0.1c1,0,2.1,0,3.1,0c0,0,0-0.1,0-0.1C36.7,29.8,35.6,29.8,34.6,29.8z
	 M10.7,2.3c0,0,0-0.1,0-0.1c-1,0-2,0-3,0c0,0,0,0.1,0,0.1C8.8,2.3,9.8,2.3,10.7,2.3z M30.3,35C30.3,35,30.3,35.1,30.3,35
	c2,0.1,4.1,0.1,6.1,0.1c0,0,0-0.1,0-0.1C34.4,35,32.4,35,30.3,35z M16.6,47.2C16.6,47.2,16.6,47.1,16.6,47.2c-2-0.1-4-0.1-6.1-0.1
	c0,0,0,0,0,0.1C12.5,47.2,14.6,47.2,16.6,47.2z M16.1,13.2C16.1,13.2,16.2,13.2,16.1,13.2c-1.9-0.1-3.8-0.1-5.8-0.1c0,0,0,0.1,0,0.1
	C12.3,13.2,14.2,13.2,16.1,13.2z M16.4,14.4C16.4,14.3,16.4,14.3,16.4,14.4c-2-0.1-3.9-0.1-5.9-0.1c0,0,0,0.1,0,0.1
	C12.5,14.4,14.4,14.4,16.4,14.4z M10.5,46C10.5,46,10.5,46,10.5,46c1.9,0.1,3.9,0.1,5.8,0.1c0,0,0-0.1,0-0.1
	C14.4,46,12.4,46,10.5,46z M35.5,28.1c0,0,0,0.1,0,0.1c0.9,0,1.9,0,2.8,0c0,0,0-0.1,0-0.1C37.3,28.1,36.4,28.1,35.5,28.1z
	 M10.5,16.6C10.5,16.6,10.5,16.6,10.5,16.6c2,0.1,4,0.1,6,0.1c0,0,0,0,0-0.1C14.4,16.6,12.4,16.6,10.5,16.6z M13.9,50.6
	C13.9,50.6,13.9,50.6,13.9,50.6c1.8,0.1,3.7,0.1,5.5,0.1c0,0,0,0,0-0.1C17.6,50.6,15.8,50.6,13.9,50.6z M10.5,9.1
	C10.5,9.1,10.5,9.2,10.5,9.1c1.9,0.1,3.9,0.1,5.8,0.1c0,0,0-0.1,0-0.1C14.3,9.1,12.4,9.1,10.5,9.1z M16.2,42
	C16.2,42,16.2,42,16.2,42c-1.9-0.1-3.8-0.1-5.8-0.1c0,0,0,0,0,0.1C12.4,42,14.3,42,16.2,42z M35.3,28.6c0,0,0,0.1,0,0.1
	c0.9,0,1.9,0,2.8,0c0,0,0-0.1,0-0.1C37.2,28.6,36.2,28.6,35.3,28.6z M16,38.6C16,38.5,16,38.5,16,38.6c-1.8-0.1-3.7-0.1-5.5-0.1
	c0,0,0,0.1,0,0.1C12.4,38.6,14.2,38.6,16,38.6z M31.6,50.7C31.6,50.6,31.6,50.6,31.6,50.7c-1.8-0.1-3.7-0.1-5.5-0.1c0,0,0,0.1,0,0.1
	C27.9,50.7,29.7,50.7,31.6,50.7z M16.1,12.6C16,12.6,16,12.6,16.1,12.6c-1.9-0.1-3.7-0.1-5.6-0.1c0,0,0,0.1,0,0.1
	C12.3,12.6,14.2,12.6,16.1,12.6z M16,10.9C16,10.9,16,10.8,16,10.9c-1.9-0.1-3.7-0.1-5.6-0.1c0,0,0,0.1,0,0.1
	C12.3,10.9,14.2,10.9,16,10.9z M10.5,43.7C10.5,43.7,10.5,43.7,10.5,43.7c1.9,0.1,3.7,0.1,5.6,0.1c0,0,0,0,0-0.1
	C14.2,43.7,12.3,43.7,10.5,43.7z M30.7,36.2C30.7,36.2,30.7,36.2,30.7,36.2c1.9,0.1,3.7,0.1,5.6,0.1c0,0,0-0.1,0-0.1
	C34.4,36.2,32.6,36.2,30.7,36.2z M16,45.5C16,45.5,16,45.4,16,45.5c-1.8-0.1-3.6-0.1-5.5-0.1c0,0,0,0,0,0.1
	C12.3,45.5,14.1,45.5,16,45.5z M10.5,37.9c0,0,0,0.1,0,0.1c1.7,0,3.5,0,5.2,0c0,0,0-0.1,0-0.1C14,37.9,12.2,37.9,10.5,37.9z
	 M35.2,26.4c0,0,0,0.1,0,0.1c0.9,0,1.8,0,2.7,0c0,0,0-0.1,0-0.1C37,26.4,36.1,26.4,35.2,26.4z M14.8,22.5c0,0,0-0.1,0-0.1
	c-1.5,0-2.9,0-4.4,0c0,0,0,0.1,0,0.1C11.9,22.5,13.3,22.5,14.8,22.5z M36.1,36.8C36.1,36.8,36.1,36.8,36.1,36.8
	c-1.8-0.1-3.6-0.1-5.4-0.1c0,0,0,0.1,0,0.1C32.5,36.8,34.3,36.8,36.1,36.8z M37.4,24.2c0,0,0-0.1,0-0.1c-1.7,0-3.3,0-5,0
	c0,0,0,0.1,0,0.1C34,24.2,35.7,24.2,37.4,24.2z M11.7,52.4C11.7,52.4,11.7,52.4,11.7,52.4c-1.7-0.1-3.5-0.1-5.2-0.1c0,0,0,0,0,0.1
	C8.2,52.4,10,52.4,11.7,52.4z M35.3,13.3c0,0,0-0.1,0-0.1c-1.3,0-2.7,0-4,0c0,0,0,0.1,0,0.1C32.7,13.3,34,13.3,35.3,13.3z
	 M37.1,23.6C37.1,23.6,37.1,23.5,37.1,23.6c-1.7-0.1-3.4-0.1-5-0.1c0,0,0,0.1,0,0.1C33.8,23.6,35.4,23.6,37.1,23.6z M30.5,20
	C30.5,20.1,30.5,20.1,30.5,20c1.7,0.1,3.4,0.1,5.1,0.1c0,0,0-0.1,0-0.1C33.9,20,32.2,20,30.5,20z M35.4,14.4c0,0,0-0.1,0.1-0.1
	c-1.4,0-2.8,0-4.3,0c0,0,0,0.1,0,0.1C32.6,14.4,34,14.4,35.4,14.4z M10.5,18.3C10.5,18.3,10.5,18.4,10.5,18.3
	c1.7,0.1,3.4,0.1,5.1,0.1c0,0,0-0.1,0-0.1C13.9,18.3,12.2,18.3,10.5,18.3z M37.3,31.1C37.3,31,37.3,31,37.3,31.1
	C35.6,31,33.9,31,32.2,31c0,0,0,0.1,0,0.1C33.9,31.1,35.6,31.1,37.3,31.1z M15.3,36.8C15.3,36.8,15.3,36.8,15.3,36.8
	c-1.6-0.1-3.3-0.1-4.9-0.1c0,0,0,0.1,0,0.1C12.1,36.8,13.7,36.8,15.3,36.8z M27.4,5.6C27.4,5.7,27.4,5.7,27.4,5.6
	c1.6,0.1,3.3,0.1,4.9,0.1c0,0,0-0.1,0-0.1C30.7,5.6,29,5.6,27.4,5.6z M35.9,16.7C35.9,16.6,35.9,16.6,35.9,16.7
	c-1.6-0.1-3.2-0.1-4.9-0.1c0,0,0,0.1,0,0.1C32.6,16.7,34.3,16.7,35.9,16.7z M31,38.5C31,38.5,31,38.5,31,38.5
	c1.6,0.1,3.1,0.1,4.7,0.1c0,0,0,0,0-0.1C34.2,38.5,32.6,38.5,31,38.5z M15.2,20.1C15.2,20.1,15.2,20.1,15.2,20.1
	c-1.6-0.1-3.1-0.1-4.7-0.1c0,0,0,0,0,0.1C12.1,20.1,13.6,20.1,15.2,20.1z M35.5,18.4C35.5,18.4,35.6,18.4,35.5,18.4
	c-1.5-0.1-3.1-0.1-4.6-0.1c0,0,0,0.1,0,0.1C32.4,18.4,34,18.4,35.5,18.4z M10.6,36.2C10.5,36.2,10.5,36.2,10.6,36.2
	c1.5,0.1,3.1,0.1,4.6,0.1c0,0,0-0.1,0-0.1C13.6,36.2,12.1,36.2,10.6,36.2z M31,14.8c0,0,0,0.1,0,0.1c1.5,0,3,0,4.5,0
	c0,0,0-0.1,0-0.1C34.1,14.8,32.5,14.8,31,14.8z M31.1,39.6C31.1,39.7,31.1,39.7,31.1,39.6c1.5,0.1,3,0.1,4.5,0.1c0,0,0-0.1,0-0.1
	C34.1,39.6,32.6,39.6,31.1,39.6z M33.2,47.8C33.2,47.8,33.2,47.7,33.2,47.8c-1.3-0.1-2.7-0.1-4-0.1c0,0,0,0.1,0,0.1
	C30.5,47.8,31.9,47.8,33.2,47.8z M35.5,40.3C35.5,40.3,35.6,40.2,35.5,40.3c-1.5-0.1-3-0.1-4.5-0.1c0,0,0,0,0,0.1
	C32.6,40.3,34.1,40.3,35.5,40.3z M32.4,49.5C32.4,49.5,32.4,49.4,32.4,49.5c-1.5-0.1-3-0.1-4.5-0.1c0,0,0,0.1,0,0.1
	C29.4,49.5,30.9,49.5,32.4,49.5z M13.7,5.6C13.7,5.7,13.7,5.7,13.7,5.6c1.5,0.1,3,0.1,4.6,0.1c0,0,0-0.1,0-0.1
	C16.8,5.6,15.3,5.6,13.7,5.6z M28.5,48.9C28.5,48.9,28.5,48.9,28.5,48.9c1.4,0.1,2.8,0.1,4.3,0.1c0,0,0-0.1,0-0.1
	C31.4,48.9,29.9,48.9,28.5,48.9z M15,35.1C15,35.1,15,35.1,15,35.1C13.5,35,12.1,35,10.7,35c0,0,0,0.1,0,0.1
	C12.1,35.1,13.6,35.1,15,35.1z M14.8,21.9C14.8,21.8,14.8,21.8,14.8,21.9c-1.5-0.1-2.9-0.1-4.4-0.1c0,0,0,0.1,0,0.1
	C11.9,21.9,13.4,21.9,14.8,21.9z M14.9,34.5C14.9,34.5,14.9,34.5,14.9,34.5c-1.4-0.1-2.8-0.1-4.2-0.1c0,0,0,0.1,0,0.1
	C12,34.5,13.4,34.5,14.9,34.5z M10.5,32.7C10.5,32.7,10.5,32.8,10.5,32.7c1.4,0.1,2.8,0.1,4.2,0.1c0,0,0,0,0-0.1
	C13.2,32.7,11.9,32.7,10.5,32.7z M8.2,53.4c0,0,0,0.1,0,0.1c0.7,0,1.4,0,2.2,0c0,0,0-0.1,0-0.1C9.7,53.4,8.9,53.4,8.2,53.4z
	 M29.1,7.4C29.1,7.4,29.1,7.4,29.1,7.4c1.4,0.1,2.8,0.1,4.2,0.1c0,0,0,0,0-0.1C31.9,7.4,30.5,7.4,29.1,7.4z M17.8,49.5
	C17.8,49.5,17.8,49.4,17.8,49.5c-1.3-0.1-2.7-0.1-4-0.1c0,0,0,0.1,0,0.1C15.1,49.5,16.4,49.5,17.8,49.5z M7.2,52.9
	C7.2,52.9,7.2,52.9,7.2,52.9c1.3,0.1,2.7,0.1,4,0.1c0,0,0,0,0-0.1C9.8,52.9,8.5,52.9,7.2,52.9z M10.5,31C10.5,31,10.5,31,10.5,31
	c1.4,0.1,2.7,0.1,4.1,0.1c0,0,0-0.1,0-0.1C13.2,31,11.8,31,10.5,31z M29.7,47.1C29.7,47.1,29.7,47.2,29.7,47.1
	c1.3,0.1,2.5,0.1,3.8,0.1c0,0,0-0.1,0-0.1C32.2,47.1,31,47.1,29.7,47.1z M12.2,4C12.2,4,12.2,4,12.2,4C11,3.9,9.7,3.9,8.5,3.9
	c0,0,0,0.1,0,0.1C9.7,4,11,4,12.2,4z"/>
<path class="st0" d="M31.4,26.3c0.4-0.1,0.7-0.2,1.1-0.2c0.6,0,1.4-0.2,1.9,0.1c0.4,0.2,0.5,1,0.8,1.7c-4.4-0.1-8,1.2-10.7,4.4
	c-0.9,1-1.3,1.8-1.3,2.8c1.6-3.1,3.9-5.2,7-6.2c1.5-0.5,3-0.7,4.5-0.4c-2.5,0.2-4.9,0.6-7.1,2c-2.2,1.4-3.6,3.4-4.7,6
	c-0.7-2.3-1.9-3.9-3.6-5.2c-2.1-1.5-4.6-2.4-7.1-2.7c-4.6-0.5-8.6-3.8-9.7-8C1.4,16.2,4.7,11,9.2,10.2c0.2,0,0.4,0,0.7,0
	c0.3,1.4,0.2,1.5-1,2c-4.4,1.8-4.5,6.9-2.4,9.2c0.3,0.3,0.6,0.5,0.9,0.7c-1.9-2.2-2.6-4.5-1.2-7.1c0.8-1.4,2.5-2.6,3.9-2.5
	c-0.4,0.2-0.6,0.3-0.8,0.4c-2.3,1-3.5,2.7-3.5,5c0,2.2,1.4,4.2,3.7,5c3.5,1.2,6.8,1,9.9-1.2c1.9-1.4,2.7-3.4,3.3-5.6
	c0.1-0.2,0.1-0.5,0.2-0.8c0.9,3.3,2,5.4,6.2,7.4c-0.1,0.2-0.2,0.3-0.3,0.5c0,0.2,0,0.4,0.1,0.5c0.1,0.1,0.4,0.1,0.6,0.1
	c0.4,0,0.7-0.2,1.1-0.2c1,0,1.5,0.7,1.2,1.7C31.7,25.5,31.5,25.9,31.4,26.3c-3.5-0.6-6.5-2-8.6-5.2c-1.9,4-5.5,4.8-9.3,5.1
	c4.1,0.2,7.3,1.8,9.3,5.4c0.2-0.4,0.4-0.8,0.8-1.2c1.9-2.2,4.3-3.6,7.2-3.9C31.1,26.4,31.2,26.3,31.4,26.3z M19.4,30.8
	C19.4,30.7,19.4,30.7,19.4,30.8c-0.3-0.4-0.7-0.8-1.1-1c-1.3-0.5-2.6-1.1-3.9-1.5c-2-0.6-4.2-0.7-6.1-1.7c-0.8-0.5-1.7-0.9-2.5-1.4
	c-0.1,0.1-0.1,0.2-0.2,0.2c0.2,0.1,0.4,0.1,0.5,0.2c1.5,1.2,3.2,2,5.1,2.4c1.5,0.3,3.1,0.6,4.6,1.1C17,29.5,18.2,30.2,19.4,30.8z
	 M15.7,25.5c2.7-0.5,5.1-1.4,6.4-4.1C20.5,23.6,18.1,24.6,15.7,25.5z M23,17.4c0,1.2,1,2.7,2,3C24.3,19.4,23.6,18.4,23,17.4z"/>
<path class="st0" d="M23,49.9c-0.9-0.8-1.7-1.7-2.6-2.3c-0.9-0.6-2.1-0.8-3.1-1.2c0-0.1,0.1-0.2,0.1-0.3c1.1,0.4,2.2,0.7,3.4,1.2
	c-0.2-0.2-0.4-0.4-0.5-0.5c-0.7-0.3-1.5-0.7-2.2-0.8c-0.8-0.1-1-0.6-1-1.3c-0.1-2,0.4-3.8,1.7-5.2c0.5,1,0.9,2.1,1.6,2.9
	c0.7,0.9,1.9,1.1,3.1,1c1.8-0.1,2.9-1.3,3.5-4c1.4,1.5,3.1,2.4,5,2.8c2.6,0.5,5.1,0.7,7.4-0.9c3.9-2.8,4.2-9.1-0.2-11.5
	c-0.1,0-0.2-0.1-0.2-0.2c0.1-0.1,0.1-0.2,0.2-0.2c0.5,0.3,1,0.6,1.5,1c0,0,0.1,0,0.1-0.1c-0.2-0.2-0.5-0.5-0.7-0.7
	c-0.3-0.2-0.5-0.4-0.8-0.6c0.4-1.6-0.8-2.9-0.8-4.5c1.5,0.2,2.9,0.8,4.3,1.6c6.3,3.8,5.5,10.7,2.5,15c-2.3,3.2-5.5,4.5-9.3,4.8
	c-2.4,0.2-4.8,0.4-7.1,0.7C26.3,46.9,24.1,47.8,23,49.9z M23.2,48.8c1.8-2,4.2-2.6,6.7-2.9c2.1-0.3,4.2-0.3,6.4-0.5
	c5.1-0.5,9.2-3.4,10.3-8.7c0.6-3,0.4-5.8-1.7-8.2c-0.2-0.2-0.4-0.4-0.6-0.6c0.4,0.8,0.9,1.5,1.3,2.3c1.7,3.4,1.1,6.7-0.7,9.8
	c-2.2,3.7-5.9,4.9-10,5.2c-2.3,0.2-4.6,0.4-6.8,0.7C26.1,46.2,24.3,47,23.2,48.8z M19.7,42.4c-0.4-0.7-0.7-1.4-1.1-2.1
	C18.5,41.3,18.8,42,19.7,42.4z"/>
<path class="st0" d="M39.9,19.5c1.5-1.2,1.6-3.5,0.2-4.9c-1.6-1.5-3.6-2-5.6-2.3c-2.8-0.4-5.3,0.4-7.5,2.5c-0.3-2.4-1.6-3.7-3.9-3.7
	c-2.3,0-3.7,1.2-4.1,3.6c-0.7-0.6-1.4-1.1-2.1-1.7c0.3,0,0.5,0,0.6,0c0-0.1,0-0.1,0-0.2C17.3,12.4,17,12,17,11.6
	c0-0.7,0.2-1.4,0.3-2.1c0.1-0.6,0.4-0.8,0.9-1c2-0.5,3.6-1.7,4.6-3.5C22.8,5,22.9,5,23,5.1c1.4,2.4,3.7,3.4,6.3,3.8
	c2.8,0.5,5.6,0.8,8.3,1.5c2.3,0.5,4.4,1.7,5.4,4.1c0.8,1.8,0.8,3.7-0.2,5.4c-1.2,2-3.9,2.5-5.6,1.1c-0.8-0.6-1.1-1.5-1-2.5
	c0.1-0.8,0.6-1.2,1.3-1.4c1.5-0.5,2.7,0.5,2.4,2.1C39.9,19.3,39.9,19.4,39.9,19.5z M41,14.9c-1.6-2.6-4.3-3.1-7-3.4
	c-2.6-0.3-5.4,0.7-6.1,2C32.6,10.9,37.6,11.5,41,14.9z M41,12.8c0.2,0.2,0.3,0.5,0.5,0.7c1,1.2,1.3,2.7,1.2,4.2
	c-0.2,2.3-1.8,3.6-4.1,3.2c-0.4-0.1-0.7-0.1-1.2-0.2c1.5,1.1,3.7,0.7,4.9-0.7C43.7,18,43.1,14.2,41,12.8z M25.5,11.3
	c-1.1-1.1-2.5-1.2-4-0.8c-1.4,0.4-2.6,1.2-2.9,2.9C21.4,10.4,22.2,10.2,25.5,11.3z"/>
<path class="st0" d="M9.8,45.2c-4.6,0-9.2-3-9.3-8.4c-0.1-2.6,0.8-4.6,3.2-5.8c2.1-1,4.4-0.4,5.5,1.4c1,1.7,0.4,3.6-1.3,4.2
	c-1.5,0.5-3-0.6-3-2.2c0-0.3,0.1-0.6-0.1-1.1C4.4,33.7,4,34,3.9,34.4c-1.3,3.3,1,7,4.5,7.5c1.9,0.3,1.5-0.1,1.5,1.8
	c0,0.3-0.1,0.6-0.1,1c-1.8-0.5-3.5-1-5.2-1.4C6.2,44.4,8,44.7,9.8,45.2z M4.3,33c-1.1,0.4-1.3,1.3-1.5,2.2c-0.4,2.2,0.5,4.9,2.2,5.7
	C3.1,38.4,2.3,35.9,4.3,33z M5.7,35.6c0.9,0.9,2.1,0.9,3-0.1c0.6-0.7,0.8-2.5-0.4-3.5c0.2,1,0.9,2,0.2,3C7.8,36.1,6.8,36.1,5.7,35.6
	z"/>
<path class="st1" d="M14.9,51.7c5.2,0,10.4,0,15.6,0c0,0,0,0.1,0,0.1c-5.2,0-10.4,0-15.6,0C14.9,51.8,14.9,51.8,14.9,51.7z"/>
<path class="st1" d="M15.3,3.3c5,0,10,0,15,0c0,0,0,0.1,0,0.1c-5,0-10,0-14.9,0C15.3,3.4,15.3,3.3,15.3,3.3z"/>
<path class="st1" d="M22.9,2.9c5.3,0,9.6,0,9.6-0.1c0,0-4.3-0.1-9.6-0.1s-9.6,0-9.6,0.1C13.3,2.9,17.6,2.9,22.9,2.9z"/>
<path class="st1" d="M17.1,2.2c3.9,0,7.8,0,11.6,0c0,0,0,0.1,0,0.1c-3.9,0-7.8,0-11.6,0C17.1,2.3,17.1,2.2,17.1,2.2z"/>
<path class="st1" d="M14.8,3.9c5.4,0,10.8,0,16.1,0c0,0,0,0.1,0,0.1c-5.4,0-10.8,0-16.1,0C14.8,4,14.8,4,14.8,3.9z"/>
<path class="st1" d="M10,6.2c2.6,0,5.2,0,7.8,0c0,0,0,0.1,0,0.1C15.2,6.3,12.6,6.3,10,6.2C10,6.3,10,6.2,10,6.2z"/>
<path class="st1" d="M17.4,6.9c-2.4,0-4.8,0-7.2,0c0,0,0-0.1,0-0.1c2.4,0,4.8,0,7.2,0C17.4,6.8,17.4,6.9,17.4,6.9z"/>
<path class="st1" d="M31.5,4.6c-2.3,0-4.7,0-7,0c0,0,0-0.1,0-0.1c2.3,0,4.7,0,7,0C31.5,4.5,31.5,4.5,31.5,4.6z"/>
<path class="st1" d="M17.2,48.4c-2.3,0-4.5,0-6.8,0c0,0,0-0.1,0-0.1c2.3,0,4.5,0,6.8,0C17.2,48.3,17.2,48.3,17.2,48.4z"/>
<path class="st1" d="M13.7,15.6c2.6,0,4.7,0,4.7-0.1s-2.1-0.1-4.7-0.1S9,15.4,9,15.5S11.1,15.6,13.7,15.6z"/>
<path class="st1" d="M30,33.8c2.2,0,4.5,0,6.7,0c0,0,0,0.1,0,0.1c-2.2,0-4.5,0-6.7,0C30,33.9,30,33.9,30,33.8z"/>
<path class="st1" d="M16.8,7.9c0,0,0,0.1,0,0.1c-2.1,0-4.3,0-6.4,0c0,0,0-0.1,0-0.1"/>
<path class="st1" d="M30.2,21.2c2.1,0,4.2,0,6.3,0c0,0,0,0.1,0,0.1c-2.1,0-4.2,0-6.3,0C30.2,21.2,30.2,21.2,30.2,21.2z"/>
<path class="st1" d="M14,4.5c2.2,0,4.3,0,6.5,0c0,0,0,0.1,0,0.1c-2.2,0-4.3,0-6.5,0C14,4.5,14,4.5,14,4.5z"/>
<path class="st1" d="M29.8,33.3c2.3,0,4.7,0,7,0c0,0,0,0.1,0,0.1c-2.3,0-4.7,0-7,0C29.8,33.4,29.8,33.3,29.8,33.3z"/>
<path class="st1" d="M13.5,40.9c2.4,0,4.4,0,4.4-0.1c0-0.1-2-0.1-4.4-0.1c-2.4,0-4.4,0-4.4,0.1C9.1,40.9,11.1,40.9,13.5,40.9z"/>
<path class="st1" d="M10.4,16c2.2,0,4.3,0,6.5,0c0,0,0,0.1,0,0.1C14.7,16.1,12.5,16.1,10.4,16C10.4,16,10.4,16,10.4,16z"/>
<path class="st1" d="M10.4,8.5c2.1,0,4.1,0,6.1,0c0,0,0,0.1,0,0.1c-2.1,0-4.1,0-6.2,0C10.4,8.6,10.4,8.5,10.4,8.5z"/>
<path class="st1" d="M10.4,46.5c2,0,4,0,6.1,0c0,0,0,0.1,0,0.1C14.5,46.6,12.4,46.6,10.4,46.5C10.4,46.6,10.4,46.5,10.4,46.5z"/>
<path class="st1" d="M16.5,39.2c-2,0-4.1,0-6.1,0c0,0,0-0.1,0-0.1c2,0,4.1,0,6.1,0C16.5,39.1,16.5,39.1,16.5,39.2z"/>
<path class="st1" d="M16.3,13.8c-2,0-4,0-6,0c0,0,0-0.1,0-0.1c2,0,4,0,6,0C16.3,13.8,16.3,13.8,16.3,13.8z"/>
<path class="st1" d="M37.1,23c-2,0-4,0-6,0c0,0,0-0.1,0-0.1c2,0,4,0,6,0C37.1,22.9,37.1,23,37.1,23z"/>
<path class="st1" d="M16.3,41.4c-2,0-4,0-5.9,0c0,0,0-0.1,0-0.1c2,0,4,0,5.9,0C16.3,41.4,16.3,41.4,16.3,41.4z"/>
<path class="st1" d="M30.5,35.6c2,0,4,0,6,0c0,0,0,0.1,0,0.1c-2,0-4,0-6,0C30.4,35.6,30.5,35.6,30.5,35.6z"/>
<path class="st1" d="M16.2,17.3c-1.9,0-3.9,0-5.8,0c0,0,0-0.1,0-0.1c1.9,0,3.9,0,5.8,0C16.2,17.2,16.2,17.3,16.2,17.3z"/>
<path class="st1" d="M16.2,10.4c-1.9,0-3.9,0-5.8,0c0,0,0-0.1,0-0.1c1.9,0,3.9,0,5.8,0C16.2,10.3,16.2,10.3,16.2,10.4z"/>
<path class="st1" d="M10.4,11.9c1.9,0,3.9,0,5.8,0c0,0,0,0.1,0,0.1c-1.9,0-3.9,0-5.8,0C10.4,12,10.4,12,10.4,11.9z"/>
<path class="st1" d="M10.4,44.8c1.9,0,3.8,0,5.8,0c0,0,0,0.1,0,0.1c-1.9,0-3.8,0-5.8,0C10.4,44.9,10.4,44.8,10.4,44.8z"/>
<path class="st1" d="M30.3,20.6c1.9,0,3.9,0,5.8,0c0,0,0,0.1,0,0.1c-1.9,0-3.9,0-5.8,0C30.3,20.7,30.3,20.6,30.3,20.6z"/>
<path class="st1" d="M13.3,43.2c2.2,0,4,0,4-0.1c0,0-1.8-0.1-4-0.1s-4,0-4,0.1C9.2,43.2,11,43.2,13.3,43.2z"/>
<path class="st1" d="M13.3,9.8c2.3,0,4.1,0,4.1-0.1c0,0-1.8-0.1-4.1-0.1c-2.3,0-4.1,0-4.1,0.1C9.2,9.8,11.1,9.8,13.3,9.8z"/>
<path class="st1" d="M13.3,44.4c2.2,0,4,0,4-0.1c0,0-1.8-0.1-4-0.1c-2.2,0-4,0-4,0.1C9.2,44.3,11,44.4,13.3,44.4z"/>
<path class="st1" d="M22.9,1.7c3.5,0,6.4,0,6.4-0.1s-2.9-0.1-6.4-0.1c-3.5,0-6.4,0-6.4,0.1S19.4,1.7,22.9,1.7z"/>
<path class="st1" d="M10.4,11.4c1.9,0,3.8,0,5.7,0c0,0,0,0.1,0,0.1c-1.9,0-3.8,0-5.7,0C10.4,11.5,10.4,11.4,10.4,11.4z"/>
<path class="st1" d="M13.3,42.6c2.2,0,4,0,4-0.1c0,0-1.8-0.1-4-0.1c-2.2,0-4,0-4,0.1C9.2,42.6,11,42.6,13.3,42.6z"/>
<path class="st1" d="M31.5,32.1c1.9,0,3.7,0,5.6,0c0,0,0,0.1,0,0.1c-1.9,0-3.7,0-5.6,0C31.5,32.2,31.5,32.1,31.5,32.1z"/>
<path class="st1" d="M32,5.2c-1.9,0-3.7,0-5.6,0c0,0,0-0.1,0-0.1c1.9,0,3.7,0,5.6,0C32,5.1,32,5.1,32,5.2z"/>
<path class="st1" d="M33.5,37.5c2.1,0,3.8,0,3.8-0.1c0,0-1.7-0.1-3.8-0.1s-3.8,0-3.8,0.1C29.6,37.4,31.4,37.5,33.5,37.5z"/>
<path class="st1" d="M10.4,17.7c1.8,0,3.6,0,5.4,0c0,0,0,0.1,0,0.1c-1.8,0-3.6,0-5.4,0C10.4,17.8,10.4,17.7,10.4,17.7z"/>
<path class="st1" d="M10.4,37.3c1.8,0,3.5,0,5.3,0c0,0,0,0.1,0,0.1c-1.8,0-3.5,0-5.3,0C10.4,37.4,10.4,37.3,10.4,37.3z"/>
<path class="st1" d="M37.2,31.7c-1.8,0-3.5,0-5.3,0c0,0,0-0.1,0-0.1C33.7,31.6,35.5,31.6,37.2,31.7C37.2,31.6,37.2,31.7,37.2,31.7z"
	/>
<path class="st1" d="M19.1,5.2c-1.8,0-3.6,0-5.4,0c0,0,0-0.1,0-0.1c1.8,0,3.6,0,5.4,0C19.1,5.1,19.1,5.1,19.1,5.2z"/>
<path class="st1" d="M25.5,1.2c-1.9,0-3.7,0-5.6,0c0,0,0-0.1,0-0.1c1.9,0,3.7,0,5.6,0C25.5,1.1,25.5,1.2,25.5,1.2z"/>
<path class="st1" d="M30.9,17.1c1.7,0,3.4,0,5.1,0c0,0,0,0.1,0,0.1c-1.7,0-3.4,0-5.1,0C30.9,17.2,30.9,17.2,30.9,17.1z"/>
<path class="st1" d="M37.4,24.8c-1.7,0-3.4,0-5.1,0c0,0,0-0.1,0-0.1c1.7,0,3.4,0,5.1,0C37.4,24.7,37.4,24.7,37.4,24.8z"/>
<path class="st1" d="M35.8,17.8c-1.7,0-3.4,0-5,0c0,0,0-0.1,0-0.1c1.7,0,3.4,0,5,0C35.9,17.8,35.8,17.8,35.8,17.8z"/>
<path class="st1" d="M34.9,30.5c2.1,0,3.7,0,3.7-0.1s-1.7-0.1-3.7-0.1c-2.1,0-3.7,0-3.7,0.1S32.8,30.5,34.9,30.5z"/>
<path class="st1" d="M27,50c1.7,0,3.3,0,5,0c0,0,0,0.1,0,0.1C30.4,50.1,28.7,50.1,27,50C27,50.1,27,50,27,50z"/>
<path class="st1" d="M10.4,18.9c1.7,0,3.4,0,5.1,0c0,0,0,0.1,0,0.1c-1.7,0-3.4,0-5.1,0C10.4,19,10.4,18.9,10.4,18.9z"/>
<path class="st1" d="M35.8,39.2c-1.6,0-3.3,0-4.9,0c0,0,0-0.1,0-0.1c1.6,0,3.3,0,4.9,0C35.8,39.1,35.8,39.1,35.8,39.2z"/>
<path class="st1" d="M35.5,19.6c-1.6,0-3.3,0-4.9,0c0,0,0-0.1,0-0.1c1.6,0,3.3,0,4.9,0C35.5,19.5,35.5,19.5,35.5,19.6z"/>
<path class="st1" d="M15.3,19.6c-1.6,0-3.3,0-4.9,0c0,0,0-0.1,0-0.1c1.6,0,3.3,0,4.9,0C15.3,19.5,15.3,19.5,15.3,19.6z"/>
<path class="st1" d="M30.6,18.9c1.6,0,3.3,0,4.9,0c0,0,0,0.1,0,0.1c-1.6,0-3.2,0-4.9,0C30.6,18.9,30.6,18.9,30.6,18.9z"/>
<path class="st1" d="M15.1,35.7c-1.6,0-3.2,0-4.8,0c0,0,0-0.1,0-0.1c1.6,0,3.2,0,4.8,0C15.1,35.6,15.1,35.7,15.1,35.7z"/>
<path class="st1" d="M16.1,50.1c1.9,0,3.4,0,3.4-0.1c0,0-1.5-0.1-3.4-0.1c-1.9,0-3.4,0-3.4,0.1C12.7,50.1,14.2,50.1,16.1,50.1z"/>
<path class="st1" d="M31,16c1.6,0,3.2,0,4.9,0c0,0,0,0.1,0,0.1C34.2,16.1,32.6,16.1,31,16C31,16.1,31,16,31,16z"/>
<path class="st1" d="M35.7,15.6c-1.6,0-3.2,0-4.7,0c0,0,0-0.1,0-0.1c1.6,0,3.2,0,4.7,0C35.7,15.5,35.7,15.5,35.7,15.6z"/>
<path class="st1" d="M32.8,6.3c-1.6,0-3.1,0-4.7,0c0,0,0-0.1,0-0.1c1.6,0,3.1,0,4.7,0C32.8,6.3,32.8,6.3,32.8,6.3z"/>
<path class="st1" d="M11.5,2.9c-1.6,0-3.1,0-4.7,0c0,0,0-0.1,0-0.1C8.3,2.8,9.9,2.8,11.5,2.9C11.5,2.8,11.5,2.9,11.5,2.9z"/>
<path class="st1" d="M10.4,21.2c1.5,0,3,0,4.6,0c0,0,0,0.1,0,0.1c-1.5,0-3,0-4.6,0C10.4,21.2,10.4,21.2,10.4,21.2z"/>
<path class="st1" d="M12.7,20.8c1.8,0,3.3,0,3.3-0.1c0,0-1.5-0.1-3.3-0.1s-3.3,0-3.3,0.1C9.4,20.7,10.9,20.8,12.7,20.8z"/>
<path class="st1" d="M31,40.8c1.5,0,3,0,4.5,0c0,0,0,0.1,0,0.1c-1.5,0-3,0-4.5,0C31,40.8,31,40.8,31,40.8z"/>
<path class="st1" d="M6.9,3.3c1.7,0,3.4,0,5.1,0c0,0,0,0.1,0,0.1C10.3,3.4,8.6,3.4,6.9,3.3C6.8,3.4,6.8,3.3,6.9,3.3z"/>
<path class="st1" d="M33.1,6.9c-1.5,0-2.9,0-4.4,0c0,0,0-0.1,0-0.1c1.5,0,2.9,0,4.4,0C33.1,6.8,33.1,6.9,33.1,6.9z"/>
<path class="st1" d="M35.3,41.4c-1.5,0-2.9,0-4.4,0c0,0,0-0.1,0-0.1c1.5,0,2.9,0,4.4,0C35.3,41.4,35.3,41.4,35.3,41.4z"/>
<path class="st1" d="M31,13.7c1.5,0,2.9,0,4.4,0c0,0,0,0.1,0,0.1c-1.5,0-2.9,0-4.4,0C31,13.8,31,13.7,31,13.7z"/>
<path class="st1" d="M10.4,29.8c1.4,0,2.8,0,4.2,0c0,0,0,0.1,0,0.1c-1.4,0-2.8,0-4.2,0C10.4,29.9,10.4,29.8,10.4,29.8z"/>
<path class="st1" d="M12.6,34c1.7,0,3,0,3-0.1c0,0-1.3-0.1-3-0.1s-3,0-3,0.1C9.6,33.9,11,34,12.6,34z"/>
<path class="st1" d="M22.2,51.3c-2.6,0-5.2,0-7.8,0c0,0,0-0.1,0-0.1C17,51.2,19.6,51.2,22.2,51.3C22.2,51.2,22.2,51.3,22.2,51.3z"/>
<path class="st1" d="M10.4,32.1c1.4,0,2.8,0,4.2,0c0,0,0,0.1,0,0.1c-1.4,0-2.8,0-4.2,0C10.4,32.2,10.4,32.1,10.4,32.1z"/>
<path class="st1" d="M14.8,33.4c-1.5,0-2.9,0-4.4,0c0,0,0-0.1,0-0.1C11.8,33.3,13.3,33.3,14.8,33.4C14.8,33.3,14.8,33.4,14.8,33.4z"
	/>
<path class="st1" d="M37,22.5c-2.4,0-4.8,0-7.2,0c0,0,0,0,0-0.1C32.1,22.4,34.5,22.4,37,22.5C37,22.4,37,22.4,37,22.5z"/>
<path class="st1" d="M10.4,31.5c1.4,0,2.8,0,4.2,0c0,0,0,0.1,0,0.1c-1.4,0-2.8,0-4.2,0C10.4,31.6,10.4,31.6,10.4,31.5z"/>
<path class="st1" d="M10.4,30.4c1.4,0,2.8,0,4.2,0c0,0,0,0.1,0,0.1c-1.4,0-2.8,0-4.2,0C10.4,30.4,10.4,30.4,10.4,30.4z"/>
<path class="st1" d="M28.9,48.2c1.4,0,2.8,0,4.2,0c0,0,0,0.1,0,0.1c-1.4,0-2.8,0-4.2,0C28.9,48.3,28.9,48.3,28.9,48.2z"/>
<path class="st1" d="M29.4,7.9c1.4,0,2.8,0,4.2,0c0,0,0,0.1,0,0.1c-1.4,0-2.8,0-4.2,0C29.4,8,29.4,8,29.4,7.9z"/>
<path class="st1" d="M33.9,8.6c-1.4,0-2.8,0-4.2,0c0,0,0-0.1,0-0.1c1.4,0,2.8,0,4.2,0C33.9,8.5,33.9,8.6,33.9,8.6z"/>
<path class="st1" d="M12.2,51.9c-1.3,0-2.7,0-4,0c0,0,0-0.1,0-0.1C9.5,51.8,10.8,51.8,12.2,51.9C12.2,51.8,12.2,51.8,12.2,51.9z"/>
<path class="st1" d="M23.7,51.2c2.5,0,4.9,0,7.4,0c0,0,0,0.1,0,0.1c-2.5,0-5,0-7.4,0C23.7,51.2,23.7,51.2,23.7,51.2z"/>
<path class="st1" d="M12.7,4.6c-1.2,0-2.5,0-3.7,0c0,0,0-0.1,0-0.1c1.2,0,2.5,0,3.7,0C12.7,4.5,12.7,4.6,12.7,4.6z"/>
<path class="st1" d="M30.9,37.9c1.7,0,3.4,0,5.2,0c0,0,0,0.1,0,0.1c-1.7,0-3.4,0-5.2,0C30.8,37.9,30.9,37.9,30.9,37.9z"/>
<path class="st1" d="M29.7,32.7c2.4,0,4.9,0,7.3,0c0,0,0,0.1,0,0.1C34.5,32.8,32.1,32.8,29.7,32.7C29.7,32.8,29.7,32.7,29.7,32.7z"
	/>
<path class="st1" d="M10.3,48.9c2.4,0,4.7,0,7.1,0c0,0,0,0,0,0.1C15,48.9,12.7,48.9,10.3,48.9C10.3,48.9,10.3,48.9,10.3,48.9z"/>
<path class="st1" d="M30,21.8c2.3,0,4.6,0,6.8,0c0,0,0,0.1,0,0.1C34.5,21.8,32.3,21.8,30,21.8C30,21.8,30,21.8,30,21.8z"/>
<path class="st1" d="M11.3,22.9c1.2,0,2.3,0,3.5,0c0,0,0,0.1,0,0.1C13.6,23,12.4,23,11.3,22.9C11.2,23,11.3,22.9,11.3,22.9z"/>
<path class="st1" d="M9.5,5c1.1,0,2.2,0,3.3,0c0,0,0,0.1,0,0.1c-1.1,0-2.2,0-3.3,0C9.5,5.1,9.5,5.1,9.5,5z"/>
<path class="st1" d="M10.5,39.6c2.2,0,4.4,0,6.6,0c0,0,0,0.1,0,0.1C14.9,39.7,12.7,39.7,10.5,39.6C10.5,39.7,10.5,39.6,10.5,39.6z"
	/>
<path class="st1" d="M16.8,47.8c-2.1,0-4.2,0-6.3,0c0,0,0-0.1,0-0.1C12.6,47.7,14.7,47.7,16.8,47.8C16.8,47.7,16.8,47.8,16.8,47.8z"
	/>
<path class="st1" d="M16.9,40.3c-2.1,0-4.3,0-6.4,0c0,0,0,0,0-0.1C12.6,40.2,14.7,40.2,16.9,40.3C16.9,40.2,16.9,40.2,16.9,40.3z"/>
<path class="st1" d="M16.7,15c-2.1,0-4.2,0-6.2,0c0,0,0-0.1,0-0.1c2.1,0,4.2,0,6.2,0C16.7,14.9,16.7,14.9,16.7,15z"/>
<path class="st1" d="M37.5,25.3c-1.2,0-2.4,0-3.6,0c0,0,0-0.1,0-0.1c1.2,0,2.4,0,3.6,0C37.5,25.2,37.5,25.3,37.5,25.3z"/>
<path class="st1" d="M16.9,7.5c-2.1,0-4.3,0-6.4,0c0,0,0-0.1,0-0.1C12.6,7.4,14.7,7.4,16.9,7.5C16.9,7.4,16.9,7.4,16.9,7.5z"/>
<path class="st1" d="M12.9,50.1c-1.1,0-2.1,0-3.1,0c0,0,0-0.1,0-0.1c1.1,0,2.1,0,3.1,0C12.9,50.1,12.9,50.1,12.9,50.1z"/>
<path class="st1" d="M33.5,34.5c2.5,0,4.5,0,4.5-0.1s-2-0.1-4.5-0.1c-2.5,0-4.5,0-4.5,0.1S31,34.5,33.5,34.5z"/>
<path class="st1" d="M34.6,29.8c1,0,2.1,0,3.1,0c0,0,0,0.1,0,0.1c-1,0-2.1,0-3.1,0C34.6,29.9,34.6,29.9,34.6,29.8z"/>
<path class="st1" d="M10.7,2.3c-1,0-2,0-3,0c0,0,0-0.1,0-0.1c1,0,2,0,3,0C10.7,2.3,10.7,2.3,10.7,2.3z"/>
<path class="st1" d="M33.4,35.1c2.4,0,4.3,0,4.3-0.1c0,0-1.9-0.1-4.3-0.1c-2.4,0-4.3,0-4.3,0.1C29.1,35.1,31,35.1,33.4,35.1z"/>
<path class="st1" d="M16.6,47.2c-2,0-4,0-6.1,0c0,0,0,0,0-0.1C12.5,47.1,14.6,47.1,16.6,47.2C16.6,47.1,16.6,47.2,16.6,47.2z"/>
<path class="st1" d="M16.1,13.2c-1.9,0-3.8,0-5.8,0c0,0,0-0.1,0-0.1C12.3,13.1,14.2,13.1,16.1,13.2C16.2,13.2,16.1,13.2,16.1,13.2z"
	/>
<path class="st1" d="M16.4,14.4c-2,0-3.9,0-5.9,0c0,0,0-0.1,0-0.1C12.5,14.3,14.4,14.3,16.4,14.4C16.4,14.3,16.4,14.3,16.4,14.4z"/>
<path class="st1" d="M10.5,46c1.9,0,3.9,0,5.8,0c0,0,0,0.1,0,0.1C14.4,46.1,12.4,46.1,10.5,46C10.5,46,10.5,46,10.5,46z"/>
<path class="st1" d="M35.5,28.1c0.9,0,1.9,0,2.8,0c0,0,0,0.1,0,0.1c-0.9,0-1.9,0-2.8,0C35.5,28.2,35.5,28.1,35.5,28.1z"/>
<path class="st1" d="M13.4,16.7c2.3,0,4.2,0,4.2-0.1c0,0-1.9-0.1-4.2-0.1c-2.3,0-4.2,0-4.2,0.1C9.2,16.7,11.1,16.7,13.4,16.7z"/>
<path class="st1" d="M13.9,50.6c1.8,0,3.6,0,5.5,0c0,0,0,0,0,0.1C17.6,50.6,15.8,50.6,13.9,50.6C14,50.6,13.9,50.6,13.9,50.6z"/>
<path class="st1" d="M13.4,9.2c2.3,0,4.1,0,4.1-0.1c0,0-1.8-0.1-4.1-0.1c-2.3,0-4.1,0-4.1,0.1C9.3,9.2,11.1,9.2,13.4,9.2z"/>
<path class="st1" d="M13.4,42c2.3,0,4.1,0,4.1,0C17.4,42,15.6,41.9,13.4,42c-2.3-0.1-4.1-0.1-4.1,0C9.3,42,11.1,42,13.4,42z"/>
<path class="st1" d="M35.3,28.6c0.9,0,1.9,0,2.8,0c0,0,0,0.1,0,0.1c-0.9,0-1.9,0-2.8,0C35.3,28.7,35.3,28.7,35.3,28.6z"/>
<path class="st1" d="M16,38.6c-1.8,0-3.7,0-5.5,0c0,0,0-0.1,0-0.1C12.4,38.5,14.2,38.5,16,38.6C16,38.5,16,38.5,16,38.6z"/>
<path class="st1" d="M31.6,50.7c-1.8,0-3.7,0-5.5,0c0,0,0-0.1,0-0.1C27.9,50.6,29.7,50.6,31.6,50.7C31.6,50.6,31.6,50.6,31.6,50.7z"
	/>
<path class="st1" d="M16.1,12.6c-1.9,0-3.7,0-5.6,0c0,0,0-0.1,0-0.1C12.3,12.6,14.2,12.6,16.1,12.6C16,12.6,16,12.6,16.1,12.6z"/>
<path class="st1" d="M16,10.9c-1.9,0-3.7,0-5.6,0c0,0,0-0.1,0-0.1C12.3,10.8,14.2,10.8,16,10.9C16,10.8,16,10.9,16,10.9z"/>
<path class="st1" d="M13.2,43.7c2.2,0,3.9,0,3.9,0S15.4,43.6,13.2,43.7c-2.2-0.1-3.9-0.1-3.9,0S11.1,43.7,13.2,43.7z"/>
<path class="st1" d="M30.7,36.2c1.9,0,3.7,0,5.6,0c0,0,0,0.1,0,0.1C34.4,36.3,32.6,36.3,30.7,36.2C30.7,36.2,30.7,36.2,30.7,36.2z"
	/>
<path class="st1" d="M16,45.5c-1.8,0-3.7,0-5.5,0c0,0,0,0,0-0.1C12.3,45.4,14.2,45.4,16,45.5C16,45.4,16,45.5,16,45.5z"/>
<path class="st1" d="M10.5,37.9c1.8,0,3.5,0,5.3,0c0,0,0,0.1,0,0.1c-1.7,0-3.5,0-5.2,0C10.5,38,10.5,37.9,10.5,37.9z"/>
<path class="st1" d="M35.2,26.4c0.9,0,1.8,0,2.7,0c0,0,0,0.1,0,0.1c-0.9,0-1.8,0-2.7,0C35.2,26.4,35.2,26.4,35.2,26.4z"/>
<path class="st1" d="M14.8,22.5c-1.5,0-2.9,0-4.4,0c0,0,0-0.1,0-0.1c1.5,0,2.9,0,4.4,0C14.8,22.4,14.8,22.4,14.8,22.5z"/>
<path class="st1" d="M36.1,36.8c-1.8,0-3.6,0-5.4,0c0,0,0-0.1,0-0.1C32.5,36.7,34.3,36.7,36.1,36.8C36.1,36.8,36.1,36.8,36.1,36.8z"
	/>
<path class="st1" d="M37.4,24.2c-1.7,0-3.4,0-5,0c0,0,0-0.1,0-0.1c1.7,0,3.3,0,5,0C37.3,24.1,37.3,24.2,37.4,24.2z"/>
<path class="st1" d="M35.3,13.3c-1.3,0-2.7,0-4,0c0,0,0-0.1,0-0.1c1.3,0,2.7,0,4,0C35.3,13.2,35.3,13.2,35.3,13.3z"/>
<path class="st1" d="M37.1,23.6c-1.7,0-3.4,0-5,0c0,0,0-0.1,0-0.1C33.8,23.5,35.4,23.5,37.1,23.6C37.1,23.5,37.1,23.6,37.1,23.6z"/>
<path class="st1" d="M30.5,20c1.7,0,3.4,0,5.1,0c0,0,0,0.1,0,0.1C33.9,20.1,32.2,20.1,30.5,20C30.5,20.1,30.5,20.1,30.5,20z"/>
<path class="st1" d="M35.4,14.4c-1.4,0-2.8,0-4.2,0c0,0,0-0.1,0-0.1c1.4,0,2.8,0,4.3,0C35.4,14.3,35.4,14.3,35.4,14.4z"/>
<path class="st1" d="M13,18.4c2,0,3.6,0,3.6-0.1c0,0-1.6-0.1-3.6-0.1c-2,0-3.6,0-3.6,0.1C9.4,18.4,11,18.4,13,18.4z"/>
<path class="st1" d="M37.3,31.1c-1.7,0-3.4,0-5.1,0c0,0,0-0.1,0-0.1C33.9,31,35.6,31,37.3,31.1C37.3,31,37.3,31,37.3,31.1z"/>
<path class="st1" d="M15.3,36.8c-1.6,0-3.3,0-4.9,0c0,0,0-0.1,0-0.1C12.1,36.7,13.7,36.7,15.3,36.8C15.3,36.8,15.3,36.8,15.3,36.8z"
	/>
<path class="st1" d="M27.4,5.6c1.6,0,3.3,0,4.9,0c0,0,0,0.1,0,0.1C30.7,5.7,29,5.7,27.4,5.6C27.4,5.7,27.4,5.7,27.4,5.6z"/>
<path class="st1" d="M35.9,16.7c-1.6,0-3.2,0-4.9,0c0,0,0-0.1,0-0.1C32.7,16.6,34.3,16.6,35.9,16.7C35.9,16.6,35.9,16.6,35.9,16.7z"
	/>
<path class="st1" d="M31,38.5c1.6,0,3.1,0,4.7,0c0,0,0,0,0,0.1C34.2,38.5,32.6,38.5,31,38.5C31,38.5,31,38.5,31,38.5z"/>
<path class="st1" d="M15.2,20.1c-1.6,0-3.1,0-4.7,0c0,0,0,0,0-0.1C12.1,20.1,13.6,20.1,15.2,20.1C15.2,20.1,15.2,20.1,15.2,20.1z"/>
<path class="st1" d="M35.5,18.4c-1.6,0-3.1,0-4.6,0c0,0,0-0.1,0-0.1C32.4,18.3,34,18.3,35.5,18.4C35.6,18.4,35.5,18.4,35.5,18.4z"/>
<path class="st1" d="M10.6,36.2c1.5,0,3.1,0,4.6,0c0,0,0,0.1,0,0.1C13.6,36.2,12,36.2,10.6,36.2C10.5,36.2,10.5,36.2,10.6,36.2z"/>
<path class="st1" d="M31,14.8c1.5,0,3,0,4.5,0c0,0,0,0.1,0,0.1c-1.5,0-3,0-4.5,0C31,14.9,31,14.9,31,14.8z"/>
<path class="st1" d="M31.1,39.6c1.5,0,3,0,4.5,0c0,0,0,0.1,0,0.1C34.1,39.7,32.6,39.7,31.1,39.6C31.1,39.7,31.1,39.7,31.1,39.6z"/>
<path class="st1" d="M33.2,47.8c-1.3,0-2.7,0-4,0c0,0,0-0.1,0-0.1C30.5,47.7,31.9,47.7,33.2,47.8C33.2,47.7,33.2,47.8,33.2,47.8z"/>
<path class="st1" d="M35.5,40.3c-1.5,0-3,0-4.4,0c0,0,0,0,0-0.1C32.6,40.2,34.1,40.2,35.5,40.3C35.6,40.2,35.5,40.3,35.5,40.3z"/>
<path class="st1" d="M32.4,49.5c-1.5,0-3,0-4.5,0c0,0,0-0.1,0-0.1C29.4,49.4,30.9,49.4,32.4,49.5C32.4,49.4,32.4,49.5,32.4,49.5z"/>
<path class="st1" d="M13.7,5.6c1.5,0,3,0,4.6,0c0,0,0,0.1,0,0.1C16.8,5.7,15.3,5.7,13.7,5.6C13.7,5.7,13.7,5.7,13.7,5.6z"/>
<path class="st1" d="M28.5,48.9c1.4,0,2.8,0,4.3,0c0,0,0,0.1,0,0.1C31.3,48.9,29.9,48.9,28.5,48.9C28.5,48.9,28.5,48.9,28.5,48.9z"
	/>
<path class="st1" d="M15,35.1c-1.4,0-2.9,0-4.3,0c0,0,0-0.1,0-0.1C12.1,35,13.5,35,15,35.1C15,35.1,15,35.1,15,35.1z"/>
<path class="st1" d="M14.8,21.9c-1.5,0-2.9,0-4.4,0c0,0,0-0.1,0-0.1C11.9,21.8,13.4,21.8,14.8,21.9C14.8,21.8,14.8,21.8,14.8,21.9z"
	/>
<path class="st1" d="M12.7,34.5c1.6,0,3,0,3-0.1c0,0-1.3-0.1-3-0.1c-1.6,0-3,0-3,0.1C9.8,34.5,11.1,34.5,12.7,34.5z"/>
<path class="st1" d="M12.6,32.8c1.6,0,3,0,3,0S14.2,32.7,12.6,32.8c-1.6-0.1-3-0.1-3,0S10.9,32.8,12.6,32.8z"/>
<path class="st1" d="M31.2,7.5c1.6,0,3,0,3-0.1c0,0-1.3-0.1-3-0.1s-3,0-3,0.1C28.3,7.4,29.6,7.5,31.2,7.5z"/>
<path class="st1" d="M17.8,49.5c-1.3,0-2.7,0-4,0c0,0,0-0.1,0-0.1C15.1,49.4,16.4,49.4,17.8,49.5C17.8,49.4,17.8,49.5,17.8,49.5z"/>
<path class="st1" d="M10.5,31c1.4,0,2.7,0,4.1,0c0,0,0,0.1,0,0.1C13.2,31.1,11.8,31.1,10.5,31C10.5,31,10.5,31,10.5,31z"/>
<path class="st1" d="M29.7,47.1c1.3,0,2.5,0,3.8,0c0,0,0,0.1,0,0.1C32.2,47.2,30.9,47.2,29.7,47.1C29.7,47.2,29.7,47.1,29.7,47.1z"
	/>
<path class="st1" d="M12.2,4C11,4,9.7,4,8.5,4c0,0,0-0.1,0-0.1C9.7,3.9,11,3.9,12.2,4C12.2,4,12.2,4,12.2,4z"/>
<path d="M31.4,26.3c-0.2,0.1-0.3,0.2-0.5,0.2c-3,0.3-5.3,1.7-7.2,3.9c-0.3,0.4-0.6,0.9-0.8,1.2c-2-3.6-5.3-5.2-9.3-5.4
	c3.8-0.3,7.3-1.1,9.3-5.1C24.9,24.2,27.9,25.6,31.4,26.3L31.4,26.3z M17.3,26.4c2.3,1,4.3,2.2,5.6,4.3c1.5-2.2,3.7-3.4,6.3-4.4
	c-2.4-0.8-4.4-2.1-6-4C21.8,24.6,19.8,25.7,17.3,26.4z"/>
<path d="M19.4,30.8c-1.2-0.6-2.4-1.2-3.6-1.6c-1.5-0.5-3.1-0.8-4.6-1.1c-1.9-0.4-3.6-1.2-5.1-2.4c-0.2-0.1-0.4-0.2-0.5-0.2
	c0.1-0.1,0.1-0.2,0.2-0.2c0.8,0.5,1.7,0.9,2.5,1.4c1.9,1.1,4.1,1.2,6.1,1.7c1.3,0.4,2.6,0.9,3.9,1.5C18.7,30,19.1,30.4,19.4,30.8
	C19.4,30.7,19.4,30.7,19.4,30.8z"/>
<path d="M15.7,25.5c2.4-0.9,4.8-1.8,6.4-4.1C20.8,24,18.4,25,15.7,25.5z"/>
<path d="M24.9,20.4c-0.6-1-1.3-2-2-3C23,18.5,24,20.1,24.9,20.4z"/>
<path d="M23.2,48.8c1.1-1.8,2.8-2.6,4.7-2.9c2.3-0.4,4.6-0.6,6.8-0.7c4.1-0.3,7.7-1.5,10-5.2c1.9-3.1,2.4-6.4,0.7-9.8
	c-0.4-0.8-0.9-1.4-1.3-2.3c0.2,0.2,0.4,0.4,0.6,0.6c2.1,2.4,2.4,5.3,1.7,8.2c-1.2,5.3-5.2,8.2-10.3,8.7c-2.1,0.2-4.2,0.3-6.4,0.5
	C27.4,46.2,25,46.8,23.2,48.8z"/>
<path d="M19.7,42.4c-0.8-0.5-1.2-1.1-1.1-2.1C18.9,41,19.3,41.7,19.7,42.4z"/>
<path d="M41,14.9c-3.4-3.4-8.3-4-13.1-1.4c0.7-1.3,3.5-2.3,6.1-2C36.7,11.8,39.4,12.2,41,14.9z"/>
<path d="M41,12.8c2.1,1.4,2.7,5.2,1.2,7.2c-1.1,1.5-3.3,1.9-4.9,0.7c0.5,0.1,0.8,0.1,1.2,0.2c2.2,0.4,3.9-0.9,4.1-3.2
	c0.1-1.6-0.2-3-1.2-4.2C41.3,13.2,41.1,13,41,12.8z"/>
<path d="M25.5,11.3c-3.3-1.2-4.2-1-6.9,2.2c0.4-1.7,1.5-2.5,2.9-2.9C23,10.1,24.4,10.2,25.5,11.3z"/>
<path d="M4.3,33c-2.1,2.9-1.2,5.4,0.8,7.9c-1.8-0.8-2.6-3.6-2.2-5.7C3,34.3,3.2,33.3,4.3,33z"/>
<path d="M5.7,35.6c1.1,0.5,2,0.5,2.8-0.5c0.8-1,0.1-2-0.2-3c1.2,1,1,2.8,0.4,3.5C7.9,36.5,6.7,36.5,5.7,35.6z"/>
<path class="st0" d="M6,3.3c0,0,0.8-1.1,2.2-1.4c1.4-0.3,2.7,0.1,3.7,1c0.9,0.9,1.5,2,1.5,2l0.9-0.7c0,0,0.8-1,2.7-2
	c1.1-0.5,1.8-1,3.3-1.2c1.5-0.3,2.2-0.4,3.9-0.2c1.7,0.2,3.2,0.6,4.2,1.2c1.1,0.6,1.1,0.4,3.8,2.8l1.7,2.7L34.5,9l-3.1,0l-2.1-0.3
	l-0.3-1l-0.7-0.9l-1-0.8l-1.2-0.7l-1.6-0.4l-1-0.3l-0.8-0.2L21,4.6l-1.6,0.8l-1.2,1.1L17,8.1l-0.3,1.1L16.6,11l-0.2,1.6l0.2,1.1
	l0.5,1.1l0.2,1.1l-1,1.6l-0.8,2.3l-0.3,2.4l-0.3,1.1L13,23.4l-1.4-0.2l-0.8-0.2l-0.6-0.5l-0.1-3.1l0-4.5l0-1.6l0.1-1.3l-0.1-2.4
	l-0.1-2.3L9.8,6.2L9.4,5.3L8.8,4.6L8.1,4L6.5,3.6L6,3.3z"/>
<path class="st0" d="M10.2,29.3l4.5,0.2l0.3,1.7l0.3,2.5l0.5,3.1l0.5,1.6l1.1,1.5L17,41.3l-0.4,1.5l0.1,2.3l0.2,1.8l0.8,1.7l0.9,1.1
	l1.3,0.8l0.7,0.3l0.9,0.1h1.1l0.7,0.1l1.6-0.1l1.4-0.6l1-0.5l0.7-0.7l0.7-0.7l0.5-0.8l0.5-0.7l1.7-0.1l2.5-0.1h0.4l-0.8,2.2
	l-1.7,2.3l-1.6,1.6l-2.2,1.3l-2,0.5l-2.4,0.3l-2.4,0l-1.8-0.3L17.8,54l-1.3-0.8l-1-0.6l-1-0.9l-1-1l-1,1.3l-0.9,1.3L10.3,54l-1.4,0
	l-1.2-0.4l-1.3-0.9l-0.5-0.4c0,0,2-0.4,2.9-1.1l1-1.7l0.5-1.6l0-3.1l-0.1-3.6l0.1-5.1l-0.1-2.8l0-2.2L10.2,29.3z"/>
<path class="st0" d="M30.8,41.6l2.3,0.4l1.9-0.1l0.7-0.1l0.5-2.9l0.7-3.8l0.6-2.7l0.3-1.7l0.4-1.2l0.4-1l-0.1-1.2L37.9,25l-0.5-1.7
	l-0.2-1.6l-0.3-0.6l-0.7-0.8l-0.4-1.1l0.1-0.8l0.3-0.9l0.3-0.4l-0.4-1.8l-0.2-1l-0.2-1.2l-0.2-0.3l-2.4-0.2L30.8,13l-0.1,0.6
	l0.1,0.8l0,1.4l-0.1,1.5l-0.2,1.4l-0.4,1.5l-0.5,1.6L29.2,23l0.7,0.1l1.2,0.2l0.7,0.5l0.1,1l0.6,0.6l0.7,0.3l1,0.2l0.5,0.6l0.3,1.1
	l0.1,0.7L35,29.1l-0.7,0.5l-1.7,0.2L32,30l0,0.9l-0.3,0.8L31,32.4l-1.7,0.1l0.5,1.6l0.4,1.7l0.3,1.4l0.2,1.3l0.2,1.3l0,0.8
	L30.8,41.6z"/>
</svg>
