<svg width="93" height="66" viewBox="0 0 93 66" fill="none" xmlns="http://www.w3.org/2000/svg">
<rect x="0.164856" width="91.978" height="66" rx="5" fill="#F1F1F1"/>
<path d="M45.9835 20C40.2988 20 36.7644 22.7708 35.3379 28.3333C37.467 25.5625 39.9581 24.5208 42.7898 25.2083C44.408 25.6042 45.579 26.75 46.8565 28.0208C48.943 30.1042 51.3063 32.5 56.6291 32.5C62.3139 32.5 65.8482 29.7292 67.2747 24.1667C65.1456 26.9375 62.6545 27.9792 59.8228 27.2917C58.2047 26.8958 57.055 25.75 55.7562 24.4792C53.6697 22.3958 51.3063 20 45.9835 20ZM35.3379 32.5C29.6532 32.5 26.1188 35.2708 24.6923 40.8333C26.8214 38.0625 29.3125 37.0208 32.1442 37.7083C33.7624 38.1042 34.9121 39.25 36.2109 40.5208C38.2974 42.6042 40.6607 45 45.9835 45C51.6683 45 55.2026 42.2292 56.6291 36.6667C54.5 39.4375 52.0089 40.4792 49.1772 39.7917C47.5591 39.3958 46.4094 38.25 45.1106 36.9792C43.0241 34.8958 40.6607 32.5 35.3379 32.5Z" fill="#111111"/>
</svg>
