<?xml version="1.0" encoding="utf-8"?>
<!-- Generator: Adobe Illustrator 23.0.5, SVG Export Plug-In . SVG Version: 6.00 Build 0)  -->
<svg version="1.1" id="Calque_1" xmlns="http://www.w3.org/2000/svg" xmlns:xlink="http://www.w3.org/1999/xlink" x="0px" y="0px"
	 viewBox="0 0 93 66" style="enable-background:new 0 0 93 66;" xml:space="preserve">
<style type="text/css">
	.st0{fill:#F1F1F1;}
</style>
<path class="st0" d="M5.2,0h82c2.8,0,5,2.2,5,5v56c0,2.8-2.2,5-5,5h-82c-2.8,0-5-2.2-5-5V5C0.2,2.2,2.4,0,5.2,0z"/>
<g>
	<path d="M22.8,33v23.7h47.3V9.3H22.8V33z M61,31.1c1.2,0.3,2.1,0.8,3,1.7c0.4,0.5,1.1,1.3,1.1,1.5c0,0.1-2,1.4-3.3,2.2
		c0,0-0.2-0.2-0.4-0.5c-0.6-0.9-1.2-1.3-2.2-1.3c-1.4-0.1-2.4,0.7-2.3,1.9c0,0.3,0.1,0.6,0.2,0.9c0.3,0.7,0.9,1,2.7,1.8
		c3.4,1.5,4.8,2.4,5.7,3.8c1,1.5,1.2,4,0.6,5.8c-0.8,2-2.6,3.3-5.2,3.7c-0.8,0.1-2.7,0.1-3.6,0c-1.9-0.3-3.7-1.3-4.8-2.5
		c-0.4-0.5-1.3-1.7-1.2-1.8c0,0,0.2-0.2,0.4-0.3s1-0.6,1.8-1l1.4-0.8l0.3,0.4c0.4,0.6,1.3,1.4,1.8,1.7c1.5,0.8,3.6,0.7,4.6-0.2
		c0.4-0.3,0.6-0.9,0.6-1.4c0-0.5-0.1-0.8-0.4-1.2c-0.4-0.5-1.1-1-3.2-1.9c-2.4-1.1-3.5-1.7-4.4-2.7c-0.6-0.7-1-1.5-1.3-2.4
		c-0.2-0.7-0.2-2.3-0.1-3c0.5-2.4,2.3-4,4.9-4.5C58.2,30.9,60.2,30.9,61,31.1L61,31.1z M49.9,33.1l0,1.9h-6.2v17.5h-4.4V35h-6.2
		v-1.9c0-1.1,0-1.9,0.1-2c0,0,3.8,0,8.3,0l8.3,0L49.9,33.1z"/>
</g>
</svg>
