<svg width="92" height="66" viewBox="0 0 92 66" fill="none" xmlns="http://www.w3.org/2000/svg">
<rect width="91.978" height="66" rx="5" fill="#F1F1F1"/>
<mask id="mask0_39_39" style="mask-type:luminance" maskUnits="userSpaceOnUse" x="27" y="14" width="39" height="39">
<path d="M27 14H65.022V52.022H27V14Z" fill="white"/>
</mask>
<g mask="url(#mask0_39_39)">
<path d="M27.3612 27.2602C27.3612 27.2602 26.436 26.5837 27.5466 25.6839L30.1368 23.3424C30.1368 23.3424 30.8767 22.555 31.6609 23.241L55.5529 41.5264V50.2936C55.5529 50.2936 55.5419 51.6719 53.7944 51.5198L27.3597 27.2586L27.3612 27.2602Z" fill="#111111"/>
<path d="M33.5208 32.9111L27.3612 38.5701C27.3612 38.5701 26.7275 39.0454 27.3612 39.8961L30.2208 42.5259C30.2208 42.5259 30.9004 43.2626 31.9033 42.423L38.432 37.4199L33.5208 32.9111ZM44.3317 32.9571L55.6274 24.2405L55.5529 15.5193C55.5529 15.5193 55.0697 13.615 53.4617 14.6067L38.432 28.4325L44.3317 32.9571Z" fill="#111111"/>
<path d="M53.7928 51.5308C54.4487 52.2089 55.244 51.9871 55.244 51.9871L64.0461 47.6035C65.1725 46.8272 65.014 45.864 65.014 45.864V19.6842C65.014 18.5341 63.8496 18.1364 63.8496 18.1364L56.2199 14.4182C54.5532 13.3773 53.4617 14.6067 53.4617 14.6067C53.4617 14.6067 54.8653 13.5849 55.5529 15.5192V50.1351C55.5529 50.3727 55.5022 50.6056 55.4024 50.8163C55.2012 51.2266 54.7655 51.6084 53.7199 51.45L53.7928 51.5308Z" fill="#111111"/>
</g>
</svg>
