<svg width="93" height="66" viewBox="0 0 93 66" fill="none" xmlns="http://www.w3.org/2000/svg">
<rect x="0.472534" width="91.978" height="66" rx="5" fill="#F1F1F1"/>
<g clip-path="url(#clip0_4_208)">
<path d="M62.1453 8.62656H29.8531C28.6899 8.62512 27.5378 8.85317 26.4629 9.29765C25.3879 9.74213 24.4112 10.3943 23.5887 11.2168C22.7662 12.0394 22.114 13.0161 21.6695 14.091C21.225 15.166 20.997 16.318 20.9984 17.4813V48.5187C20.997 49.682 21.225 50.834 21.6695 51.909C22.114 52.9839 22.7662 53.9607 23.5887 54.7832C24.4112 55.6057 25.3879 56.2579 26.4629 56.7023C27.5378 57.1468 28.6899 57.3749 29.8531 57.3734H62.1453C63.3085 57.3749 64.4606 57.1468 65.5355 56.7023C66.6105 56.2579 67.5872 55.6057 68.4097 54.7832C69.2322 53.9607 69.8844 52.9839 70.3289 51.909C70.7734 50.834 71.0014 49.682 71 48.5187V17.4813C71.0014 16.318 70.7734 15.166 70.3289 14.091C69.8844 13.0161 69.2322 12.0394 68.4097 11.2168C67.5872 10.3943 66.6105 9.74213 65.5355 9.29765C64.4606 8.85317 63.3085 8.62512 62.1453 8.62656ZM68.8922 47.7063C68.8979 48.6997 68.7073 49.6845 68.3312 50.604C67.9551 51.5236 67.401 52.3597 66.7007 53.0644C66.0004 53.769 65.1677 54.3283 64.2505 54.7101C63.3333 55.0919 62.3497 55.2887 61.3562 55.2891H30.6437C28.6393 55.2862 26.7179 54.4886 25.3005 53.0713C23.8832 51.654 23.0857 49.7325 23.0828 47.7281V18.2703C23.0857 16.2659 23.8832 14.3444 25.3005 12.9271C26.7179 11.5098 28.6393 10.7123 30.6437 10.7094H61.3312C63.3364 10.7098 65.2593 11.5065 66.6772 12.9244C68.095 14.3422 68.8918 16.2652 68.8922 18.2703V47.7063ZM40.7672 31.4375L46.6031 42.6438C46.7094 42.8141 46.6453 42.9766 46.4797 42.9766H42.85C42.6234 42.9766 42.5172 42.9203 42.4187 42.7078C41.0859 39.9578 39.725 37.2078 38.3328 34.2531H38.2937C37.0126 37.0983 35.6911 39.9252 34.3297 42.7328C34.2344 42.8953 34.1281 42.9594 33.9562 42.9594H30.5203C30.3094 42.9594 30.2937 42.7891 30.4 42.6672L36.1047 31.7938L30.5875 20.7922C30.4562 20.6219 30.5875 20.4984 30.7078 20.4984H34.289C34.5 20.4984 34.5828 20.5406 34.664 20.725C35.9936 23.4968 37.2932 26.2829 38.5625 29.0828H38.6015C39.814 26.3328 41.15 23.4766 42.4344 20.75C42.5406 20.5797 42.6047 20.4734 42.8094 20.4734H46.1609C46.3312 20.4734 46.3969 20.6047 46.2922 20.7672L40.7672 31.4375ZM47.6265 34.8313C47.6265 29.9813 50.85 26.1875 55.9765 26.1875C56.4156 26.1875 56.6437 26.1875 57.0594 26.2297V20.7125C57.0594 20.5813 57.164 20.5 57.2703 20.5H60.5578C60.7281 20.5 60.7703 20.5641 60.7703 20.6625V39.7953C60.7703 40.3563 60.7703 41.0641 60.8765 41.8281C60.8765 41.9594 60.8344 41.9984 60.7062 42.0656C59.0403 42.8572 57.2194 43.2687 55.375 43.2703C50.85 43.2938 47.6265 40.5031 47.6265 34.8313ZM57.0609 29.5C56.6761 29.3529 56.2666 29.2813 55.8547 29.2891C53.2281 29.2891 51.3969 31.3141 51.3969 34.6688C51.3969 38.5016 53.2672 40.0391 55.6281 40.0391C56.1234 40.0391 56.6703 39.9828 57.0609 39.8125V29.5Z" fill="#111111"/>
</g>
<defs>
<clipPath id="clip0_4_208">
<rect width="50" height="50" fill="white" transform="translate(21 8)"/>
</clipPath>
</defs>
</svg>
