<?xml version="1.0" encoding="utf-8"?>
<!-- Generator: Adobe Illustrator 23.0.5, SVG Export Plug-In . SVG Version: 6.00 Build 0)  -->
<svg version="1.1" id="Calque_1" xmlns="http://www.w3.org/2000/svg" xmlns:xlink="http://www.w3.org/1999/xlink" x="0px" y="0px"
	 viewBox="0 0 130 60" style="enable-background:new 0 0 130 60;" xml:space="preserve">
<style type="text/css">
	.st0{fill:#777777;}
</style>
<path class="st0" d="M29.7,54.5l-2.3,2.8l-2.3-2.8h-1.3v5.3H25v-3.7l2.4,2.9h0.1l2.4-2.9v3.7h1.2v-5.3H29.7z"/>
<path class="st0" d="M37.4,54.5v5.3h5.5v-1h-4.3v-1.2h3.5v-1h-3.5v-1.1h4.2v-1H37.4z"/>
<path class="st0" d="M55,57.2c0,1.7-1.3,2.7-3.3,2.7h-2.9v-5.3h2.9C53.7,54.5,55,55.5,55,57.2z M53.8,57.2c0-1.1-0.9-1.6-2.2-1.6
	h-1.5v3.3h1.5C52.9,58.8,53.8,58.3,53.8,57.2z"/>
<path class="st0" d="M66.6,58.8v1H61v-5.3h5.5v1h-4.2v1.1h3.5v1h-3.5v1.2H66.6z"/>
<path class="st0" d="M77.5,58.8v1.1h-5v-5.3h1.2v4.3H77.5z"/>
<path class="st0" d="M88.3,58.8v1.1h-5v-5.3h1.2v4.3H88.3z"/>
<path class="st0" d="M94.8,53.9h-0.9l1.1-1.2h1.6L94.8,53.9z M94.1,54.5h1.2v5.3h-1.2V54.5z"/>
<path class="st0" d="M107.7,54.5v5.3h-1.1l-3.9-3.8v3.8h-1.2v-5.3h1.3l3.6,3.6v-3.6H107.7z"/>
<path class="st0" d="M88.3,38.9c-1.5,3-4.9,5.1-8.9,5.1c-5.4,0-9.7-3.8-9.7-8.4c0-4.6,4.3-8.4,9.7-8.4c3.3,0,6.3,1.4,8,3.7l-3,1.6
	c-0.3-1.3-1.2-2.4-2.3-3.1c-1.9-1.1-4.2-1.3-6.1-0.3c-3.2,1.7-4.2,5.9-2.3,9.5c1.9,3.6,6.1,5.1,9.2,3.5c1.3-0.7,2.3-1.8,2.8-3.2
	H88.3z"/>
<path class="st0" d="M109.6,27.5h-3.6c0.4,1.6,0.6,3.2,0.6,4.9v6.4c0,1.6-0.2,3.3-0.6,4.9h3.6c-0.4-1.6-0.6-3.2-0.6-4.9v-6.4
	C108.9,30.8,109.2,29.1,109.6,27.5z"/>
<path class="st0" d="M109.6,26.3l2.3-1.8c-1.8,0.9-3.6,1.5-5.6,1.7l-0.4,0H109.6z"/>
<path class="st0" d="M121.3,27.5h-2.7c0.4,0.7,0.4,1.5,0,2.3l-7.5,13.9h2c0.5-1.6,1.1-3.1,1.9-4.6l2.4-4.4h5.1l2.4,4.4
	c0.8,1.5,1.4,3,1.9,4.6h3.4L121.3,27.5z M117.9,33.5l1.9-3.6l1.9,3.6H117.9z"/>
<path class="st0" d="M104.1,43.7h-3.6l0,0c0.4-1.6,0.6-3.2,0.6-4.9v-4.1h-8.5v4.1c0,1.6,0.2,3.3,0.6,4.9h-3.6
	c0.4-1.6,0.6-3.2,0.6-4.9v-6.4c0-1.6-0.2-3.3-0.6-4.9h3.6c-0.4,1.6-0.6,3.2-0.6,4.9v1.1h8.5v-1.1c0-1.6-0.2-3.3-0.6-4.9l0,0h3.6
	c-0.4,1.6-0.6,3.2-0.6,4.9v6.4C103.5,40.5,103.7,42.1,104.1,43.7z"/>
<path class="st0" d="M46.1,43.7h-3.6l0,0c0.4-1.6,0.6-3.2,0.6-4.9v-4.1h-8.5v4.1c0,1.6,0.2,3.3,0.6,4.9l0,0h-3.6
	c0.4-1.6,0.6-3.2,0.6-4.9v-6.4c0-1.6-0.2-3.3-0.6-4.9h3.6l0,0c-0.4,1.6-0.6,3.2-0.6,4.9v1.1h8.5v-1.1c0-1.6-0.2-3.3-0.6-4.9l0,0h3.6
	c-0.4,1.6-0.6,3.2-0.6,4.9v6.4C45.5,40.5,45.7,42.1,46.1,43.7z"/>
<path class="st0" d="M50.9,42.5v-7.8h5c1.1,0,2.2,0.2,3.2,0.4l0.9-1.6h-9.1v-4.8h5.1c1.9,0,3.9,0.2,5.8,0.6l-1.3-1.8H47.9
	c0.4,1.6,0.6,3.2,0.6,4.9v6.4c0,1.6-0.2,3.3-0.6,4.9h12.6l1.3-1.8c-1.9,0.4-3.8,0.6-5.8,0.6H50.9z"/>
<path class="st0" d="M15.3,41.9L15.3,41.9L14,43.7H0l11-15H6.6c-1.9,0-3.9,0.2-5.8,0.6l1.3-1.8h12.8l-11,15h5.7
	C11.5,42.5,13.4,42.3,15.3,41.9z"/>
<path class="st0" d="M29.7,27.5c-0.4,1.6-0.6,3.2-0.6,4.9v6.2c0,3-2.7,5.4-6.1,5.4S17,41.6,17,38.6v-6.2c0-1.6-0.2-3.3-0.6-4.9H20
	c-0.4,1.6-0.6,3.2-0.6,4.9v6.1c0,2.3,1.9,4.3,4.3,4.3c2.3,0,4.2-1.9,4.2-4.2v-6.2c0-1.6-0.2-3.3-0.6-4.9H29.7z"/>
<path class="st0" d="M75.3,11.7h-1.8c-0.7,1.6-2,2.9-3.7,3.7c-3,1.4-6.6,0.8-8.9-1.5l11-10.5C72,3.7,72.2,4,72.4,4.3l0.7,1.2L74.7,4
	c-0.4-0.6-1-1.2-1.6-1.7L75.4,0H56.7v8.4c0,2.1,0.9,4.1,2.4,5.5l-3,2.8h19.2V11.7z M73.1,0.6l-1,1c-0.6-0.4-1.3-0.7-2.1-1H73.1z
	 M58.5,0.6h4.3c-1.7,0.6-3.2,1.6-4.3,2.9V0.6z M59.5,12.2c-2.2-3.8-0.7-8.6,3.2-10.7c0.1,0,0.1-0.1,0.2-0.1c2.7-1.3,5.9-0.8,8.1,1.2
	L60.1,13C59.9,12.8,59.7,12.5,59.5,12.2z M58.5,16.2l1.5-1.5c0.8,0.6,1.7,1.1,2.8,1.5H58.5z M70,16.2c1.3-0.5,2.5-1.2,3.5-2.1v2.1
	H70z"/>
</svg>
